<svg id="bench-chart" viewBox="0 0 830 580" xmlns="http://www.w3.org/2000/svg">
  <style>
    #bench-chart .grid {
      stroke: #777777;
      stroke-width: 1;
    }

    #bench-chart .dashed {
      stroke: #777777;
      opacity: 0.3;
      stroke-width: 1;
      stroke-dasharray: 5, 5;
    }

    #bench-chart .labels {
      fill: #777777;
      font-size: 13px;
      font-family: sans-serif;
    }

    #bench-chart .x-labels {
      text-anchor: middle;
    }

    #bench-chart .y-labels {
      text-anchor: start;
    }

    #bench-chart .lib-label {
      font-size: 12px;
      font-family: sans-serif;
      text-anchor: end;
    }

    #bench-chart .line-med {
      stroke-width: 6;
      opacity: 0.6;
    }
  </style>

  <g class="grid">
    <line x1="100" y1="520" x2="830" y2="520"></line>
    <line x1="100" y1="520" x2="100" y2="0"></line>
  </g>

  <g class="dashed">
    <line x1="330" y1="520" x2="330" y2="0"></line>
    <line x1="560" y1="520" x2="560" y2="0"></line>
    <line x1="790" y1="520" x2="790" y2="0"></line>

    <line x1="100" y1="20" x2="790" y2="20"></line>
    <line x1="100" y1="145" x2="790" y2="145"></line>
    <line x1="100" y1="270" x2="790" y2="270"></line>
    <line x1="100" y1="395" x2="790" y2="395"></line>
  </g>

  <g class="labels x-labels">
    <text x="100" y="540">10</text>
    <text x="330" y="540">100</text>
    <text x="560" y="540">1000</text>
    <text x="790" y="540">10000</text>
    <text x="445" y="560">ITERATIONS</text>
  </g>

  <g class="labels y-labels">
    <text x="795" y="23">100%</text>
    <text x="795" y="148">75%</text>
    <text x="795" y="273">50%</text>
    <text x="795" y="398">25%</text>
  </g>

  <!--CONTENT_START--><g>
    <text
      class="lib-label"
      x="95"
      y="23"
      fill="hsl(180, 90%, 45%)"
    >nanostores 0.7.4</text>
    <polyline
      class="line-med"
      fill="none"
      stroke="hsl(180, 90%, 45%)" 
      points="100,20 330,114.10497867488704 560,136.30073186959416 790,126.2469556746225"
    ></polyline>
  </g><g>
    <text
      class="lib-label"
      x="95"
      y="71.88789371547992"
      fill="hsl(100, 90%, 45%)"
    >frpts 1.0.0-beta.3</text>
    <polyline
      class="line-med"
      fill="none"
      stroke="hsl(100, 90%, 45%)" 
      points="100,68.88789371547992 330,139.35688262315858 560,149.2033691249277 790,253.7587484561548"
    ></polyline>
  </g><g>
    <text
      class="lib-label"
      x="95"
      y="137.28662596524072"
      fill="hsl(300, 90%, 45%)"
    >usignal 0.9.0</text>
    <polyline
      class="line-med"
      fill="none"
      stroke="hsl(300, 90%, 45%)" 
      points="100,134.28662596524072 330,206.58906387557468 560,94.23403469915097 790,241.8016002753162"
    ></polyline>
  </g><g>
    <text
      class="lib-label"
      x="95"
      y="153.28662596524072"
      fill="hsl(240, 90%, 45%)"
    >s-js 0.4.9</text>
    <polyline
      class="line-med"
      fill="none"
      stroke="hsl(240, 90%, 45%)" 
      points="100,140.6615201154836 330,213.58283655838565 560,102.34356894553879 790,20"
    ></polyline>
  </g><g>
    <text
      class="lib-label"
      x="95"
      y="183.94468753506115"
      fill="hsl(280, 90%, 45%)"
    >spred 0.32.2</text>
    <polyline
      class="line-med"
      fill="none"
      stroke="hsl(280, 90%, 45%)" 
      points="100,180.94468753506115 330,233.54492624050064 560,20 790,113.27044025157232"
    ></polyline>
  </g><g>
    <text
      class="lib-label"
      x="95"
      y="199.94468753506115"
      fill="hsl(0, 90%, 45%)"
    >@artalar/act 3.2.1</text>
    <polyline
      class="line-med"
      fill="none"
      stroke="hsl(0, 90%, 45%)" 
      points="100,182.0505843102902 330,20 560,179.8041529023124 790,192.49063101387623"
    ></polyline>
  </g><g>
    <text
      class="lib-label"
      x="95"
      y="215.94468753506115"
      fill="hsl(200, 90%, 45%)"
    >preact 1.2.3</text>
    <polyline
      class="line-med"
      fill="none"
      stroke="hsl(200, 90%, 45%)" 
      points="100,186.9421943020885 330,230.5429578101003 560,117.61373150990788 790,138.42105263157893"
    ></polyline>
  </g><g>
    <text
      class="lib-label"
      x="95"
      y="266.18371740577595"
      fill="hsl(20, 90%, 45%)"
    >@webreflection/signal 2.0.0</text>
    <polyline
      class="line-med"
      fill="none"
      stroke="hsl(20, 90%, 45%)" 
      points="100,263.18371740577595 330,355.5742584419583 560,389.5721005970689 790,443.7004176596899"
    ></polyline>
  </g><g>
    <text
      class="lib-label"
      x="95"
      y="289.3161150634086"
      fill="hsl(160, 90%, 45%)"
    >mol 1.0.548</text>
    <polyline
      class="line-med"
      fill="none"
      stroke="hsl(160, 90%, 45%)" 
      points="100,286.3161150634086 330,342.2896021298625 560,242.68705520292366 790,219.15333085225157"
    ></polyline>
  </g><g>
    <text
      class="lib-label"
      x="95"
      y="305.3161150634086"
      fill="hsl(260, 90%, 45%)"
    >solid 1.7.3</text>
    <polyline
      class="line-med"
      fill="none"
      stroke="hsl(260, 90%, 45%)" 
      points="100,296.14814814814815 330,338.18525734390073 560,229.26598104456545 790,263.0263053325916"
    ></polyline>
  </g><g>
    <text
      class="lib-label"
      x="95"
      y="327.4308302953168"
      fill="hsl(40, 90%, 45%)"
    >cellx 1.10.30</text>
    <polyline
      class="line-med"
      fill="none"
      stroke="hsl(40, 90%, 45%)" 
      points="100,324.4308302953168 330,352.31569031087537 560,337.69614971233483 790,319.96906897618317"
    ></polyline>
  </g><g>
    <text
      class="lib-label"
      x="95"
      y="343.4308302953168"
      fill="hsl(220, 90%, 45%)"
    >reatom 3.2.0</text>
    <polyline
      class="line-med"
      fill="none"
      stroke="hsl(220, 90%, 45%)" 
      points="100,337.3374301113182 330,364.41566850113304 560,305.74082330212514 790,372.58382912763"
    ></polyline>
  </g><g>
    <text
      class="lib-label"
      x="95"
      y="370.5341601849905"
      fill="hsl(320, 90%, 45%)"
    >whatsup 2.5.0</text>
    <polyline
      class="line-med"
      fill="none"
      stroke="hsl(320, 90%, 45%)" 
      points="100,367.5341601849905 330,401.7188422917897 560,374.640318596562 790,414.57467966482994"
    ></polyline>
  </g><g>
    <text
      class="lib-label"
      x="95"
      y="414.1873255918624"
      fill="hsl(140, 90%, 45%)"
    >mobx 6.9.0</text>
    <polyline
      class="line-med"
      fill="none"
      stroke="hsl(140, 90%, 45%)" 
      points="100,411.1873255918624 330,419.54538328891675 560,427.17550862735 790,433.74343105609944"
    ></polyline>
  </g><g>
    <text
      class="lib-label"
      x="95"
      y="430.1873255918624"
      fill="hsl(340, 90%, 45%)"
    >wonka 6.3.1</text>
    <polyline
      class="line-med"
      fill="none"
      stroke="hsl(340, 90%, 45%)" 
      points="100,422.3975367920161 330,438.0332062728645 560,457.2654388808511 790,479.821816871482"
    ></polyline>
  </g><g>
    <text
      class="lib-label"
      x="95"
      y="446.1873255918624"
      fill="hsl(120, 90%, 45%)"
    >jotai 2.0.3</text>
    <polyline
      class="line-med"
      fill="none"
      stroke="hsl(120, 90%, 45%)" 
      points="100,422.62502148135417 330,455.1412627615571 560,467.95126353790613 790,485.76821689833685"
    ></polyline>
  </g><g>
    <text
      class="lib-label"
      x="95"
      y="462.1873255918624"
      fill="hsl(60, 90%, 45%)"
    >effector 22.8.0</text>
    <polyline
      class="line-med"
      fill="none"
      stroke="hsl(60, 90%, 45%)" 
      points="100,436.9316193111536 330,316.2955113804942 560,390.84275828088954 790,444.17456148578935"
    ></polyline>
  </g><g>
    <text
      class="lib-label"
      x="95"
      y="478.1873255918624"
      fill="hsl(80, 90%, 45%)"
    >effector.fork 22.8.0</text>
    <polyline
      class="line-med"
      fill="none"
      stroke="hsl(80, 90%, 45%)" 
      points="100,465.20597621119816 330,419.54013377926424 560,452.1704970478229 790,477.80593470261243"
    ></polyline>
  </g><!--CONTENT_END-->
</svg>