<svg id="bench-chart" viewBox="0 0 830 580" xmlns="http://www.w3.org/2000/svg">
  <style>
    #bench-chart .grid {
      stroke: #777777;
      stroke-width: 1;
    }

    #bench-chart .dashed {
      stroke: #777777;
      opacity: 0.3;
      stroke-width: 1;
      stroke-dasharray: 5, 5;
    }

    #bench-chart .labels {
      fill: #777777;
      font-size: 13px;
      font-family: sans-serif;
    }

    #bench-chart .x-labels {
      text-anchor: middle;
    }

    #bench-chart .y-labels {
      text-anchor: start;
    }

    #bench-chart .lib-label {
      font-size: 12px;
      font-family: sans-serif;
      text-anchor: end;
    }

    #bench-chart .line-med {
      stroke-width: 6;
      opacity: 0.6;
    }
  </style>

  <g class="grid">
    <line x1="100" y1="520" x2="830" y2="520"></line>
    <line x1="100" y1="520" x2="100" y2="0"></line>
  </g>

  <g class="dashed">
    <line x1="330" y1="520" x2="330" y2="0"></line>
    <line x1="560" y1="520" x2="560" y2="0"></line>
    <line x1="790" y1="520" x2="790" y2="0"></line>

    <line x1="100" y1="20" x2="790" y2="20"></line>
    <line x1="100" y1="145" x2="790" y2="145"></line>
    <line x1="100" y1="270" x2="790" y2="270"></line>
    <line x1="100" y1="395" x2="790" y2="395"></line>
  </g>

  <g class="labels x-labels">
    <text x="100" y="540">10</text>
    <text x="330" y="540">100</text>
    <text x="560" y="540">1000</text>
    <text x="790" y="540">10000</text>
    <text x="445" y="560">ITERATIONS</text>
  </g>

  <g class="labels y-labels">
    <text x="795" y="23">100%</text>
    <text x="795" y="148">75%</text>
    <text x="795" y="273">50%</text>
    <text x="795" y="398">25%</text>
  </g>

  <!--CONTENT_START--><g>
    <text
      class="lib-label"
      x="95"
      y="23"
      fill="hsl(0, 90%, 45%)"
    >@artalar/act 1.0.2</text>
    <polyline
      class="line-med"
      fill="none"
      stroke="hsl(0, 90%, 45%)" 
      points="100,20 330,20 560,93.94978186717688 790,20"
    ></polyline>
  </g><g>
    <text
      class="lib-label"
      x="95"
      y="263.0128223662888"
      fill="hsl(100, 90%, 45%)"
    >frpts 1.0.0-beta.3</text>
    <polyline
      class="line-med"
      fill="none"
      stroke="hsl(100, 90%, 45%)" 
      points="100,260.0128223662888 330,236.21230157957916 560,151.54064573140224 790,190.25564220291906"
    ></polyline>
  </g><g>
    <text
      class="lib-label"
      x="95"
      y="279.0128223662888"
      fill="hsl(280, 90%, 45%)"
    >spred 0.31.1</text>
    <polyline
      class="line-med"
      fill="none"
      stroke="hsl(280, 90%, 45%)" 
      points="100,260.91641415520553 330,226.23770827230038 560,20 790,111.94152219625806"
    ></polyline>
  </g><g>
    <text
      class="lib-label"
      x="95"
      y="295.0128223662888"
      fill="hsl(160, 90%, 45%)"
    >preact 1.2.3</text>
    <polyline
      class="line-med"
      fill="none"
      stroke="hsl(160, 90%, 45%)" 
      points="100,282.80025379813566 330,246.22372652250056 560,167.91600697872238 790,201.4510605059184"
    ></polyline>
  </g><g>
    <text
      class="lib-label"
      x="95"
      y="311.0128223662888"
      fill="hsl(240, 90%, 45%)"
    >s-js 0.4.9</text>
    <polyline
      class="line-med"
      fill="none"
      stroke="hsl(240, 90%, 45%)" 
      points="100,286.44836244244954 330,239.76764296518763 560,144.16615946775596 790,57.46850506361804"
    ></polyline>
  </g><g>
    <text
      class="lib-label"
      x="95"
      y="327.0128223662888"
      fill="hsl(300, 90%, 45%)"
    >usignal 0.8.9</text>
    <polyline
      class="line-med"
      fill="none"
      stroke="hsl(300, 90%, 45%)" 
      points="100,297.4099353456645 330,278.2483321452508 560,132.97697940909495 790,213.32235799352588"
    ></polyline>
  </g><g>
    <text
      class="lib-label"
      x="95"
      y="343.0128223662888"
      fill="hsl(200, 90%, 45%)"
    >reatom-v1 1.1.5</text>
    <polyline
      class="line-med"
      fill="none"
      stroke="hsl(200, 90%, 45%)" 
      points="100,335.273743001757 330,317.510442912804 560,306.256252269412 790,317.2274493605043"
    ></polyline>
  </g><g>
    <text
      class="lib-label"
      x="95"
      y="362.373193726508"
      fill="hsl(260, 90%, 45%)"
    >solid 1.6.8</text>
    <polyline
      class="line-med"
      fill="none"
      stroke="hsl(260, 90%, 45%)" 
      points="100,359.373193726508 330,361.2210990526095 560,234.04366473111068 790,247.58555840333455"
    ></polyline>
  </g><g>
    <text
      class="lib-label"
      x="95"
      y="378.373193726508"
      fill="hsl(20, 90%, 45%)"
    >@webreflection/signal 0.3.0</text>
    <polyline
      class="line-med"
      fill="none"
      stroke="hsl(20, 90%, 45%)" 
      points="100,367.3567080748098 330,369.48530099135627 560,331.1731514929188 790,365.2737909775902"
    ></polyline>
  </g><g>
    <text
      class="lib-label"
      x="95"
      y="397.07865992056526"
      fill="hsl(40, 90%, 45%)"
    >cellx 1.10.30</text>
    <polyline
      class="line-med"
      fill="none"
      stroke="hsl(40, 90%, 45%)" 
      points="100,394.07865992056526 330,391.6586804905966 560,372.61625829256093 790,306.7166429578326"
    ></polyline>
  </g><g>
    <text
      class="lib-label"
      x="95"
      y="413.07865992056526"
      fill="hsl(140, 90%, 45%)"
    >mol 1.0.430</text>
    <polyline
      class="line-med"
      fill="none"
      stroke="hsl(140, 90%, 45%)" 
      points="100,394.4834317240322 330,361.4230623921894 560,222.98782505156916 790,169.2001545697324"
    ></polyline>
  </g><g>
    <text
      class="lib-label"
      x="95"
      y="429.07865992056526"
      fill="hsl(180, 90%, 45%)"
    >reatom 3.1.18</text>
    <polyline
      class="line-med"
      fill="none"
      stroke="hsl(180, 90%, 45%)" 
      points="100,402.4204789011004 330,396.7740095930452 560,340.97454227073285 790,343.0283669477325"
    ></polyline>
  </g><g>
    <text
      class="lib-label"
      x="95"
      y="445.07865992056526"
      fill="hsl(320, 90%, 45%)"
    >whatsup 2.4.0</text>
    <polyline
      class="line-med"
      fill="none"
      stroke="hsl(320, 90%, 45%)" 
      points="100,414.52022917963296 330,423.81419295506436 560,388.75486033105796 790,389.378063755684"
    ></polyline>
  </g><g>
    <text
      class="lib-label"
      x="95"
      y="461.07865992056526"
      fill="hsl(120, 90%, 45%)"
    >mobx 6.7.0</text>
    <polyline
      class="line-med"
      fill="none"
      stroke="hsl(120, 90%, 45%)" 
      points="100,446.29214852676046 330,436.3595681349057 560,424.2673430714234 790,421.27451279801386"
    ></polyline>
  </g><g>
    <text
      class="lib-label"
      x="95"
      y="477.07865992056526"
      fill="hsl(220, 90%, 45%)"
    >reatom-v2 2.0.22</text>
    <polyline
      class="line-med"
      fill="none"
      stroke="hsl(220, 90%, 45%)" 
      points="100,458.1365665989791 330,450.6130139700587 560,462.89896478969206 790,466.44784290750414"
    ></polyline>
  </g><g>
    <text
      class="lib-label"
      x="95"
      y="493.07865992056526"
      fill="hsl(340, 90%, 45%)"
    >wonka 6.1.2</text>
    <polyline
      class="line-med"
      fill="none"
      stroke="hsl(340, 90%, 45%)" 
      points="100,466.94962449694003 330,450.5052167006858 560,443.17018232974254 790,456.1047034350768"
    ></polyline>
  </g><g>
    <text
      class="lib-label"
      x="95"
      y="509.07865992056526"
      fill="hsl(60, 90%, 45%)"
    >effector 22.4.1</text>
    <polyline
      class="line-med"
      fill="none"
      stroke="hsl(60, 90%, 45%)" 
      points="100,475.8046908542974 330,379.10249084188416 560,395.0615526808327 790,418.03803987848283"
    ></polyline>
  </g><g>
    <text
      class="lib-label"
      x="95"
      y="525.0786599205653"
      fill="hsl(80, 90%, 45%)"
    >effector.fork 22.4.1</text>
    <polyline
      class="line-med"
      fill="none"
      stroke="hsl(80, 90%, 45%)" 
      points="100,487.53504764147726 330,443.29213918651016 560,453.23673935677357 790,459.24934535265703"
    ></polyline>
  </g><!--CONTENT_END-->
</svg>