<svg id="bench-chart" viewBox="0 0 830 580" xmlns="http://www.w3.org/2000/svg">
  <style>
    #bench-chart .grid {
      stroke: #777777;
      stroke-width: 1;
    }

    #bench-chart .dashed {
      stroke: #777777;
      opacity: 0.3;
      stroke-width: 1;
      stroke-dasharray: 5, 5;
    }

    #bench-chart .labels {
      fill: #777777;
      font-size: 13px;
      font-family: sans-serif;
    }

    #bench-chart .x-labels {
      text-anchor: middle;
    }

    #bench-chart .y-labels {
      text-anchor: start;
    }

    #bench-chart .lib-label {
      font-size: 12px;
      font-family: sans-serif;
      text-anchor: end;
    }

    #bench-chart .line-med {
      stroke-width: 6;
      opacity: 0.6;
    }
  </style>

  <g class="grid">
    <line x1="100" y1="520" x2="830" y2="520"></line>
    <line x1="100" y1="520" x2="100" y2="0"></line>
  </g>

  <g class="dashed">
    <line x1="330" y1="520" x2="330" y2="0"></line>
    <line x1="560" y1="520" x2="560" y2="0"></line>
    <line x1="790" y1="520" x2="790" y2="0"></line>

    <line x1="100" y1="20" x2="790" y2="20"></line>
    <line x1="100" y1="145" x2="790" y2="145"></line>
    <line x1="100" y1="270" x2="790" y2="270"></line>
    <line x1="100" y1="395" x2="790" y2="395"></line>
  </g>

  <g class="labels x-labels">
    <text x="100" y="540">10</text>
    <text x="330" y="540">100</text>
    <text x="560" y="540">1000</text>
    <text x="790" y="540">10000</text>
    <text x="445" y="560">ITERATIONS</text>
  </g>

  <g class="labels y-labels">
    <text x="795" y="23">100%</text>
    <text x="795" y="148">75%</text>
    <text x="795" y="273">50%</text>
    <text x="795" y="398">25%</text>
  </g>

  <!--CONTENT_START--><g>
    <text
      class="lib-label"
      x="95"
      y="23"
      fill="hsl(0, 90%, 45%)"
    >@artalar/act 3.1.0</text>
    <polyline
      class="line-med"
      fill="none"
      stroke="hsl(0, 90%, 45%)" 
      points="100,20 330,20 560,147.37457379444717 790,161.33473095737247"
    ></polyline>
  </g><g>
    <text
      class="lib-label"
      x="95"
      y="46.260765422898785"
      fill="hsl(162, 90%, 45%)"
    >nanostores 0.7.3</text>
    <polyline
      class="line-med"
      fill="none"
      stroke="hsl(162, 90%, 45%)" 
      points="100,43.260765422898785 330,230.7005640480667 560,237.5558427173712 790,179.5074218426072"
    ></polyline>
  </g><g>
    <text
      class="lib-label"
      x="95"
      y="117.0396600566572"
      fill="hsl(108, 90%, 45%)"
    >frpts 1.0.0-beta.3</text>
    <polyline
      class="line-med"
      fill="none"
      stroke="hsl(108, 90%, 45%)" 
      points="100,114.0396600566572 330,273.02697232980915 560,201.71416684002494 790,268.7301878709993"
    ></polyline>
  </g><g>
    <text
      class="lib-label"
      x="95"
      y="133.0396600566572"
      fill="hsl(288, 90%, 45%)"
    >spred 0.31.2</text>
    <polyline
      class="line-med"
      fill="none"
      stroke="hsl(288, 90%, 45%)" 
      points="100,116.43589339220942 330,296.2533982423974 560,20 790,96.6573873595216"
    ></polyline>
  </g><g>
    <text
      class="lib-label"
      x="95"
      y="149.0396600566572"
      fill="hsl(252, 90%, 45%)"
    >s-js 0.4.9</text>
    <polyline
      class="line-med"
      fill="none"
      stroke="hsl(252, 90%, 45%)" 
      points="100,136.11161116111612 330,291.8172732841162 560,130.88504577822988 790,20"
    ></polyline>
  </g><g>
    <text
      class="lib-label"
      x="95"
      y="168.3222453222453"
      fill="hsl(306, 90%, 45%)"
    >usignal 0.8.10</text>
    <polyline
      class="line-med"
      fill="none"
      stroke="hsl(306, 90%, 45%)" 
      points="100,165.3222453222453 330,306.26645730160647 560,155.19313304721032 790,286.2263721248007"
    ></polyline>
  </g><g>
    <text
      class="lib-label"
      x="95"
      y="199.64897649734647"
      fill="hsl(180, 90%, 45%)"
    >preact 1.2.3</text>
    <polyline
      class="line-med"
      fill="none"
      stroke="hsl(180, 90%, 45%)" 
      points="100,196.64897649734647 330,312.30001760666704 560,169.80544747081714 790,150.040095508402"
    ></polyline>
  </g><g>
    <text
      class="lib-label"
      x="95"
      y="239.8442350858335"
      fill="hsl(216, 90%, 45%)"
    >reatom-v1 1.1.5</text>
    <polyline
      class="line-med"
      fill="none"
      stroke="hsl(216, 90%, 45%)" 
      points="100,236.8442350858335 330,304.5751156561968 560,319.88228369629195 790,363.8872307663061"
    ></polyline>
  </g><g>
    <text
      class="lib-label"
      x="95"
      y="274.20833333333337"
      fill="hsl(18, 90%, 45%)"
    >@krulod/wire 1.0.13</text>
    <polyline
      class="line-med"
      fill="none"
      stroke="hsl(18, 90%, 45%)" 
      points="100,271.20833333333337 330,384.3125527183498 560,139.40298507462688 790,164.00901681983703"
    ></polyline>
  </g><g>
    <text
      class="lib-label"
      x="95"
      y="290.20833333333337"
      fill="hsl(36, 90%, 45%)"
    >@webreflection/signal 1.0.1</text>
    <polyline
      class="line-med"
      fill="none"
      stroke="hsl(36, 90%, 45%)" 
      points="100,281.8996982707057 330,396.90434782608696 560,419.9345977763244 790,452.097438356844"
    ></polyline>
  </g><g>
    <text
      class="lib-label"
      x="95"
      y="306.20833333333337"
      fill="hsl(54, 90%, 45%)"
    >cellx 1.10.30</text>
    <polyline
      class="line-med"
      fill="none"
      stroke="hsl(54, 90%, 45%)" 
      points="100,297.897634280613 330,394.41670658788877 560,351.6275998679432 790,316.59169721589217"
    ></polyline>
  </g><g>
    <text
      class="lib-label"
      x="95"
      y="322.20833333333337"
      fill="hsl(270, 90%, 45%)"
    >solid 1.6.10</text>
    <polyline
      class="line-med"
      fill="none"
      stroke="hsl(270, 90%, 45%)" 
      points="100,312.72638911388304 330,388.50465379827966 560,246.4437689969605 790,286.21306154984916"
    ></polyline>
  </g><g>
    <text
      class="lib-label"
      x="95"
      y="338.20833333333337"
      fill="hsl(198, 90%, 45%)"
    >reatom 3.1.19</text>
    <polyline
      class="line-med"
      fill="none"
      stroke="hsl(198, 90%, 45%)" 
      points="100,323.0759421309529 330,399.09948073244055 560,325.4548922372687 790,390.90891942025337"
    ></polyline>
  </g><g>
    <text
      class="lib-label"
      x="95"
      y="362.47198623507904"
      fill="hsl(144, 90%, 45%)"
    >mol 1.0.464</text>
    <polyline
      class="line-med"
      fill="none"
      stroke="hsl(144, 90%, 45%)" 
      points="100,359.47198623507904 330,407.33963645624425 560,244.2746440800144 790,224.47675255505976"
    ></polyline>
  </g><g>
    <text
      class="lib-label"
      x="95"
      y="378.47198623507904"
      fill="hsl(324, 90%, 45%)"
    >whatsup 2.5.0</text>
    <polyline
      class="line-med"
      fill="none"
      stroke="hsl(324, 90%, 45%)" 
      points="100,362.31097652226725 330,431.1830547608292 560,399.25183489858733 790,429.9818034332318"
    ></polyline>
  </g><g>
    <text
      class="lib-label"
      x="95"
      y="395.19423793147735"
      fill="hsl(126, 90%, 45%)"
    >mobx 6.7.0</text>
    <polyline
      class="line-med"
      fill="none"
      stroke="hsl(126, 90%, 45%)" 
      points="100,392.19423793147735 330,443.36509311390216 560,433.31199184112864 790,439.1931119311193"
    ></polyline>
  </g><g>
    <text
      class="lib-label"
      x="95"
      y="411.19423793147735"
      fill="hsl(234, 90%, 45%)"
    >reatom-v2 2.0.22</text>
    <polyline
      class="line-med"
      fill="none"
      stroke="hsl(234, 90%, 45%)" 
      points="100,402.1846451332847 330,434.3731626764738 560,464.0585009140768 790,477.2438640883863"
    ></polyline>
  </g><g>
    <text
      class="lib-label"
      x="95"
      y="440.5393935488029"
      fill="hsl(342, 90%, 45%)"
    >wonka 6.1.2</text>
    <polyline
      class="line-med"
      fill="none"
      stroke="hsl(342, 90%, 45%)" 
      points="100,437.5393935488029 330,452.3844096293466 560,469.6859482390082 790,484.70886532899567"
    ></polyline>
  </g><g>
    <text
      class="lib-label"
      x="95"
      y="456.9780848374054"
      fill="hsl(72, 90%, 45%)"
    >effector 22.5.0</text>
    <polyline
      class="line-med"
      fill="none"
      stroke="hsl(72, 90%, 45%)" 
      points="100,453.9780848374054 330,360.8579908265131 560,416.3835839089801 790,453.1596939606056"
    ></polyline>
  </g><g>
    <text
      class="lib-label"
      x="95"
      y="472.9780848374054"
      fill="hsl(90, 90%, 45%)"
    >effector.fork 22.5.0</text>
    <polyline
      class="line-med"
      fill="none"
      stroke="hsl(90, 90%, 45%)" 
      points="100,468.12817810107373 330,433.1821359794914 560,466.61921708185054 790,482.5732060251122"
    ></polyline>
  </g><!--CONTENT_END-->
</svg>