<svg id="bench-chart" viewBox="0 0 830 580" xmlns="http://www.w3.org/2000/svg">
  <style>
    #bench-chart .grid {
      stroke: #777777;
      stroke-width: 1;
    }

    #bench-chart .dashed {
      stroke: #777777;
      opacity: 0.3;
      stroke-width: 1;
      stroke-dasharray: 5, 5;
    }

    #bench-chart .labels {
      fill: #777777;
      font-size: 13px;
      font-family: sans-serif;
    }

    #bench-chart .x-labels {
      text-anchor: middle;
    }

    #bench-chart .y-labels {
      text-anchor: start;
    }

    #bench-chart .lib-label {
      font-size: 12px;
      font-family: sans-serif;
      text-anchor: end;
    }

    #bench-chart .line-med {
      stroke-width: 6;
      opacity: 0.6;
    }
  </style>

  <g class="grid">
    <line x1="100" y1="520" x2="830" y2="520"></line>
    <line x1="100" y1="520" x2="100" y2="0"></line>
  </g>

  <g class="dashed">
    <line x1="330" y1="520" x2="330" y2="0"></line>
    <line x1="560" y1="520" x2="560" y2="0"></line>
    <line x1="790" y1="520" x2="790" y2="0"></line>

    <line x1="100" y1="20" x2="790" y2="20"></line>
    <line x1="100" y1="145" x2="790" y2="145"></line>
    <line x1="100" y1="270" x2="790" y2="270"></line>
    <line x1="100" y1="395" x2="790" y2="395"></line>
  </g>

  <g class="labels x-labels">
    <text x="100" y="540">10</text>
    <text x="330" y="540">100</text>
    <text x="560" y="540">1000</text>
    <text x="790" y="540">10000</text>
    <text x="445" y="560">ITERATIONS</text>
  </g>

  <g class="labels y-labels">
    <text x="795" y="23">100%</text>
    <text x="795" y="148">75%</text>
    <text x="795" y="273">50%</text>
    <text x="795" y="398">25%</text>
  </g>

  <!--CONTENT_START--><g>
    <text
      class="lib-label"
      x="95"
      y="23"
      fill="hsl(100, 90%, 45%)"
    >frpts 1.0.0-beta.3</text>
    <polyline
      class="line-med"
      fill="none"
      stroke="hsl(100, 90%, 45%)" 
      points="100,20 330,226.2766361871986 560,191.94064539197285 790,252.64887692025215"
    ></polyline>
  </g><g>
    <text
      class="lib-label"
      x="95"
      y="54.94241538836134"
      fill="hsl(0, 90%, 45%)"
    >@artalar/act 3.0.0</text>
    <polyline
      class="line-med"
      fill="none"
      stroke="hsl(0, 90%, 45%)" 
      points="100,51.94241538836134 330,20 560,91.48695195282856 790,77.57836633412671"
    ></polyline>
  </g><g>
    <text
      class="lib-label"
      x="95"
      y="122.11107635358829"
      fill="hsl(280, 90%, 45%)"
    >spred 0.31.2</text>
    <polyline
      class="line-med"
      fill="none"
      stroke="hsl(280, 90%, 45%)" 
      points="100,119.11107635358829 330,270.73438269403835 560,20 790,81.4867238869648"
    ></polyline>
  </g><g>
    <text
      class="lib-label"
      x="95"
      y="138.1110763535883"
      fill="hsl(240, 90%, 45%)"
    >s-js 0.4.9</text>
    <polyline
      class="line-med"
      fill="none"
      stroke="hsl(240, 90%, 45%)" 
      points="100,120.0078029495149 330,270.7301501052774 560,151.60008030515962 790,20"
    ></polyline>
  </g><g>
    <text
      class="lib-label"
      x="95"
      y="183.23750345208504"
      fill="hsl(300, 90%, 45%)"
    >usignal 0.8.9</text>
    <polyline
      class="line-med"
      fill="none"
      stroke="hsl(300, 90%, 45%)" 
      points="100,180.23750345208504 330,287.9528318290312 560,164.10395655546938 790,255.49803209203756"
    ></polyline>
  </g><g>
    <text
      class="lib-label"
      x="95"
      y="199.23750345208504"
      fill="hsl(200, 90%, 45%)"
    >reatom-v1 1.1.5</text>
    <polyline
      class="line-med"
      fill="none"
      stroke="hsl(200, 90%, 45%)" 
      points="100,184.759226560286 330,316.11960612752245 560,337.36750435431696 790,347.6127428250081"
    ></polyline>
  </g><g>
    <text
      class="lib-label"
      x="95"
      y="215.23750345208504"
      fill="hsl(160, 90%, 45%)"
    >preact 1.2.3</text>
    <polyline
      class="line-med"
      fill="none"
      stroke="hsl(160, 90%, 45%)" 
      points="100,188.54895199094778 330,291.7519746252877 560,181.31413805832412 790,149.69948713601494"
    ></polyline>
  </g><g>
    <text
      class="lib-label"
      x="95"
      y="265.7075229419195"
      fill="hsl(20, 90%, 45%)"
    >@webreflection/signal 0.3.0</text>
    <polyline
      class="line-med"
      fill="none"
      stroke="hsl(20, 90%, 45%)" 
      points="100,262.7075229419195 330,367.5486276260995 560,367.82518555375873 790,395.33177316704246"
    ></polyline>
  </g><g>
    <text
      class="lib-label"
      x="95"
      y="299.661946774135"
      fill="hsl(260, 90%, 45%)"
    >solid 1.6.9</text>
    <polyline
      class="line-med"
      fill="none"
      stroke="hsl(260, 90%, 45%)" 
      points="100,296.661946774135 330,383.4088244598693 560,250.78051643192487 790,263.63977816250474"
    ></polyline>
  </g><g>
    <text
      class="lib-label"
      x="95"
      y="315.6992835430582"
      fill="hsl(180, 90%, 45%)"
    >reatom 3.1.19</text>
    <polyline
      class="line-med"
      fill="none"
      stroke="hsl(180, 90%, 45%)" 
      points="100,312.6992835430582 330,395.7374912178234 560,337.4038509378576 790,351.1102089736898"
    ></polyline>
  </g><g>
    <text
      class="lib-label"
      x="95"
      y="331.6992835430582"
      fill="hsl(140, 90%, 45%)"
    >mol 1.0.441</text>
    <polyline
      class="line-med"
      fill="none"
      stroke="hsl(140, 90%, 45%)" 
      points="100,318.17182004304686 330,380.92426625234475 560,278.616153643778 790,205.5903839925145"
    ></polyline>
  </g><g>
    <text
      class="lib-label"
      x="95"
      y="347.6992835430582"
      fill="hsl(40, 90%, 45%)"
    >cellx 1.10.30</text>
    <polyline
      class="line-med"
      fill="none"
      stroke="hsl(40, 90%, 45%)" 
      points="100,321.58950308675827 330,388.1291041223129 560,354.65489277347274 790,314.2803993595178"
    ></polyline>
  </g><g>
    <text
      class="lib-label"
      x="95"
      y="363.6992835430582"
      fill="hsl(320, 90%, 45%)"
    >whatsup 2.4.0</text>
    <polyline
      class="line-med"
      fill="none"
      stroke="hsl(320, 90%, 45%)" 
      points="100,351.9032420261023 330,423.89147855234904 560,390.37298671941227 790,414.9763181304546"
    ></polyline>
  </g><g>
    <text
      class="lib-label"
      x="95"
      y="391.2699102726085"
      fill="hsl(120, 90%, 45%)"
    >mobx 6.7.0</text>
    <polyline
      class="line-med"
      fill="none"
      stroke="hsl(120, 90%, 45%)" 
      points="100,388.2699102726085 330,437.2421568903797 560,431.39332190540574 790,428.77528218943496"
    ></polyline>
  </g><g>
    <text
      class="lib-label"
      x="95"
      y="407.2699102726085"
      fill="hsl(220, 90%, 45%)"
    >reatom-v2 2.0.22</text>
    <polyline
      class="line-med"
      fill="none"
      stroke="hsl(220, 90%, 45%)" 
      points="100,401.8832926899518 330,439.69365426695845 560,464.6643296015681 790,475.20570561332266"
    ></polyline>
  </g><g>
    <text
      class="lib-label"
      x="95"
      y="436.5602270811084"
      fill="hsl(340, 90%, 45%)"
    >wonka 6.1.2</text>
    <polyline
      class="line-med"
      fill="none"
      stroke="hsl(340, 90%, 45%)" 
      points="100,433.5602270811084 330,442.2222810912193 560,459.48238475681643 790,477.84966468857044"
    ></polyline>
  </g><g>
    <text
      class="lib-label"
      x="95"
      y="452.5602270811084"
      fill="hsl(60, 90%, 45%)"
    >effector 22.5.0</text>
    <polyline
      class="line-med"
      fill="none"
      stroke="hsl(60, 90%, 45%)" 
      points="100,444.9494286474207 330,349.2705619650167 560,407.0977665661724 790,444.027131614418"
    ></polyline>
  </g><g>
    <text
      class="lib-label"
      x="95"
      y="468.6308654480146"
      fill="hsl(80, 90%, 45%)"
    >effector.fork 22.5.0</text>
    <polyline
      class="line-med"
      fill="none"
      stroke="hsl(80, 90%, 45%)" 
      points="100,465.6308654480146 330,435.4923091093304 560,465.0277856832582 790,478.37621252834793"
    ></polyline>
  </g><!--CONTENT_END-->
</svg>