<svg id="bench-chart" viewBox="0 0 830 580" xmlns="http://www.w3.org/2000/svg">
  <style>
    #bench-chart .grid {
      stroke: #777777;
      stroke-width: 1;
    }

    #bench-chart .dashed {
      stroke: #777777;
      opacity: 0.3;
      stroke-width: 1;
      stroke-dasharray: 5, 5;
    }

    #bench-chart .labels {
      fill: #777777;
      font-size: 13px;
      font-family: sans-serif;
    }

    #bench-chart .x-labels {
      text-anchor: middle;
    }

    #bench-chart .y-labels {
      text-anchor: start;
    }

    #bench-chart .lib-label {
      font-size: 12px;
      font-family: sans-serif;
      text-anchor: end;
    }

    #bench-chart .line-med {
      stroke-width: 6;
      opacity: 0.6;
    }
  </style>

  <g class="grid">
    <line x1="100" y1="520" x2="830" y2="520"></line>
    <line x1="100" y1="520" x2="100" y2="0"></line>
  </g>

  <g class="dashed">
    <line x1="330" y1="520" x2="330" y2="0"></line>
    <line x1="560" y1="520" x2="560" y2="0"></line>
    <line x1="790" y1="520" x2="790" y2="0"></line>

    <line x1="100" y1="20" x2="790" y2="20"></line>
    <line x1="100" y1="145" x2="790" y2="145"></line>
    <line x1="100" y1="270" x2="790" y2="270"></line>
    <line x1="100" y1="395" x2="790" y2="395"></line>
  </g>

  <g class="labels x-labels">
    <text x="100" y="540">10</text>
    <text x="330" y="540">100</text>
    <text x="560" y="540">1000</text>
    <text x="790" y="540">10000</text>
    <text x="445" y="560">ITERATIONS</text>
  </g>

  <g class="labels y-labels">
    <text x="795" y="23">100%</text>
    <text x="795" y="148">75%</text>
    <text x="795" y="273">50%</text>
    <text x="795" y="398">25%</text>
  </g>

  <!--CONTENT_START--><g>
    <text
      class="lib-label"
      x="95"
      y="23"
      fill="hsl(0, 90%, 45%)"
    >@artalar/act 0.0.2</text>
    <polyline
      class="line-med"
      fill="none"
      stroke="hsl(0, 90%, 45%)" 
      points="100,20 330,20 560,20 790,93.25736273494155"
    ></polyline>
  </g><g>
    <text
      class="lib-label"
      x="95"
      y="196.97291918402163"
      fill="hsl(85, 90%, 45%)"
    >frpts 1.0.0-beta.3</text>
    <polyline
      class="line-med"
      fill="none"
      stroke="hsl(85, 90%, 45%)" 
      points="100,193.97291918402163 330,230.83220352500197 560,210.174794725056 790,240.3472020172631"
    ></polyline>
  </g><g>
    <text
      class="lib-label"
      x="95"
      y="251.71970783493268"
      fill="hsl(275, 90%, 45%)"
    >spred 0.31.1</text>
    <polyline
      class="line-med"
      fill="none"
      stroke="hsl(275, 90%, 45%)" 
      points="100,248.71970783493268 330,282.89847964688573 560,67.61580381471393 790,48.583106267029976"
    ></polyline>
  </g><g>
    <text
      class="lib-label"
      x="95"
      y="267.7197078349327"
      fill="hsl(233, 90%, 45%)"
    >s-js 0.4.9</text>
    <polyline
      class="line-med"
      fill="none"
      stroke="hsl(233, 90%, 45%)" 
      points="100,254.22901426812487 330,282.89847964688573 560,196.1540962288687 790,20"
    ></polyline>
  </g><g>
    <text
      class="lib-label"
      x="95"
      y="283.7197078349327"
      fill="hsl(191, 90%, 45%)"
    >reatom-v1 1.1.5</text>
    <polyline
      class="line-med"
      fill="none"
      stroke="hsl(191, 90%, 45%)" 
      points="100,271.2304584220303 330,303.32287558264613 560,340.75251016662463 790,340.0006242392085"
    ></polyline>
  </g><g>
    <text
      class="lib-label"
      x="95"
      y="299.7197078349327"
      fill="hsl(148, 90%, 45%)"
    >preact 1.2.2</text>
    <polyline
      class="line-med"
      fill="none"
      stroke="hsl(148, 90%, 45%)" 
      points="100,273.5561256699217 330,293.87745556594945 560,180.73496355834072 790,117.57629326386302"
    ></polyline>
  </g><g>
    <text
      class="lib-label"
      x="95"
      y="315.7197078349327"
      fill="hsl(296, 90%, 45%)"
    >usignal 0.8.9</text>
    <polyline
      class="line-med"
      fill="none"
      stroke="hsl(296, 90%, 45%)" 
      points="100,285.66491263921534 330,296.2979300984052 560,168.15272675897145 790,249.51127231793876"
    ></polyline>
  </g><g>
    <text
      class="lib-label"
      x="95"
      y="344.1465725649224"
      fill="hsl(254, 90%, 45%)"
    >solid 1.6.6</text>
    <polyline
      class="line-med"
      fill="none"
      stroke="hsl(254, 90%, 45%)" 
      points="100,341.1465725649224 330,383.28029260383477 560,278.4973816912335 790,240.3472020172631"
    ></polyline>
  </g><g>
    <text
      class="lib-label"
      x="95"
      y="369.28692548717345"
      fill="hsl(169, 90%, 45%)"
    >reatom 3.1.18</text>
    <polyline
      class="line-med"
      fill="none"
      stroke="hsl(169, 90%, 45%)" 
      points="100,366.28692548717345 330,394.63696711959335 560,344.07636337948577 790,369.31936351997496"
    ></polyline>
  </g><g>
    <text
      class="lib-label"
      x="95"
      y="385.28692548717345"
      fill="hsl(21, 90%, 45%)"
    >cellx 1.10.29</text>
    <polyline
      class="line-med"
      fill="none"
      stroke="hsl(21, 90%, 45%)" 
      points="100,376.18151033909726 330,390.1264394577073 560,370.7774582060039 790,312.0302921024162"
    ></polyline>
  </g><g>
    <text
      class="lib-label"
      x="95"
      y="401.28692548717345"
      fill="hsl(127, 90%, 45%)"
    >mol 1.0.412</text>
    <polyline
      class="line-med"
      fill="none"
      stroke="hsl(127, 90%, 45%)" 
      points="100,377.9332078948795 330,381.4571193855912 560,267.822895043289 790,180.9508505134436"
    ></polyline>
  </g><g>
    <text
      class="lib-label"
      x="95"
      y="417.28692548717345"
      fill="hsl(318, 90%, 45%)"
    >whatsup 2.4.0</text>
    <polyline
      class="line-med"
      fill="none"
      stroke="hsl(318, 90%, 45%)" 
      points="100,395.16754322104816 330,422.5943934774141 560,393.8906964084516 790,411.9221134564809"
    ></polyline>
  </g><g>
    <text
      class="lib-label"
      x="95"
      y="434.0299145091916"
      fill="hsl(106, 90%, 45%)"
    >mobx 6.7.0</text>
    <polyline
      class="line-med"
      fill="none"
      stroke="hsl(106, 90%, 45%)" 
      points="100,431.0299145091916 330,439.6602170312474 560,442.0271454961019 790,431.4531086863062"
    ></polyline>
  </g><g>
    <text
      class="lib-label"
      x="95"
      y="450.0299145091916"
      fill="hsl(212, 90%, 45%)"
    >reatom-v2 2.0.22</text>
    <polyline
      class="line-med"
      fill="none"
      stroke="hsl(212, 90%, 45%)" 
      points="100,434.296457882764 330,437.5867261414325 560,462.77104972883535 790,472.1059697980539"
    ></polyline>
  </g><g>
    <text
      class="lib-label"
      x="95"
      y="467.7162972047041"
      fill="hsl(339, 90%, 45%)"
    >wonka 6.1.2</text>
    <polyline
      class="line-med"
      fill="none"
      stroke="hsl(339, 90%, 45%)" 
      points="100,464.7162972047041 330,449.12814448505696 560,462.88523725431736 790,477.3284728422528"
    ></polyline>
  </g><g>
    <text
      class="lib-label"
      x="95"
      y="483.7162972047041"
      fill="hsl(42, 90%, 45%)"
    >effector 22.4.1</text>
    <polyline
      class="line-med"
      fill="none"
      stroke="hsl(42, 90%, 45%)" 
      points="100,473.06908609095353 330,358.54502950016695 560,409.9549280837807 790,442.29228986444605"
    ></polyline>
  </g><g>
    <text
      class="lib-label"
      x="95"
      y="499.7162972047041"
      fill="hsl(64, 90%, 45%)"
    >effector.fork 22.4.1</text>
    <polyline
      class="line-med"
      fill="none"
      stroke="hsl(64, 90%, 45%)" 
      points="100,483.253481380896 330,437.17586458951985 560,463.2832676672208 790,475.4865451065045"
    ></polyline>
  </g><!--CONTENT_END-->
</svg>