<svg id="bench-chart" viewBox="0 0 830 580" xmlns="http://www.w3.org/2000/svg">
  <style>
    #bench-chart .grid {
      stroke: #777777;
      stroke-width: 1;
    }

    #bench-chart .dashed {
      stroke: #777777;
      opacity: 0.3;
      stroke-width: 1;
      stroke-dasharray: 5, 5;
    }

    #bench-chart .labels {
      fill: #777777;
      font-size: 13px;
      font-family: sans-serif;
    }

    #bench-chart .x-labels {
      text-anchor: middle;
    }

    #bench-chart .y-labels {
      text-anchor: start;
    }

    #bench-chart .lib-label {
      font-size: 12px;
      font-family: sans-serif;
      text-anchor: end;
    }

    #bench-chart .line-med {
      stroke-width: 6;
      opacity: 0.6;
    }
  </style>

  <g class="grid">
    <line x1="100" y1="520" x2="830" y2="520"></line>
    <line x1="100" y1="520" x2="100" y2="0"></line>
  </g>

  <g class="dashed">
    <line x1="330" y1="520" x2="330" y2="0"></line>
    <line x1="560" y1="520" x2="560" y2="0"></line>
    <line x1="790" y1="520" x2="790" y2="0"></line>

    <line x1="100" y1="20" x2="790" y2="20"></line>
    <line x1="100" y1="145" x2="790" y2="145"></line>
    <line x1="100" y1="270" x2="790" y2="270"></line>
    <line x1="100" y1="395" x2="790" y2="395"></line>
  </g>

  <g class="labels x-labels">
    <text x="100" y="540">10</text>
    <text x="330" y="540">100</text>
    <text x="560" y="540">1000</text>
    <text x="790" y="540">10000</text>
    <text x="445" y="560">ITERATIONS</text>
  </g>

  <g class="labels y-labels">
    <text x="795" y="23">100%</text>
    <text x="795" y="148">75%</text>
    <text x="795" y="273">50%</text>
    <text x="795" y="398">25%</text>
  </g>

  <!--CONTENT_START--><g>
    <text
      class="lib-label"
      x="95"
      y="23"
      fill="hsl(0, 90%, 45%)"
    >@artalar/act 3.0.3</text>
    <polyline
      class="line-med"
      fill="none"
      stroke="hsl(0, 90%, 45%)" 
      points="100,20 330,20 560,108.11442385173245 790,93.3883184649049"
    ></polyline>
  </g><g>
    <text
      class="lib-label"
      x="95"
      y="52.20009438414345"
      fill="hsl(152, 90%, 45%)"
    >nanostores 0.7.1</text>
    <polyline
      class="line-med"
      fill="none"
      stroke="hsl(152, 90%, 45%)" 
      points="100,49.20009438414345 330,148.5207155869027 560,144.98165810711663 790,122.61837566635307"
    ></polyline>
  </g><g>
    <text
      class="lib-label"
      x="95"
      y="163.41990808878745"
      fill="hsl(95, 90%, 45%)"
    >frpts 1.0.0-beta.3</text>
    <polyline
      class="line-med"
      fill="none"
      stroke="hsl(95, 90%, 45%)" 
      points="100,160.41990808878745 330,222.56928082576013 560,158.91636055382878 790,258.68440045365503"
    ></polyline>
  </g><g>
    <text
      class="lib-label"
      x="95"
      y="192.07618310482087"
      fill="hsl(246, 90%, 45%)"
    >s-js 0.4.9</text>
    <polyline
      class="line-med"
      fill="none"
      stroke="hsl(246, 90%, 45%)" 
      points="100,189.07618310482087 330,264.3587270973963 560,145.03667840375587 790,20"
    ></polyline>
  </g><g>
    <text
      class="lib-label"
      x="95"
      y="227.11517548195752"
      fill="hsl(171, 90%, 45%)"
    >preact 1.2.3</text>
    <polyline
      class="line-med"
      fill="none"
      stroke="hsl(171, 90%, 45%)" 
      points="100,224.11517548195752 330,285.4120700843608 560,130.04729935916995 790,133.2305814130932"
    ></polyline>
  </g><g>
    <text
      class="lib-label"
      x="95"
      y="243.11517548195752"
      fill="hsl(284, 90%, 45%)"
    >spred 0.31.2</text>
    <polyline
      class="line-med"
      fill="none"
      stroke="hsl(284, 90%, 45%)" 
      points="100,236.92558700432718 330,265.78059071729956 560,20 790,80.51673313681289"
    ></polyline>
  </g><g>
    <text
      class="lib-label"
      x="95"
      y="267.4062513343866"
      fill="hsl(303, 90%, 45%)"
    >usignal 0.8.10</text>
    <polyline
      class="line-med"
      fill="none"
      stroke="hsl(303, 90%, 45%)" 
      points="100,264.4062513343866 330,266.4936886395512 560,130.04729935916995 790,241.14644075255802"
    ></polyline>
  </g><g>
    <text
      class="lib-label"
      x="95"
      y="312.87415091359065"
      fill="hsl(208, 90%, 45%)"
    >reatom-v1 1.1.5</text>
    <polyline
      class="line-med"
      fill="none"
      stroke="hsl(208, 90%, 45%)" 
      points="100,309.87415091359065 330,301.22850933898167 560,318.26742442181705 790,331.6593594411831"
    ></polyline>
  </g><g>
    <text
      class="lib-label"
      x="95"
      y="328.87415091359065"
      fill="hsl(265, 90%, 45%)"
    >solid 1.6.9</text>
    <polyline
      class="line-med"
      fill="none"
      stroke="hsl(265, 90%, 45%)" 
      points="100,318.2320125393963 330,378.4548027123712 560,258.82274794338565 790,265.5576749322357"
    ></polyline>
  </g><g>
    <text
      class="lib-label"
      x="95"
      y="344.87415091359065"
      fill="hsl(19, 90%, 45%)"
    >@webreflection/signal 1.0.1</text>
    <polyline
      class="line-med"
      fill="none"
      stroke="hsl(19, 90%, 45%)" 
      points="100,330.2442581115567 330,382.0994590095714 560,400.6282111163008 790,441.82294879703886"
    ></polyline>
  </g><g>
    <text
      class="lib-label"
      x="95"
      y="360.87415091359065"
      fill="hsl(133, 90%, 45%)"
    >mol 1.0.460</text>
    <polyline
      class="line-med"
      fill="none"
      stroke="hsl(133, 90%, 45%)" 
      points="100,337.3266193636988 330,374.14297766203276 560,255.32000828500415 790,194.06121399176953"
    ></polyline>
  </g><g>
    <text
      class="lib-label"
      x="95"
      y="376.87415091359065"
      fill="hsl(38, 90%, 45%)"
    >cellx 1.10.30</text>
    <polyline
      class="line-med"
      fill="none"
      stroke="hsl(38, 90%, 45%)" 
      points="100,342.9958304994529 330,385.1622528907124 560,350.92418629267 790,319.97632388919584"
    ></polyline>
  </g><g>
    <text
      class="lib-label"
      x="95"
      y="392.87415091359065"
      fill="hsl(189, 90%, 45%)"
    >reatom 3.1.19</text>
    <polyline
      class="line-med"
      fill="none"
      stroke="hsl(189, 90%, 45%)" 
      points="100,354.53809155241044 330,388.85759514543895 560,350.9465537769546 790,364.89933296615874"
    ></polyline>
  </g><g>
    <text
      class="lib-label"
      x="95"
      y="408.87415091359065"
      fill="hsl(322, 90%, 45%)"
    >whatsup 2.5.0</text>
    <polyline
      class="line-med"
      fill="none"
      stroke="hsl(322, 90%, 45%)" 
      points="100,399.5053999375962 330,423.99565427329793 560,384.5924395348221 790,413.36054192788316"
    ></polyline>
  </g><g>
    <text
      class="lib-label"
      x="95"
      y="427.12522223823936"
      fill="hsl(114, 90%, 45%)"
    >mobx 6.7.0</text>
    <polyline
      class="line-med"
      fill="none"
      stroke="hsl(114, 90%, 45%)" 
      points="100,424.12522223823936 330,435.25477910619526 560,428.6008046490836 790,433.675068119891"
    ></polyline>
  </g><g>
    <text
      class="lib-label"
      x="95"
      y="443.12522223823936"
      fill="hsl(227, 90%, 45%)"
    >reatom-v2 2.0.22</text>
    <polyline
      class="line-med"
      fill="none"
      stroke="hsl(227, 90%, 45%)" 
      points="100,426.48142361653595 330,437.7065871981126 560,456.27829859379676 790,473.1416105087033"
    ></polyline>
  </g><g>
    <text
      class="lib-label"
      x="95"
      y="459.12522223823936"
      fill="hsl(341, 90%, 45%)"
    >wonka 6.1.2</text>
    <polyline
      class="line-med"
      fill="none"
      stroke="hsl(341, 90%, 45%)" 
      points="100,451.0159041143252 330,439.31294766958183 560,459.6944313355356 790,477.2827479269197"
    ></polyline>
  </g><g>
    <text
      class="lib-label"
      x="95"
      y="475.12522223823936"
      fill="hsl(57, 90%, 45%)"
    >effector 22.5.0</text>
    <polyline
      class="line-med"
      fill="none"
      stroke="hsl(57, 90%, 45%)" 
      points="100,458.3979293594599 330,365.2121448034254 560,399.39170854864204 790,442.13278441734"
    ></polyline>
  </g><g>
    <text
      class="lib-label"
      x="95"
      y="491.12522223823936"
      fill="hsl(76, 90%, 45%)"
    >effector.fork 22.5.0</text>
    <polyline
      class="line-med"
      fill="none"
      stroke="hsl(76, 90%, 45%)" 
      points="100,487.3880176197053 330,440.9945958833347 560,457.90242243117814 790,475.5479554164146"
    ></polyline>
  </g><!--CONTENT_END-->
</svg>