<svg id="bench-chart" viewBox="0 0 830 580" xmlns="http://www.w3.org/2000/svg">
  <style>
    #bench-chart .grid {
      stroke: #777777;
      stroke-width: 1;
    }

    #bench-chart .dashed {
      stroke: #777777;
      opacity: 0.3;
      stroke-width: 1;
      stroke-dasharray: 5, 5;
    }

    #bench-chart .labels {
      fill: #777777;
      font-size: 13px;
      font-family: sans-serif;
    }

    #bench-chart .x-labels {
      text-anchor: middle;
    }

    #bench-chart .y-labels {
      text-anchor: start;
    }

    #bench-chart .lib-label {
      font-size: 12px;
      font-family: sans-serif;
      text-anchor: end;
    }

    #bench-chart .line-med {
      stroke-width: 6;
      opacity: 0.6;
    }
  </style>

  <g class="grid">
    <line x1="100" y1="520" x2="830" y2="520"></line>
    <line x1="100" y1="520" x2="100" y2="0"></line>
  </g>

  <g class="dashed">
    <line x1="330" y1="520" x2="330" y2="0"></line>
    <line x1="560" y1="520" x2="560" y2="0"></line>
    <line x1="790" y1="520" x2="790" y2="0"></line>

    <line x1="100" y1="20" x2="790" y2="20"></line>
    <line x1="100" y1="145" x2="790" y2="145"></line>
    <line x1="100" y1="270" x2="790" y2="270"></line>
    <line x1="100" y1="395" x2="790" y2="395"></line>
  </g>

  <g class="labels x-labels">
    <text x="100" y="540">10</text>
    <text x="330" y="540">100</text>
    <text x="560" y="540">1000</text>
    <text x="790" y="540">10000</text>
    <text x="445" y="560">ITERATIONS</text>
  </g>

  <g class="labels y-labels">
    <text x="795" y="23">100%</text>
    <text x="795" y="148">75%</text>
    <text x="795" y="273">50%</text>
    <text x="795" y="398">25%</text>
  </g>

  <!--CONTENT_START--><g>
    <text
      class="lib-label"
      x="95"
      y="23"
      fill="hsl(162, 90%, 45%)"
    >nanostores 0.7.3</text>
    <polyline
      class="line-med"
      fill="none"
      stroke="hsl(162, 90%, 45%)" 
      points="100,20 330,138.3885205307525 560,180.44811907585 790,20"
    ></polyline>
  </g><g>
    <text
      class="lib-label"
      x="95"
      y="39"
      fill="hsl(0, 90%, 45%)"
    >@artalar/act 3.1.0</text>
    <polyline
      class="line-med"
      fill="none"
      stroke="hsl(0, 90%, 45%)" 
      points="100,28.76632934553856 330,20 560,164.06819175287777 790,79.61540665852831"
    ></polyline>
  </g><g>
    <text
      class="lib-label"
      x="95"
      y="106.3773852845644"
      fill="hsl(252, 90%, 45%)"
    >s-js 0.4.9</text>
    <polyline
      class="line-med"
      fill="none"
      stroke="hsl(252, 90%, 45%)" 
      points="100,103.3773852845644 330,205.0700812113338 560,155.0272772820133 790,38.90742491500696"
    ></polyline>
  </g><g>
    <text
      class="lib-label"
      x="95"
      y="151.28705476997808"
      fill="hsl(108, 90%, 45%)"
    >frpts 1.0.0-beta.3</text>
    <polyline
      class="line-med"
      fill="none"
      stroke="hsl(108, 90%, 45%)" 
      points="100,148.28705476997808 330,197.9511196990468 560,127.19458240826401 790,173.03041078663455"
    ></polyline>
  </g><g>
    <text
      class="lib-label"
      x="95"
      y="182.43120381795805"
      fill="hsl(288, 90%, 45%)"
    >spred 0.31.2</text>
    <polyline
      class="line-med"
      fill="none"
      stroke="hsl(288, 90%, 45%)" 
      points="100,179.43120381795805 330,198.06670299313922 560,20 790,83.80961706850135"
    ></polyline>
  </g><g>
    <text
      class="lib-label"
      x="95"
      y="198.43120381795805"
      fill="hsl(180, 90%, 45%)"
    >preact 1.2.3</text>
    <polyline
      class="line-med"
      fill="none"
      stroke="hsl(180, 90%, 45%)" 
      points="100,190.10091493618756 330,219.11157512460304 560,180.00402709100203 790,174.60020250308193"
    ></polyline>
  </g><g>
    <text
      class="lib-label"
      x="95"
      y="214.43120381795805"
      fill="hsl(306, 90%, 45%)"
    >usignal 0.8.10</text>
    <polyline
      class="line-med"
      fill="none"
      stroke="hsl(306, 90%, 45%)" 
      points="100,205.7600516422313 330,251.91454087025798 560,140.04221476645776 790,202.82558624304988"
    ></polyline>
  </g><g>
    <text
      class="lib-label"
      x="95"
      y="245.9872382496818"
      fill="hsl(18, 90%, 45%)"
    >@krulod/wire 1.0.13</text>
    <polyline
      class="line-med"
      fill="none"
      stroke="hsl(18, 90%, 45%)" 
      points="100,242.9872382496818 330,312.1808143868723 560,122.04141478429169 790,38.90742491500696"
    ></polyline>
  </g><g>
    <text
      class="lib-label"
      x="95"
      y="267.91532896829517"
      fill="hsl(216, 90%, 45%)"
    >reatom-v1 1.1.5</text>
    <polyline
      class="line-med"
      fill="none"
      stroke="hsl(216, 90%, 45%)" 
      points="100,264.91532896829517 330,298.8195474019816 560,310.0002321142369 790,309.3285362662249"
    ></polyline>
  </g><g>
    <text
      class="lib-label"
      x="95"
      y="285.5245481809678"
      fill="hsl(36, 90%, 45%)"
    >@webreflection/signal 1.0.1</text>
    <polyline
      class="line-med"
      fill="none"
      stroke="hsl(36, 90%, 45%)" 
      points="100,282.5245481809678 330,371.5464452376176 560,386.8294164178445 790,413.0406483015562"
    ></polyline>
  </g><g>
    <text
      class="lib-label"
      x="95"
      y="315.8411602519734"
      fill="hsl(144, 90%, 45%)"
    >mol 1.0.464</text>
    <polyline
      class="line-med"
      fill="none"
      stroke="hsl(144, 90%, 45%)" 
      points="100,312.8411602519734 330,341.52509796943883 560,217.84201138491758 790,170.3817427763483"
    ></polyline>
  </g><g>
    <text
      class="lib-label"
      x="95"
      y="331.8411602519734"
      fill="hsl(270, 90%, 45%)"
    >solid 1.6.10</text>
    <polyline
      class="line-med"
      fill="none"
      stroke="hsl(270, 90%, 45%)" 
      points="100,316.47161008709514 330,348.5481913804396 560,258.88113702087867 790,254.95374861702888"
    ></polyline>
  </g><g>
    <text
      class="lib-label"
      x="95"
      y="347.8411602519734"
      fill="hsl(198, 90%, 45%)"
    >reatom 3.1.19</text>
    <polyline
      class="line-med"
      fill="none"
      stroke="hsl(198, 90%, 45%)" 
      points="100,318.3808535213231 330,382.12957677230685 560,333.52478883023593 790,338.09522231303566"
    ></polyline>
  </g><g>
    <text
      class="lib-label"
      x="95"
      y="363.8411602519734"
      fill="hsl(54, 90%, 45%)"
    >cellx 1.10.30</text>
    <polyline
      class="line-med"
      fill="none"
      stroke="hsl(54, 90%, 45%)" 
      points="100,327.4610124542362 330,377.1462367631538 560,368.3335227022258 790,286.56481928735695"
    ></polyline>
  </g><g>
    <text
      class="lib-label"
      x="95"
      y="379.8411602519734"
      fill="hsl(324, 90%, 45%)"
    >whatsup 2.5.0</text>
    <polyline
      class="line-med"
      fill="none"
      stroke="hsl(324, 90%, 45%)" 
      points="100,366.2970002217365 330,418.5130936117759 560,393.7281761672762 790,399.60044985527776"
    ></polyline>
  </g><g>
    <text
      class="lib-label"
      x="95"
      y="406.284967097843"
      fill="hsl(126, 90%, 45%)"
    >mobx 6.7.0</text>
    <polyline
      class="line-med"
      fill="none"
      stroke="hsl(126, 90%, 45%)" 
      points="100,403.284967097843 330,425.8283226984127 560,422.1155483937839 790,417.5414972961837"
    ></polyline>
  </g><g>
    <text
      class="lib-label"
      x="95"
      y="427.16563097890673"
      fill="hsl(234, 90%, 45%)"
    >reatom-v2 2.0.22</text>
    <polyline
      class="line-med"
      fill="none"
      stroke="hsl(234, 90%, 45%)" 
      points="100,424.16563097890673 330,444.10365441957833 560,461.9273088916448 790,463.3378877461224"
    ></polyline>
  </g><g>
    <text
      class="lib-label"
      x="95"
      y="443.16563097890673"
      fill="hsl(342, 90%, 45%)"
    >wonka 6.1.2</text>
    <polyline
      class="line-med"
      fill="none"
      stroke="hsl(342, 90%, 45%)" 
      points="100,438.9984381090619 330,442.69163088067205 560,447.28733275262 790,457.3478393144431"
    ></polyline>
  </g><g>
    <text
      class="lib-label"
      x="95"
      y="459.16563097890673"
      fill="hsl(72, 90%, 45%)"
    >effector 22.5.0</text>
    <polyline
      class="line-med"
      fill="none"
      stroke="hsl(72, 90%, 45%)" 
      points="100,441.2981403521072 330,372.4008855911333 560,396.9689586814155 790,413.3892404327857"
    ></polyline>
  </g><g>
    <text
      class="lib-label"
      x="95"
      y="475.16563097890673"
      fill="hsl(90, 90%, 45%)"
    >effector.fork 22.5.0</text>
    <polyline
      class="line-med"
      fill="none"
      stroke="hsl(90, 90%, 45%)" 
      points="100,461.3501704050142 330,437.58033200032486 560,453.45527889781164 790,457.2946602274508"
    ></polyline>
  </g><!--CONTENT_END-->
</svg>