<svg id="bench-chart" viewBox="0 0 830 580" xmlns="http://www.w3.org/2000/svg">
  <style>
    #bench-chart .grid {
      stroke: #777777;
      stroke-width: 1;
    }

    #bench-chart .dashed {
      stroke: #777777;
      opacity: 0.3;
      stroke-width: 1;
      stroke-dasharray: 5, 5;
    }

    #bench-chart .labels {
      fill: #777777;
      font-size: 13px;
      font-family: sans-serif;
    }

    #bench-chart .x-labels {
      text-anchor: middle;
    }

    #bench-chart .y-labels {
      text-anchor: start;
    }

    #bench-chart .lib-label {
      font-size: 12px;
      font-family: sans-serif;
      text-anchor: end;
    }

    #bench-chart .line-med {
      stroke-width: 6;
      opacity: 0.6;
    }
  </style>

  <g class="grid">
    <line x1="100" y1="520" x2="830" y2="520"></line>
    <line x1="100" y1="520" x2="100" y2="0"></line>
  </g>

  <g class="dashed">
    <line x1="330" y1="520" x2="330" y2="0"></line>
    <line x1="560" y1="520" x2="560" y2="0"></line>
    <line x1="790" y1="520" x2="790" y2="0"></line>

    <line x1="100" y1="20" x2="790" y2="20"></line>
    <line x1="100" y1="145" x2="790" y2="145"></line>
    <line x1="100" y1="270" x2="790" y2="270"></line>
    <line x1="100" y1="395" x2="790" y2="395"></line>
  </g>

  <g class="labels x-labels">
    <text x="100" y="540">10</text>
    <text x="330" y="540">100</text>
    <text x="560" y="540">1000</text>
    <text x="790" y="540">10000</text>
    <text x="445" y="560">ITERATIONS</text>
  </g>

  <g class="labels y-labels">
    <text x="795" y="23">100%</text>
    <text x="795" y="148">75%</text>
    <text x="795" y="273">50%</text>
    <text x="795" y="398">25%</text>
  </g>

  <!--CONTENT_START--><g>
    <text
      class="lib-label"
      x="95"
      y="23"
      fill="hsl(68, 90%, 45%)"
    >frpts 1.0.0-beta.3</text>
    <polyline
      class="line-med"
      fill="none"
      stroke="hsl(68, 90%, 45%)" 
      points="100,20 330,20 560,206.9448798328109 790,270.9961679866452"
    ></polyline>
  </g><g>
    <text
      class="lib-label"
      x="95"
      y="64.39013217855347"
      fill="hsl(225, 90%, 45%)"
    >s-js 0.4.9</text>
    <polyline
      class="line-med"
      fill="none"
      stroke="hsl(225, 90%, 45%)" 
      points="100,61.39013217855347 330,107.65535753557269 560,209.69710607760692 790,20"
    ></polyline>
  </g><g>
    <text
      class="lib-label"
      x="95"
      y="92.84734065372872"
      fill="hsl(270, 90%, 45%)"
    >spred 0.31.1</text>
    <polyline
      class="line-med"
      fill="none"
      stroke="hsl(270, 90%, 45%)" 
      points="100,89.84734065372872 330,115.79570352834516 560,20 790,116.15389024018411"
    ></polyline>
  </g><g>
    <text
      class="lib-label"
      x="95"
      y="108.84734065372872"
      fill="hsl(293, 90%, 45%)"
    >usignal 0.8.9</text>
    <polyline
      class="line-med"
      fill="none"
      stroke="hsl(293, 90%, 45%)" 
      points="100,89.86985264556833 330,124.66829038557412 560,146.911751352333 790,273.9145716077787"
    ></polyline>
  </g><g>
    <text
      class="lib-label"
      x="95"
      y="133.47655567811023"
      fill="hsl(135, 90%, 45%)"
    >preact 1.2.2</text>
    <polyline
      class="line-med"
      fill="none"
      stroke="hsl(135, 90%, 45%)" 
      points="100,130.47655567811023 330,125.76288206002916 560,192.73853316146148 790,128.6765770848976"
    ></polyline>
  </g><g>
    <text
      class="lib-label"
      x="95"
      y="246.26076619955143"
      fill="hsl(113, 90%, 45%)"
    >mol 1.0.412</text>
    <polyline
      class="line-med"
      fill="none"
      stroke="hsl(113, 90%, 45%)" 
      points="100,243.26076619955143 330,283.6014583006838 560,266.44976524875574 790,193.54833568683264"
    ></polyline>
  </g><g>
    <text
      class="lib-label"
      x="95"
      y="262.2607661995514"
      fill="hsl(180, 90%, 45%)"
    >reatom-v1 1.1.5</text>
    <polyline
      class="line-med"
      fill="none"
      stroke="hsl(180, 90%, 45%)" 
      points="100,243.64862214301834 330,163.91675726044417 560,331.5101043436741 790,352.0002555847168"
    ></polyline>
  </g><g>
    <text
      class="lib-label"
      x="95"
      y="278.2607661995514"
      fill="hsl(248, 90%, 45%)"
    >solid 1.6.6</text>
    <polyline
      class="line-med"
      fill="none"
      stroke="hsl(248, 90%, 45%)" 
      points="100,246.7687915369202 330,283.6014583006838 560,289.2302401953199 790,263.9028822474145"
    ></polyline>
  </g><g>
    <text
      class="lib-label"
      x="95"
      y="294.2607661995514"
      fill="hsl(158, 90%, 45%)"
    >reatom 3.1.18</text>
    <polyline
      class="line-med"
      fill="none"
      stroke="hsl(158, 90%, 45%)" 
      points="100,260.9958206264238 330,311.4257302426934 560,367.78501325748556 790,367.82633108390604"
    ></polyline>
  </g><g>
    <text
      class="lib-label"
      x="95"
      y="310.2607661995514"
      fill="hsl(0, 90%, 45%)"
    >cellx 1.10.29</text>
    <polyline
      class="line-med"
      fill="none"
      stroke="hsl(0, 90%, 45%)" 
      points="100,282.5510351931075 330,296.14313904567643 560,379.91758998722526 790,333.60531333391174"
    ></polyline>
  </g><g>
    <text
      class="lib-label"
      x="95"
      y="329.97306901365494"
      fill="hsl(315, 90%, 45%)"
    >whatsup 2.4.0</text>
    <polyline
      class="line-med"
      fill="none"
      stroke="hsl(315, 90%, 45%)" 
      points="100,326.97306901365494 330,353.52840041123824 560,394.99984477969275 790,424.25313061100144"
    ></polyline>
  </g><g>
    <text
      class="lib-label"
      x="95"
      y="375.027417596222"
      fill="hsl(90, 90%, 45%)"
    >mobx 6.7.0</text>
    <polyline
      class="line-med"
      fill="none"
      stroke="hsl(90, 90%, 45%)" 
      points="100,372.027417596222 330,384.11377036633155 560,441.74035743495176 790,436.7777647599053"
    ></polyline>
  </g><g>
    <text
      class="lib-label"
      x="95"
      y="396.3746717596206"
      fill="hsl(203, 90%, 45%)"
    >reatom-v2 2.0.22</text>
    <polyline
      class="line-med"
      fill="none"
      stroke="hsl(203, 90%, 45%)" 
      points="100,393.3746717596206 330,382.68443362100766 560,463.7484807420964 790,478.08390001363415"
    ></polyline>
  </g><g>
    <text
      class="lib-label"
      x="95"
      y="425.3190450319465"
      fill="hsl(338, 90%, 45%)"
    >wonka 6.1.2</text>
    <polyline
      class="line-med"
      fill="none"
      stroke="hsl(338, 90%, 45%)" 
      points="100,422.3190450319465 330,403.3367254668787 560,465.98671821699054 790,485.2030325976694"
    ></polyline>
  </g><g>
    <text
      class="lib-label"
      x="95"
      y="441.3190450319465"
      fill="hsl(23, 90%, 45%)"
    >effector 22.4.1</text>
    <polyline
      class="line-med"
      fill="none"
      stroke="hsl(23, 90%, 45%)" 
      points="100,427.6228387992217 330,254.2670287095599 560,419.2982836986637 790,455.252415990285"
    ></polyline>
  </g><g>
    <text
      class="lib-label"
      x="95"
      y="462.8478789774025"
      fill="hsl(45, 90%, 45%)"
    >effector.fork 22.4.1</text>
    <polyline
      class="line-med"
      fill="none"
      stroke="hsl(45, 90%, 45%)" 
      points="100,459.8478789774025 330,380.5449695453084 560,463.9691100521187 790,483.7306248872762"
    ></polyline>
  </g><!--CONTENT_END-->
</svg>