<svg id="bench-chart" viewBox="0 0 830 580" xmlns="http://www.w3.org/2000/svg">
  <style>
    #bench-chart .grid {
      stroke: #777777;
      stroke-width: 1;
    }

    #bench-chart .dashed {
      stroke: #777777;
      opacity: 0.3;
      stroke-width: 1;
      stroke-dasharray: 5, 5;
    }

    #bench-chart .labels {
      fill: #777777;
      font-size: 13px;
      font-family: sans-serif;
    }

    #bench-chart .x-labels {
      text-anchor: middle;
    }

    #bench-chart .y-labels {
      text-anchor: start;
    }

    #bench-chart .lib-label {
      font-size: 12px;
      font-family: sans-serif;
      text-anchor: end;
    }

    #bench-chart .line-med {
      stroke-width: 6;
      opacity: 0.6;
    }
  </style>

  <g class="grid">
    <line x1="100" y1="520" x2="830" y2="520"></line>
    <line x1="100" y1="520" x2="100" y2="0"></line>
  </g>

  <g class="dashed">
    <line x1="330" y1="520" x2="330" y2="0"></line>
    <line x1="560" y1="520" x2="560" y2="0"></line>
    <line x1="790" y1="520" x2="790" y2="0"></line>

    <line x1="100" y1="20" x2="790" y2="20"></line>
    <line x1="100" y1="145" x2="790" y2="145"></line>
    <line x1="100" y1="270" x2="790" y2="270"></line>
    <line x1="100" y1="395" x2="790" y2="395"></line>
  </g>

  <g class="labels x-labels">
    <text x="100" y="540">10</text>
    <text x="330" y="540">100</text>
    <text x="560" y="540">1000</text>
    <text x="790" y="540">10000</text>
    <text x="445" y="560">ITERATIONS</text>
  </g>

  <g class="labels y-labels">
    <text x="795" y="23">100%</text>
    <text x="795" y="148">75%</text>
    <text x="795" y="273">50%</text>
    <text x="795" y="398">25%</text>
  </g>

  <!--CONTENT_START--><g>
    <text
      class="lib-label"
      x="95"
      y="23"
      fill="hsl(0, 90%, 45%)"
    >@artalar/act 1.0.2</text>
    <polyline
      class="line-med"
      fill="none"
      stroke="hsl(0, 90%, 45%)" 
      points="100,20 330,20 560,28.60835676582311 790,76.41960494738785"
    ></polyline>
  </g><g>
    <text
      class="lib-label"
      x="95"
      y="244.19919545013178"
      fill="hsl(100, 90%, 45%)"
    >frpts 1.0.0-beta.3</text>
    <polyline
      class="line-med"
      fill="none"
      stroke="hsl(100, 90%, 45%)" 
      points="100,241.19919545013178 330,247.7522095059667 560,196.19140498017032 790,251.73216478731717"
    ></polyline>
  </g><g>
    <text
      class="lib-label"
      x="95"
      y="294.12069579080725"
      fill="hsl(280, 90%, 45%)"
    >spred 0.31.1</text>
    <polyline
      class="line-med"
      fill="none"
      stroke="hsl(280, 90%, 45%)" 
      points="100,291.12069579080725 330,309.8451623044879 560,20 790,109.54156257339912"
    ></polyline>
  </g><g>
    <text
      class="lib-label"
      x="95"
      y="310.12069579080725"
      fill="hsl(240, 90%, 45%)"
    >s-js 0.4.9</text>
    <polyline
      class="line-med"
      fill="none"
      stroke="hsl(240, 90%, 45%)" 
      points="100,298.3063092874476 330,304.5030465198749 560,140.01220721751736 790,20"
    ></polyline>
  </g><g>
    <text
      class="lib-label"
      x="95"
      y="341.8832693152506"
      fill="hsl(300, 90%, 45%)"
    >usignal 0.8.9</text>
    <polyline
      class="line-med"
      fill="none"
      stroke="hsl(300, 90%, 45%)" 
      points="100,338.8832693152506 330,302.68149159595566 560,140.01220721751736 790,275.5631850665039"
    ></polyline>
  </g><g>
    <text
      class="lib-label"
      x="95"
      y="357.8832693152506"
      fill="hsl(160, 90%, 45%)"
    >preact 1.2.3</text>
    <polyline
      class="line-med"
      fill="none"
      stroke="hsl(160, 90%, 45%)" 
      points="100,342.7252180240571 330,319.73635723594526 560,176.65931338756377 790,153.34477759975587"
    ></polyline>
  </g><g>
    <text
      class="lib-label"
      x="95"
      y="373.8832693152506"
      fill="hsl(200, 90%, 45%)"
    >reatom-v1 1.1.5</text>
    <polyline
      class="line-med"
      fill="none"
      stroke="hsl(200, 90%, 45%)" 
      points="100,348.66793823990116 330,323.34500308905297 560,322.09409520782003 790,354.0956951013222"
    ></polyline>
  </g><g>
    <text
      class="lib-label"
      x="95"
      y="389.8832693152506"
      fill="hsl(20, 90%, 45%)"
    >@webreflection/signal 0.3.0</text>
    <polyline
      class="line-med"
      fill="none"
      stroke="hsl(20, 90%, 45%)" 
      points="100,371.11899184251706 330,385.7919569538418 560,380.3023673286211 790,404.21832461994364"
    ></polyline>
  </g><g>
    <text
      class="lib-label"
      x="95"
      y="405.8832693152506"
      fill="hsl(180, 90%, 45%)"
    >reatom 3.1.18</text>
    <polyline
      class="line-med"
      fill="none"
      stroke="hsl(180, 90%, 45%)" 
      points="100,397.9749256268593 330,409.4530119485674 560,359.8913427845822 790,380.763436187165"
    ></polyline>
  </g><g>
    <text
      class="lib-label"
      x="95"
      y="421.8832693152506"
      fill="hsl(260, 90%, 45%)"
    >solid 1.6.8</text>
    <polyline
      class="line-med"
      fill="none"
      stroke="hsl(260, 90%, 45%)" 
      points="100,398.1413890320429 330,395.4077277217573 560,243.33629596711475 790,275.5631850665039"
    ></polyline>
  </g><g>
    <text
      class="lib-label"
      x="95"
      y="437.8832693152506"
      fill="hsl(140, 90%, 45%)"
    >mol 1.0.430</text>
    <polyline
      class="line-med"
      fill="none"
      stroke="hsl(140, 90%, 45%)" 
      points="100,400.5157167273538 330,393.5600658255622 560,230.69675583050156 790,196.52206105071855"
    ></polyline>
  </g><g>
    <text
      class="lib-label"
      x="95"
      y="453.8832693152506"
      fill="hsl(40, 90%, 45%)"
    >cellx 1.10.30</text>
    <polyline
      class="line-med"
      fill="none"
      stroke="hsl(40, 90%, 45%)" 
      points="100,405.27865179762694 330,401.3984847678359 560,358.0693825795754 790,320.7359800974396"
    ></polyline>
  </g><g>
    <text
      class="lib-label"
      x="95"
      y="469.8832693152506"
      fill="hsl(320, 90%, 45%)"
    >whatsup 2.4.0</text>
    <polyline
      class="line-med"
      fill="none"
      stroke="hsl(320, 90%, 45%)" 
      points="100,431.5332981205159 330,431.14936264671087 560,388.6750164798945 790,415.83739731668726"
    ></polyline>
  </g><g>
    <text
      class="lib-label"
      x="95"
      y="485.8832693152506"
      fill="hsl(120, 90%, 45%)"
    >mobx 6.7.0</text>
    <polyline
      class="line-med"
      fill="none"
      stroke="hsl(120, 90%, 45%)" 
      points="100,445.2007331528363 330,447.96797379282106 560,431.49003474289367 790,432.49425292588666"
    ></polyline>
  </g><g>
    <text
      class="lib-label"
      x="95"
      y="501.8832693152506"
      fill="hsl(220, 90%, 45%)"
    >reatom-v2 2.0.22</text>
    <polyline
      class="line-med"
      fill="none"
      stroke="hsl(220, 90%, 45%)" 
      points="100,455.4352967631316 330,446.72593339618095 560,463.7898538457198 790,473.52969332450164"
    ></polyline>
  </g><g>
    <text
      class="lib-label"
      x="95"
      y="517.8832693152506"
      fill="hsl(340, 90%, 45%)"
    >wonka 6.1.2</text>
    <polyline
      class="line-med"
      fill="none"
      stroke="hsl(340, 90%, 45%)" 
      points="100,471.9811974388379 330,458.55593344976563 560,466.4306841771267 790,480.93950021742046"
    ></polyline>
  </g><g>
    <text
      class="lib-label"
      x="95"
      y="533.8832693152506"
      fill="hsl(60, 90%, 45%)"
    >effector 22.4.1</text>
    <polyline
      class="line-med"
      fill="none"
      stroke="hsl(60, 90%, 45%)" 
      points="100,479.2900636765283 330,371.17278384486076 560,413.2631827095143 790,445.47780577631323"
    ></polyline>
  </g><g>
    <text
      class="lib-label"
      x="95"
      y="549.8832693152506"
      fill="hsl(80, 90%, 45%)"
    >effector.fork 22.4.1</text>
    <polyline
      class="line-med"
      fill="none"
      stroke="hsl(80, 90%, 45%)" 
      points="100,491.8986049795693 330,446.16055894617654 560,465.08880828215786 790,478.2560619155783"
    ></polyline>
  </g><!--CONTENT_END-->
</svg>