<svg id="bench-chart" viewBox="0 0 830 580" xmlns="http://www.w3.org/2000/svg">
  <style>
    #bench-chart .grid {
      stroke: #777777;
      stroke-width: 1;
    }

    #bench-chart .dashed {
      stroke: #777777;
      opacity: 0.3;
      stroke-width: 1;
      stroke-dasharray: 5, 5;
    }

    #bench-chart .labels {
      fill: #777777;
      font-size: 13px;
      font-family: sans-serif;
    }

    #bench-chart .x-labels {
      text-anchor: middle;
    }

    #bench-chart .y-labels {
      text-anchor: start;
    }

    #bench-chart .lib-label {
      font-size: 12px;
      font-family: sans-serif;
      text-anchor: end;
    }

    #bench-chart .line-med {
      stroke-width: 6;
      opacity: 0.6;
    }
  </style>

  <g class="grid">
    <line x1="100" y1="520" x2="830" y2="520"></line>
    <line x1="100" y1="520" x2="100" y2="0"></line>
  </g>

  <g class="dashed">
    <line x1="330" y1="520" x2="330" y2="0"></line>
    <line x1="560" y1="520" x2="560" y2="0"></line>
    <line x1="790" y1="520" x2="790" y2="0"></line>

    <line x1="100" y1="20" x2="790" y2="20"></line>
    <line x1="100" y1="145" x2="790" y2="145"></line>
    <line x1="100" y1="270" x2="790" y2="270"></line>
    <line x1="100" y1="395" x2="790" y2="395"></line>
  </g>

  <g class="labels x-labels">
    <text x="100" y="540">10</text>
    <text x="330" y="540">100</text>
    <text x="560" y="540">1000</text>
    <text x="790" y="540">10000</text>
    <text x="445" y="560">ITERATIONS</text>
  </g>

  <g class="labels y-labels">
    <text x="795" y="23">100%</text>
    <text x="795" y="148">75%</text>
    <text x="795" y="273">50%</text>
    <text x="795" y="398">25%</text>
  </g>

  <!--CONTENT_START--><g>
    <text
      class="lib-label"
      x="95"
      y="23"
      fill="hsl(169, 90%, 45%)"
    >nanostores 0.7.3</text>
    <polyline
      class="line-med"
      fill="none"
      stroke="hsl(169, 90%, 45%)" 
      points="100,20 330,168.322342901474 560,177.2000653808434 790,143.3248822890257"
    ></polyline>
  </g><g>
    <text
      class="lib-label"
      x="95"
      y="42.170544677612924"
      fill="hsl(0, 90%, 45%)"
    >@artalar/act 3.2.0</text>
    <polyline
      class="line-med"
      fill="none"
      stroke="hsl(0, 90%, 45%)" 
      points="100,39.170544677612924 330,20 560,156.33604993930987 790,100.91553836234688"
    ></polyline>
  </g><g>
    <text
      class="lib-label"
      x="95"
      y="66.66545373739616"
      fill="hsl(106, 90%, 45%)"
    >frpts 1.0.0-beta.3</text>
    <polyline
      class="line-med"
      fill="none"
      stroke="hsl(106, 90%, 45%)" 
      points="100,63.66545373739616 330,207.96248494235073 560,150.7008276104948 790,269.96393710631344"
    ></polyline>
  </g><g>
    <text
      class="lib-label"
      x="95"
      y="139.317903685366"
      fill="hsl(275, 90%, 45%)"
    >spred 0.32.2</text>
    <polyline
      class="line-med"
      fill="none"
      stroke="hsl(275, 90%, 45%)" 
      points="100,136.317903685366 330,261.41680630325504 560,20 790,145.71078960627653"
    ></polyline>
  </g><g>
    <text
      class="lib-label"
      x="95"
      y="155.317903685366"
      fill="hsl(296, 90%, 45%)"
    >usignal 0.8.10</text>
    <polyline
      class="line-med"
      fill="none"
      stroke="hsl(296, 90%, 45%)" 
      points="100,150.62931402747486 330,270 560,126.59350966047649 790,254.3143265890047"
    ></polyline>
  </g><g>
    <text
      class="lib-label"
      x="95"
      y="171.317903685366"
      fill="hsl(233, 90%, 45%)"
    >s-js 0.4.9</text>
    <polyline
      class="line-med"
      fill="none"
      stroke="hsl(233, 90%, 45%)" 
      points="100,154.23132583769342 330,243.3157854581521 560,186.6269273565411 790,20"
    ></polyline>
  </g><g>
    <text
      class="lib-label"
      x="95"
      y="232.85146853640873"
      fill="hsl(191, 90%, 45%)"
    >preact 1.2.3</text>
    <polyline
      class="line-med"
      fill="none"
      stroke="hsl(191, 90%, 45%)" 
      points="100,229.85146853640873 330,272.2374803579969 560,150.73333920239455 790,150.3667898777367"
    ></polyline>
  </g><g>
    <text
      class="lib-label"
      x="95"
      y="293.16648013430336"
      fill="hsl(254, 90%, 45%)"
    >solid 1.6.10</text>
    <polyline
      class="line-med"
      fill="none"
      stroke="hsl(254, 90%, 45%)" 
      points="100,290.16648013430336 330,363.39508571922096 560,275.0942955567233 790,268.901443816698"
    ></polyline>
  </g><g>
    <text
      class="lib-label"
      x="95"
      y="309.16648013430336"
      fill="hsl(21, 90%, 45%)"
    >@webreflection/signal 1.0.1</text>
    <polyline
      class="line-med"
      fill="none"
      stroke="hsl(21, 90%, 45%)" 
      points="100,291.28000222754355 330,381.4305911122999 560,388.84810205740723 790,446.893904779311"
    ></polyline>
  </g><g>
    <text
      class="lib-label"
      x="95"
      y="325.16648013430336"
      fill="hsl(42, 90%, 45%)"
    >cellx 1.10.30</text>
    <polyline
      class="line-med"
      fill="none"
      stroke="hsl(42, 90%, 45%)" 
      points="100,313.3937823834197 330,369.9058419386214 560,340.21773605932026 790,302.8175249551017"
    ></polyline>
  </g><g>
    <text
      class="lib-label"
      x="95"
      y="341.16648013430336"
      fill="hsl(148, 90%, 45%)"
    >mol 1.0.468</text>
    <polyline
      class="line-med"
      fill="none"
      stroke="hsl(148, 90%, 45%)" 
      points="100,320.40699793463733 330,376.1426474671744 560,293.5640250485856 790,193.01766962208387"
    ></polyline>
  </g><g>
    <text
      class="lib-label"
      x="95"
      y="357.16648013430336"
      fill="hsl(212, 90%, 45%)"
    >reatom 3.1.23</text>
    <polyline
      class="line-med"
      fill="none"
      stroke="hsl(212, 90%, 45%)" 
      points="100,345.4348588369054 330,380.49240238507406 560,355.0440459336165 790,369.3408662900188"
    ></polyline>
  </g><g>
    <text
      class="lib-label"
      x="95"
      y="385.16313722858007"
      fill="hsl(318, 90%, 45%)"
    >whatsup 2.5.0</text>
    <polyline
      class="line-med"
      fill="none"
      stroke="hsl(318, 90%, 45%)" 
      points="100,382.16313722858007 330,416.3753518208964 560,382.06386267223525 790,428.1645267824029"
    ></polyline>
  </g><g>
    <text
      class="lib-label"
      x="95"
      y="413.6938216077393"
      fill="hsl(127, 90%, 45%)"
    >mobx 6.7.0</text>
    <polyline
      class="line-med"
      fill="none"
      stroke="hsl(127, 90%, 45%)" 
      points="100,410.6938216077393 330,428.18289996708614 560,437.2339627853746 790,434.37580787248584"
    ></polyline>
  </g><g>
    <text
      class="lib-label"
      x="95"
      y="442.1697786437192"
      fill="hsl(339, 90%, 45%)"
    >wonka 6.1.2</text>
    <polyline
      class="line-med"
      fill="none"
      stroke="hsl(339, 90%, 45%)" 
      points="100,439.1697786437192 330,439.25500411907467 560,454.4240510287036 790,482.24058556138084"
    ></polyline>
  </g><g>
    <text
      class="lib-label"
      x="95"
      y="458.1697786437192"
      fill="hsl(64, 90%, 45%)"
    >effector 22.5.0</text>
    <polyline
      class="line-med"
      fill="none"
      stroke="hsl(64, 90%, 45%)" 
      points="100,442.47087083119004 330,346.71540519877675 560,394.3371580934121 790,451.36129040774034"
    ></polyline>
  </g><g>
    <text
      class="lib-label"
      x="95"
      y="474.1697786437192"
      fill="hsl(85, 90%, 45%)"
    >effector.fork 22.5.0</text>
    <polyline
      class="line-med"
      fill="none"
      stroke="hsl(85, 90%, 45%)" 
      points="100,469.3646111691586 330,429.1876596384034 560,456.92101780558227 790,482.96902929007354"
    ></polyline>
  </g><!--CONTENT_END-->
</svg>