<svg id="bench-chart" viewBox="0 0 830 580" xmlns="http://www.w3.org/2000/svg">
  <style>
    #bench-chart .grid {
      stroke: #777777;
      stroke-width: 1;
    }

    #bench-chart .dashed {
      stroke: #777777;
      opacity: 0.3;
      stroke-width: 1;
      stroke-dasharray: 5, 5;
    }

    #bench-chart .labels {
      fill: #777777;
      font-size: 13px;
      font-family: sans-serif;
    }

    #bench-chart .x-labels {
      text-anchor: middle;
    }

    #bench-chart .y-labels {
      text-anchor: start;
    }

    #bench-chart .lib-label {
      font-size: 12px;
      font-family: sans-serif;
      text-anchor: end;
    }

    #bench-chart .line-med {
      stroke-width: 6;
      opacity: 0.6;
    }
  </style>

  <g class="grid">
    <line x1="100" y1="520" x2="830" y2="520"></line>
    <line x1="100" y1="520" x2="100" y2="0"></line>
  </g>

  <g class="dashed">
    <line x1="330" y1="520" x2="330" y2="0"></line>
    <line x1="560" y1="520" x2="560" y2="0"></line>
    <line x1="790" y1="520" x2="790" y2="0"></line>

    <line x1="100" y1="20" x2="790" y2="20"></line>
    <line x1="100" y1="145" x2="790" y2="145"></line>
    <line x1="100" y1="270" x2="790" y2="270"></line>
    <line x1="100" y1="395" x2="790" y2="395"></line>
  </g>

  <g class="labels x-labels">
    <text x="100" y="540">10</text>
    <text x="330" y="540">100</text>
    <text x="560" y="540">1000</text>
    <text x="790" y="540">10000</text>
    <text x="445" y="560">ITERATIONS</text>
  </g>

  <g class="labels y-labels">
    <text x="795" y="23">100%</text>
    <text x="795" y="148">75%</text>
    <text x="795" y="273">50%</text>
    <text x="795" y="398">25%</text>
  </g>

  <!--CONTENT_START--><g>
    <text
      class="lib-label"
      x="95"
      y="23"
      fill="hsl(0, 90%, 45%)"
    >@artalar/act 3.0.0</text>
    <polyline
      class="line-med"
      fill="none"
      stroke="hsl(0, 90%, 45%)" 
      points="100,20 330,20 560,118.08582101395935 790,41.818178739429484"
    ></polyline>
  </g><g>
    <text
      class="lib-label"
      x="95"
      y="80.3736948167265"
      fill="hsl(100, 90%, 45%)"
    >frpts 1.0.0-beta.3</text>
    <polyline
      class="line-med"
      fill="none"
      stroke="hsl(100, 90%, 45%)" 
      points="100,77.3736948167265 330,136.96981587094996 560,132.5409168421153 790,170.73040335080717"
    ></polyline>
  </g><g>
    <text
      class="lib-label"
      x="95"
      y="123.51688961744587"
      fill="hsl(240, 90%, 45%)"
    >s-js 0.4.9</text>
    <polyline
      class="line-med"
      fill="none"
      stroke="hsl(240, 90%, 45%)" 
      points="100,120.51688961744587 330,162.72559675983786 560,163.33333383027258 790,20"
    ></polyline>
  </g><g>
    <text
      class="lib-label"
      x="95"
      y="139.51688961744588"
      fill="hsl(280, 90%, 45%)"
    >spred 0.31.2</text>
    <polyline
      class="line-med"
      fill="none"
      stroke="hsl(280, 90%, 45%)" 
      points="100,121.62002935723518 330,175.49389152653364 560,20 790,47.8276508165709"
    ></polyline>
  </g><g>
    <text
      class="lib-label"
      x="95"
      y="155.51688961744588"
      fill="hsl(160, 90%, 45%)"
    >preact 1.2.3</text>
    <polyline
      class="line-med"
      fill="none"
      stroke="hsl(160, 90%, 45%)" 
      points="100,137.47184723102748 330,179.12584821525388 560,181.0773103903983 790,162.663039738845"
    ></polyline>
  </g><g>
    <text
      class="lib-label"
      x="95"
      y="184.5577096877091"
      fill="hsl(300, 90%, 45%)"
    >usignal 0.8.9</text>
    <polyline
      class="line-med"
      fill="none"
      stroke="hsl(300, 90%, 45%)" 
      points="100,181.5577096877091 330,213.643897608326 560,102.28936981340723 790,190.24011318567318"
    ></polyline>
  </g><g>
    <text
      class="lib-label"
      x="95"
      y="255.77682311747782"
      fill="hsl(200, 90%, 45%)"
    >reatom-v1 1.1.5</text>
    <polyline
      class="line-med"
      fill="none"
      stroke="hsl(200, 90%, 45%)" 
      points="100,252.77682311747782 330,278.1424326456181 560,318.4826895016791 790,300.83333501488795"
    ></polyline>
  </g><g>
    <text
      class="lib-label"
      x="95"
      y="271.7768231174778"
      fill="hsl(260, 90%, 45%)"
    >solid 1.6.9</text>
    <polyline
      class="line-med"
      fill="none"
      stroke="hsl(260, 90%, 45%)" 
      points="100,267.1667239063536 330,334.4184417883857 560,259.70588395293186 790,240.51009359198105"
    ></polyline>
  </g><g>
    <text
      class="lib-label"
      x="95"
      y="287.7768231174778"
      fill="hsl(20, 90%, 45%)"
    >@webreflection/signal 0.3.0</text>
    <polyline
      class="line-med"
      fill="none"
      stroke="hsl(20, 90%, 45%)" 
      points="100,267.458833362267 330,343.01288424354686 560,303.5048032897788 790,350.97686326276744"
    ></polyline>
  </g><g>
    <text
      class="lib-label"
      x="95"
      y="325.21186323649295"
      fill="hsl(180, 90%, 45%)"
    >reatom 3.1.19</text>
    <polyline
      class="line-med"
      fill="none"
      stroke="hsl(180, 90%, 45%)" 
      points="100,322.21186323649295 330,372.28894903775307 560,321.9347437506899 790,328.0291970306717"
    ></polyline>
  </g><g>
    <text
      class="lib-label"
      x="95"
      y="341.22763517384914"
      fill="hsl(140, 90%, 45%)"
    >mol 1.0.441</text>
    <polyline
      class="line-med"
      fill="none"
      stroke="hsl(140, 90%, 45%)" 
      points="100,338.22763517384914 330,349.5067545862937 560,287.3913066230927 790,182.8205133945529"
    ></polyline>
  </g><g>
    <text
      class="lib-label"
      x="95"
      y="357.22763517384914"
      fill="hsl(40, 90%, 45%)"
    >cellx 1.10.30</text>
    <polyline
      class="line-med"
      fill="none"
      stroke="hsl(40, 90%, 45%)" 
      points="100,345.72279893845354 330,373.2512589336423 560,357.32176771279916 790,277.3800710069034"
    ></polyline>
  </g><g>
    <text
      class="lib-label"
      x="95"
      y="373.22763517384914"
      fill="hsl(320, 90%, 45%)"
    >whatsup 2.4.0</text>
    <polyline
      class="line-med"
      fill="none"
      stroke="hsl(320, 90%, 45%)" 
      points="100,347.78927242945684 330,402.6021168962141 560,384.5666489270939 790,382.44769743277664"
    ></polyline>
  </g><g>
    <text
      class="lib-label"
      x="95"
      y="409.97909293325904"
      fill="hsl(120, 90%, 45%)"
    >mobx 6.7.0</text>
    <polyline
      class="line-med"
      fill="none"
      stroke="hsl(120, 90%, 45%)" 
      points="100,406.97909293325904 330,417.7332620464897 560,424.50282442989004 790,412.82803631603934"
    ></polyline>
  </g><g>
    <text
      class="lib-label"
      x="95"
      y="425.97909293325904"
      fill="hsl(220, 90%, 45%)"
    >reatom-v2 2.0.22</text>
    <polyline
      class="line-med"
      fill="none"
      stroke="hsl(220, 90%, 45%)" 
      points="100,421.31338897628956 330,441.4495387281794 560,458.3014077637339 790,463.5688920785143"
    ></polyline>
  </g><g>
    <text
      class="lib-label"
      x="95"
      y="448.62040265464543"
      fill="hsl(340, 90%, 45%)"
    >wonka 6.1.2</text>
    <polyline
      class="line-med"
      fill="none"
      stroke="hsl(340, 90%, 45%)" 
      points="100,445.62040265464543 330,440.66250823027525 560,445.8921590849826 790,453.6863337858111"
    ></polyline>
  </g><g>
    <text
      class="lib-label"
      x="95"
      y="464.62040265464543"
      fill="hsl(60, 90%, 45%)"
    >effector 22.5.0</text>
    <polyline
      class="line-med"
      fill="none"
      stroke="hsl(60, 90%, 45%)" 
      points="100,452.75117296133504 330,370.53928994241306 560,406.3478168002656 790,414.20756226250586"
    ></polyline>
  </g><g>
    <text
      class="lib-label"
      x="95"
      y="482.65102980855465"
      fill="hsl(80, 90%, 45%)"
    >effector.fork 22.5.0</text>
    <polyline
      class="line-med"
      fill="none"
      stroke="hsl(80, 90%, 45%)" 
      points="100,479.65102980855465 330,437.49069569880527 560,453.5650848566079 790,458.81515432526044"
    ></polyline>
  </g><!--CONTENT_END-->
</svg>