<svg id="bench-chart" viewBox="0 0 830 580" xmlns="http://www.w3.org/2000/svg">
  <style>
    #bench-chart .grid {
      stroke: #777777;
      stroke-width: 1;
    }

    #bench-chart .dashed {
      stroke: #777777;
      opacity: 0.3;
      stroke-width: 1;
      stroke-dasharray: 5, 5;
    }

    #bench-chart .labels {
      fill: #777777;
      font-size: 13px;
      font-family: sans-serif;
    }

    #bench-chart .x-labels {
      text-anchor: middle;
    }

    #bench-chart .y-labels {
      text-anchor: start;
    }

    #bench-chart .lib-label {
      font-size: 12px;
      font-family: sans-serif;
      text-anchor: end;
    }

    #bench-chart .line-med {
      stroke-width: 6;
      opacity: 0.6;
    }
  </style>

  <g class="grid">
    <line x1="100" y1="520" x2="830" y2="520"></line>
    <line x1="100" y1="520" x2="100" y2="0"></line>
  </g>

  <g class="dashed">
    <line x1="330" y1="520" x2="330" y2="0"></line>
    <line x1="560" y1="520" x2="560" y2="0"></line>
    <line x1="790" y1="520" x2="790" y2="0"></line>

    <line x1="100" y1="20" x2="790" y2="20"></line>
    <line x1="100" y1="145" x2="790" y2="145"></line>
    <line x1="100" y1="270" x2="790" y2="270"></line>
    <line x1="100" y1="395" x2="790" y2="395"></line>
  </g>

  <g class="labels x-labels">
    <text x="100" y="540">10</text>
    <text x="330" y="540">100</text>
    <text x="560" y="540">1000</text>
    <text x="790" y="540">10000</text>
    <text x="445" y="560">ITERATIONS</text>
  </g>

  <g class="labels y-labels">
    <text x="795" y="23">100%</text>
    <text x="795" y="148">75%</text>
    <text x="795" y="273">50%</text>
    <text x="795" y="398">25%</text>
  </g>

  <!--CONTENT_START--><g>
    <text
      class="lib-label"
      x="95"
      y="23"
      fill="hsl(152, 90%, 45%)"
    >nanostores 0.7.1</text>
    <polyline
      class="line-med"
      fill="none"
      stroke="hsl(152, 90%, 45%)" 
      points="100,20 330,83.42589800430414 560,167.929267991606 790,50.001564618754585"
    ></polyline>
  </g><g>
    <text
      class="lib-label"
      x="95"
      y="62.608113341680294"
      fill="hsl(0, 90%, 45%)"
    >@artalar/act 3.0.3</text>
    <polyline
      class="line-med"
      fill="none"
      stroke="hsl(0, 90%, 45%)" 
      points="100,59.608113341680294 330,20 560,181.4512623059061 790,133.16913435270382"
    ></polyline>
  </g><g>
    <text
      class="lib-label"
      x="95"
      y="135.70623610564866"
      fill="hsl(246, 90%, 45%)"
    >s-js 0.4.9</text>
    <polyline
      class="line-med"
      fill="none"
      stroke="hsl(246, 90%, 45%)" 
      points="100,132.70623610564866 330,162.17832203242702 560,139.8089987669661 790,69.16131844885007"
    ></polyline>
  </g><g>
    <text
      class="lib-label"
      x="95"
      y="151.70623610564866"
      fill="hsl(95, 90%, 45%)"
    >frpts 1.0.0-beta.3</text>
    <polyline
      class="line-med"
      fill="none"
      stroke="hsl(95, 90%, 45%)" 
      points="100,142.5828425173992 330,172.16916142400405 560,140.4152833000216 790,180.6501642086916"
    ></polyline>
  </g><g>
    <text
      class="lib-label"
      x="95"
      y="167.70623610564866"
      fill="hsl(284, 90%, 45%)"
    >spred 0.31.2</text>
    <polyline
      class="line-med"
      fill="none"
      stroke="hsl(284, 90%, 45%)" 
      points="100,157.27215919362408 330,155.5585203704477 560,20 790,20"
    ></polyline>
  </g><g>
    <text
      class="lib-label"
      x="95"
      y="183.70623610564866"
      fill="hsl(171, 90%, 45%)"
    >preact 1.2.3</text>
    <polyline
      class="line-med"
      fill="none"
      stroke="hsl(171, 90%, 45%)" 
      points="100,177.4502340764834 330,186.35254876743622 560,175.07255140362508 790,207.18899150808898"
    ></polyline>
  </g><g>
    <text
      class="lib-label"
      x="95"
      y="229.85736266780168"
      fill="hsl(303, 90%, 45%)"
    >usignal 0.8.10</text>
    <polyline
      class="line-med"
      fill="none"
      stroke="hsl(303, 90%, 45%)" 
      points="100,226.85736266780168 330,225.86289599262648 560,135.81952159946314 790,214.3089608183776"
    ></polyline>
  </g><g>
    <text
      class="lib-label"
      x="95"
      y="246.25496014503733"
      fill="hsl(208, 90%, 45%)"
    >reatom-v1 1.1.5</text>
    <polyline
      class="line-med"
      fill="none"
      stroke="hsl(208, 90%, 45%)" 
      points="100,243.25496014503733 330,267.14138808281945 560,299.629692228835 790,307.91836762138655"
    ></polyline>
  </g><g>
    <text
      class="lib-label"
      x="95"
      y="298.34789547667924"
      fill="hsl(265, 90%, 45%)"
    >solid 1.6.9</text>
    <polyline
      class="line-med"
      fill="none"
      stroke="hsl(265, 90%, 45%)" 
      points="100,295.34789547667924 330,325.39067925030605 560,255.8492750363433 790,267.65131680271065"
    ></polyline>
  </g><g>
    <text
      class="lib-label"
      x="95"
      y="331.4258607972286"
      fill="hsl(133, 90%, 45%)"
    >mol 1.0.460</text>
    <polyline
      class="line-med"
      fill="none"
      stroke="hsl(133, 90%, 45%)" 
      points="100,328.4258607972286 330,328.09302021824425 560,229.91563672027536 790,196.36435928020828"
    ></polyline>
  </g><g>
    <text
      class="lib-label"
      x="95"
      y="347.4258607972286"
      fill="hsl(19, 90%, 45%)"
    >@webreflection/signal 1.0.1</text>
    <polyline
      class="line-med"
      fill="none"
      stroke="hsl(19, 90%, 45%)" 
      points="100,334.20611985905987 330,366.3850596561493 560,376.7559944341481 790,406.81529553826306"
    ></polyline>
  </g><g>
    <text
      class="lib-label"
      x="95"
      y="363.4258607972286"
      fill="hsl(189, 90%, 45%)"
    >reatom 3.1.19</text>
    <polyline
      class="line-med"
      fill="none"
      stroke="hsl(189, 90%, 45%)" 
      points="100,343.283152855517 330,366.7071520435517 560,328.75858134187126 790,344.1349941594159"
    ></polyline>
  </g><g>
    <text
      class="lib-label"
      x="95"
      y="379.4258607972286"
      fill="hsl(38, 90%, 45%)"
    >cellx 1.10.30</text>
    <polyline
      class="line-med"
      fill="none"
      stroke="hsl(38, 90%, 45%)" 
      points="100,344.39301337437166 330,360.77421109697747 560,359.5146019817639 790,283.5221127803342"
    ></polyline>
  </g><g>
    <text
      class="lib-label"
      x="95"
      y="396.7798264149105"
      fill="hsl(322, 90%, 45%)"
    >whatsup 2.5.0</text>
    <polyline
      class="line-med"
      fill="none"
      stroke="hsl(322, 90%, 45%)" 
      points="100,393.7798264149105 330,403.5127382353905 560,387.59397885403246 790,400.1786050080822"
    ></polyline>
  </g><g>
    <text
      class="lib-label"
      x="95"
      y="414.0822874176341"
      fill="hsl(114, 90%, 45%)"
    >mobx 6.7.0</text>
    <polyline
      class="line-med"
      fill="none"
      stroke="hsl(114, 90%, 45%)" 
      points="100,411.0822874176341 330,417.5087606913241 560,422.17845989518355 790,422.43916584440933"
    ></polyline>
  </g><g>
    <text
      class="lib-label"
      x="95"
      y="435.3007462454659"
      fill="hsl(227, 90%, 45%)"
    >reatom-v2 2.0.22</text>
    <polyline
      class="line-med"
      fill="none"
      stroke="hsl(227, 90%, 45%)" 
      points="100,432.3007462454659 330,437.58299357245164 560,462.42171348026005 790,465.7901419434676"
    ></polyline>
  </g><g>
    <text
      class="lib-label"
      x="95"
      y="451.3007462454659"
      fill="hsl(341, 90%, 45%)"
    >wonka 6.1.2</text>
    <polyline
      class="line-med"
      fill="none"
      stroke="hsl(341, 90%, 45%)" 
      points="100,446.41720814407455 330,433.9173360466256 560,437.058798939289 790,448.35376847666896"
    ></polyline>
  </g><g>
    <text
      class="lib-label"
      x="95"
      y="467.3007462454659"
      fill="hsl(57, 90%, 45%)"
    >effector 22.5.0</text>
    <polyline
      class="line-med"
      fill="none"
      stroke="hsl(57, 90%, 45%)" 
      points="100,453.56662729258943 330,351.0734471316117 560,393.7401704739714 790,414.44147425262025"
    ></polyline>
  </g><g>
    <text
      class="lib-label"
      x="95"
      y="483.3007462454659"
      fill="hsl(76, 90%, 45%)"
    >effector.fork 22.5.0</text>
    <polyline
      class="line-med"
      fill="none"
      stroke="hsl(76, 90%, 45%)" 
      points="100,473.9567197815098 330,426.44178112851625 560,452.13480749419637 790,456.9340210225762"
    ></polyline>
  </g><!--CONTENT_END-->
</svg>