<svg id="bench-chart" viewBox="0 0 830 580" xmlns="http://www.w3.org/2000/svg">
  <style>
    #bench-chart .grid {
      stroke: #777777;
      stroke-width: 1;
    }

    #bench-chart .dashed {
      stroke: #777777;
      opacity: 0.3;
      stroke-width: 1;
      stroke-dasharray: 5, 5;
    }

    #bench-chart .labels {
      fill: #777777;
      font-size: 13px;
      font-family: sans-serif;
    }

    #bench-chart .x-labels {
      text-anchor: middle;
    }

    #bench-chart .y-labels {
      text-anchor: start;
    }

    #bench-chart .lib-label {
      font-size: 12px;
      font-family: sans-serif;
      text-anchor: end;
    }

    #bench-chart .line-med {
      stroke-width: 6;
      opacity: 0.6;
    }
  </style>

  <g class="grid">
    <line x1="100" y1="520" x2="830" y2="520"></line>
    <line x1="100" y1="520" x2="100" y2="0"></line>
  </g>

  <g class="dashed">
    <line x1="330" y1="520" x2="330" y2="0"></line>
    <line x1="560" y1="520" x2="560" y2="0"></line>
    <line x1="790" y1="520" x2="790" y2="0"></line>

    <line x1="100" y1="20" x2="790" y2="20"></line>
    <line x1="100" y1="145" x2="790" y2="145"></line>
    <line x1="100" y1="270" x2="790" y2="270"></line>
    <line x1="100" y1="395" x2="790" y2="395"></line>
  </g>

  <g class="labels x-labels">
    <text x="100" y="540">10</text>
    <text x="330" y="540">100</text>
    <text x="560" y="540">1000</text>
    <text x="790" y="540">10000</text>
    <text x="445" y="560">ITERATIONS</text>
  </g>

  <g class="labels y-labels">
    <text x="795" y="23">100%</text>
    <text x="795" y="148">75%</text>
    <text x="795" y="273">50%</text>
    <text x="795" y="398">25%</text>
  </g>

  <!--CONTENT_START--><g>
    <text
      class="lib-label"
      x="95"
      y="23"
      fill="hsl(0, 90%, 45%)"
    >@artalar/act 1.0.2</text>
    <polyline
      class="line-med"
      fill="none"
      stroke="hsl(0, 90%, 45%)" 
      points="100,20 330,20 560,27.152198790256637 790,65.13575147368876"
    ></polyline>
  </g><g>
    <text
      class="lib-label"
      x="95"
      y="236.90765318286574"
      fill="hsl(85, 90%, 45%)"
    >frpts 1.0.0-beta.3</text>
    <polyline
      class="line-med"
      fill="none"
      stroke="hsl(85, 90%, 45%)" 
      points="100,233.90765318286574 330,248.87621887339833 560,183.3820902188477 790,254.6910605832455"
    ></polyline>
  </g><g>
    <text
      class="lib-label"
      x="95"
      y="298.5981099849148"
      fill="hsl(233, 90%, 45%)"
    >s-js 0.4.9</text>
    <polyline
      class="line-med"
      fill="none"
      stroke="hsl(233, 90%, 45%)" 
      points="100,295.5981099849148 330,298.7250485053767 560,211.9008686765457 790,20"
    ></polyline>
  </g><g>
    <text
      class="lib-label"
      x="95"
      y="314.5981099849148"
      fill="hsl(275, 90%, 45%)"
    >spred 0.31.1</text>
    <polyline
      class="line-med"
      fill="none"
      stroke="hsl(275, 90%, 45%)" 
      points="100,304.98817402107176 330,301.228663393699 560,20 790,90.97926220526762"
    ></polyline>
  </g><g>
    <text
      class="lib-label"
      x="95"
      y="330.5981099849148"
      fill="hsl(148, 90%, 45%)"
    >preact 1.2.3</text>
    <polyline
      class="line-med"
      fill="none"
      stroke="hsl(148, 90%, 45%)" 
      points="100,319.6159198441414 330,321.5293631831991 560,178.42397462043962 790,139.55230863353367"
    ></polyline>
  </g><g>
    <text
      class="lib-label"
      x="95"
      y="346.5981099849148"
      fill="hsl(296, 90%, 45%)"
    >usignal 0.8.9</text>
    <polyline
      class="line-med"
      fill="none"
      stroke="hsl(296, 90%, 45%)" 
      points="100,336.08578814537805 330,298.08284687180503 560,109.27111716621255 790,267.43770456554455"
    ></polyline>
  </g><g>
    <text
      class="lib-label"
      x="95"
      y="362.5981099849148"
      fill="hsl(191, 90%, 45%)"
    >reatom-v1 1.1.5</text>
    <polyline
      class="line-med"
      fill="none"
      stroke="hsl(191, 90%, 45%)" 
      points="100,340.57199250368836 330,324.0607437174223 560,313.4289189235487 790,346.1781051662337"
    ></polyline>
  </g><g>
    <text
      class="lib-label"
      x="95"
      y="391.1278023620432"
      fill="hsl(127, 90%, 45%)"
    >mol 1.0.430</text>
    <polyline
      class="line-med"
      fill="none"
      stroke="hsl(127, 90%, 45%)" 
      points="100,388.1278023620432 330,393.7594041387591 560,262.5106228514082 790,185.79201112814758"
    ></polyline>
  </g><g>
    <text
      class="lib-label"
      x="95"
      y="407.1278023620432"
      fill="hsl(254, 90%, 45%)"
    >solid 1.6.8</text>
    <polyline
      class="line-med"
      fill="none"
      stroke="hsl(254, 90%, 45%)" 
      points="100,397.53442738950577 330,396.19481319975347 560,282.03725629489304 790,259.277875058574"
    ></polyline>
  </g><g>
    <text
      class="lib-label"
      x="95"
      y="423.1278023620432"
      fill="hsl(169, 90%, 45%)"
    >reatom 3.1.18</text>
    <polyline
      class="line-med"
      fill="none"
      stroke="hsl(169, 90%, 45%)" 
      points="100,408.17130147369465 330,407.9120787593077 560,362.46074256002925 790,371.73835602990056"
    ></polyline>
  </g><g>
    <text
      class="lib-label"
      x="95"
      y="439.1278023620432"
      fill="hsl(21, 90%, 45%)"
    >cellx 1.10.30</text>
    <polyline
      class="line-med"
      fill="none"
      stroke="hsl(21, 90%, 45%)" 
      points="100,415.965667716672 330,403.32625300191603 560,348.35141059583793 790,309.9604617432596"
    ></polyline>
  </g><g>
    <text
      class="lib-label"
      x="95"
      y="455.1278023620432"
      fill="hsl(318, 90%, 45%)"
    >whatsup 2.4.0</text>
    <polyline
      class="line-med"
      fill="none"
      stroke="hsl(318, 90%, 45%)" 
      points="100,433.0853622026712 330,431.28580375094765 560,382.2710037004888 790,416.06437785118766"
    ></polyline>
  </g><g>
    <text
      class="lib-label"
      x="95"
      y="471.1278023620432"
      fill="hsl(106, 90%, 45%)"
    >mobx 6.7.0</text>
    <polyline
      class="line-med"
      fill="none"
      stroke="hsl(106, 90%, 45%)" 
      points="100,447.4681656995487 330,448.96167652027026 560,438.24683909020035 790,429.9178553777459"
    ></polyline>
  </g><g>
    <text
      class="lib-label"
      x="95"
      y="487.1278023620432"
      fill="hsl(212, 90%, 45%)"
    >reatom-v2 2.0.22</text>
    <polyline
      class="line-med"
      fill="none"
      stroke="hsl(212, 90%, 45%)" 
      points="100,455.9480310589508 330,445.0942062462777 560,449.8756730981705 790,472.7048791617827"
    ></polyline>
  </g><g>
    <text
      class="lib-label"
      x="95"
      y="503.1278023620432"
      fill="hsl(339, 90%, 45%)"
    >wonka 6.1.2</text>
    <polyline
      class="line-med"
      fill="none"
      stroke="hsl(339, 90%, 45%)" 
      points="100,467.90394378100524 330,455.8833870913951 560,455.14923366496373 790,478.3679561448763"
    ></polyline>
  </g><g>
    <text
      class="lib-label"
      x="95"
      y="519.1278023620432"
      fill="hsl(42, 90%, 45%)"
    >effector 22.4.1</text>
    <polyline
      class="line-med"
      fill="none"
      stroke="hsl(42, 90%, 45%)" 
      points="100,477.6503278661525 330,372.75936016105385 560,387.30561852153437 790,441.6426760751293"
    ></polyline>
  </g><g>
    <text
      class="lib-label"
      x="95"
      y="535.1278023620432"
      fill="hsl(64, 90%, 45%)"
    >effector.fork 22.4.1</text>
    <polyline
      class="line-med"
      fill="none"
      stroke="hsl(64, 90%, 45%)" 
      points="100,491.821140680601 330,446.59171739652203 560,452.1514172865068 790,476.32423722861455"
    ></polyline>
  </g><!--CONTENT_END-->
</svg>