<svg id="bench-chart" viewBox="0 0 830 580" xmlns="http://www.w3.org/2000/svg">
  <style>
    #bench-chart .grid {
      stroke: #777777;
      stroke-width: 1;
    }

    #bench-chart .dashed {
      stroke: #777777;
      opacity: 0.3;
      stroke-width: 1;
      stroke-dasharray: 5, 5;
    }

    #bench-chart .labels {
      fill: #777777;
      font-size: 13px;
      font-family: sans-serif;
    }

    #bench-chart .x-labels {
      text-anchor: middle;
    }

    #bench-chart .y-labels {
      text-anchor: start;
    }

    #bench-chart .lib-label {
      font-size: 12px;
      font-family: sans-serif;
      text-anchor: end;
    }

    #bench-chart .line-med {
      stroke-width: 6;
      opacity: 0.6;
    }
  </style>

  <g class="grid">
    <line x1="100" y1="520" x2="830" y2="520"></line>
    <line x1="100" y1="520" x2="100" y2="0"></line>
  </g>

  <g class="dashed">
    <line x1="330" y1="520" x2="330" y2="0"></line>
    <line x1="560" y1="520" x2="560" y2="0"></line>
    <line x1="790" y1="520" x2="790" y2="0"></line>

    <line x1="100" y1="20" x2="790" y2="20"></line>
    <line x1="100" y1="145" x2="790" y2="145"></line>
    <line x1="100" y1="270" x2="790" y2="270"></line>
    <line x1="100" y1="395" x2="790" y2="395"></line>
  </g>

  <g class="labels x-labels">
    <text x="100" y="540">10</text>
    <text x="330" y="540">100</text>
    <text x="560" y="540">1000</text>
    <text x="790" y="540">10000</text>
    <text x="445" y="560">ITERATIONS</text>
  </g>

  <g class="labels y-labels">
    <text x="795" y="23">100%</text>
    <text x="795" y="148">75%</text>
    <text x="795" y="273">50%</text>
    <text x="795" y="398">25%</text>
  </g>

  <!--CONTENT_START--><g>
    <text
      class="lib-label"
      x="95"
      y="23"
      fill="#e60049"
    >frpts 1.0.0-beta.3</text>
    <polyline
      class="line-med"
      fill="none"
      stroke="#e60049" 
      points="100,20 330,20 560,169.52318316343312 790,223.05556362368932"
    ></polyline>
  </g><g>
    <text
      class="lib-label"
      x="95"
      y="164.18961710377508"
      fill="#0bb4ff"
    >spred 0.31.1</text>
    <polyline
      class="line-med"
      fill="none"
      stroke="#0bb4ff" 
      points="100,161.18961710377508 330,102.86601814763344 560,20 790,80.18498601849859"
    ></polyline>
  </g><g>
    <text
      class="lib-label"
      x="95"
      y="180.18961710377508"
      fill="#50e991"
    >s.js 0.4.9</text>
    <polyline
      class="line-med"
      fill="none"
      stroke="#50e991" 
      points="100,165.35316974503647 330,90.61595422416694 560,133.92450916467433 790,20"
    ></polyline>
  </g><g>
    <text
      class="lib-label"
      x="95"
      y="196.18961710377508"
      fill="#e6d800"
    >usignal 0.8.9</text>
    <polyline
      class="line-med"
      fill="none"
      stroke="#e6d800" 
      points="100,170.24016378382638 330,121.11937965105372 560,143.55185080531223 790,255.3139158576052"
    ></polyline>
  </g><g>
    <text
      class="lib-label"
      x="95"
      y="212.18961710377508"
      fill="#9b19f5"
    >preact 1.2.2</text>
    <polyline
      class="line-med"
      fill="none"
      stroke="#9b19f5" 
      points="100,176.53714801211416 330,141.79629711981738 560,156.9891008174387 790,135.12253886985656"
    ></polyline>
  </g><g>
    <text
      class="lib-label"
      x="95"
      y="228.18961710377508"
      fill="#ffa300"
    >reatom-v1 1.1.5</text>
    <polyline
      class="line-med"
      fill="none"
      stroke="#ffa300" 
      points="100,192.75294695481335 330,161.2844810617777 560,325.1482686752714 790,337.7596748605145"
    ></polyline>
  </g><g>
    <text
      class="lib-label"
      x="95"
      y="281.32675897966027"
      fill="#dc0ab4"
    >solid 1.6.2</text>
    <polyline
      class="line-med"
      fill="none"
      stroke="#dc0ab4" 
      points="100,278.32675897966027 330,280.26534869298854 560,246.52862237959616 790,221.53850645180128"
    ></polyline>
  </g><g>
    <text
      class="lib-label"
      x="95"
      y="297.32675897966027"
      fill="#b3d4ff"
    >mol 1.0.380</text>
    <polyline
      class="line-med"
      fill="none"
      stroke="#b3d4ff" 
      points="100,289.9882625056098 330,273.3854644924944 560,241.52692498628272 790,207.18254696774983"
    ></polyline>
  </g><g>
    <text
      class="lib-label"
      x="95"
      y="313.32675897966027"
      fill="#00bfa0"
    >cellx 1.10.29</text>
    <polyline
      class="line-med"
      fill="none"
      stroke="#00bfa0" 
      points="100,302.7724208758874 330,294.0003897461336 560,338.4945504087193 790,295.8643369214917"
    ></polyline>
  </g><g>
    <text
      class="lib-label"
      x="95"
      y="329.32675897966027"
      fill="#e60049"
    >reatom 3.1.9</text>
    <polyline
      class="line-med"
      fill="none"
      stroke="#e60049" 
      points="100,323.47899184449983 330,312.0348211665743 560,352.45826390417204 790,356.59655403893487"
    ></polyline>
  </g><g>
    <text
      class="lib-label"
      x="95"
      y="365.7827297557177"
      fill="#0bb4ff"
    >whatsup 2.4.0</text>
    <polyline
      class="line-med"
      fill="none"
      stroke="#0bb4ff" 
      points="100,362.7827297557177 330,353.7200208550574 560,386.83492428407214 790,401.8188123504456"
    ></polyline>
  </g><g>
    <text
      class="lib-label"
      x="95"
      y="393.6544686840253"
      fill="#50e991"
    >mobx 6.7.0</text>
    <polyline
      class="line-med"
      fill="none"
      stroke="#50e991" 
      points="100,390.6544686840253 330,384.6945896927336 560,431.486492097898 790,422.6625345729614"
    ></polyline>
  </g><g>
    <text
      class="lib-label"
      x="95"
      y="412.49426345403504"
      fill="#e6d800"
    >reatom-v2 2.0.20</text>
    <polyline
      class="line-med"
      fill="none"
      stroke="#e6d800" 
      points="100,409.49426345403504 330,380.4266958424508 560,454.4240104842828 790,467.3921187234349"
    ></polyline>
  </g><g>
    <text
      class="lib-label"
      x="95"
      y="441.6238946699888"
      fill="#9b19f5"
    >wonka 6.1.1</text>
    <polyline
      class="line-med"
      fill="none"
      stroke="#9b19f5" 
      points="100,438.6238946699888 330,398.84572465110097 560,458.2731779641384 790,473.2939985974723"
    ></polyline>
  </g><g>
    <text
      class="lib-label"
      x="95"
      y="457.6238946699888"
      fill="#ffa300"
    >effector 22.4.0</text>
    <polyline
      class="line-med"
      fill="none"
      stroke="#ffa300" 
      points="100,449.0052584750955 330,246.10357265544485 560,398.5136213381968 790,435.4649489821231"
    ></polyline>
  </g><g>
    <text
      class="lib-label"
      x="95"
      y="473.6238946699888"
      fill="#dc0ab4"
    >effector (fork) 22.4.0</text>
    <polyline
      class="line-med"
      fill="none"
      stroke="#dc0ab4" 
      points="100,468.6019879580809 330,383.29979318695683 560,457.3861753751072 790,471.6134375828253"
    ></polyline>
  </g><!--CONTENT_END-->
</svg>