<svg id="bench-chart" viewBox="0 0 830 580" xmlns="http://www.w3.org/2000/svg">
  <style>
    #bench-chart .grid {
      stroke: #777777;
      stroke-width: 1;
    }

    #bench-chart .dashed {
      stroke: #777777;
      opacity: 0.3;
      stroke-width: 1;
      stroke-dasharray: 5, 5;
    }

    #bench-chart .labels {
      fill: #777777;
      font-size: 13px;
      font-family: sans-serif;
    }

    #bench-chart .x-labels {
      text-anchor: middle;
    }

    #bench-chart .y-labels {
      text-anchor: start;
    }

    #bench-chart .lib-label {
      font-size: 12px;
      font-family: sans-serif;
      text-anchor: end;
    }

    #bench-chart .line-med {
      stroke-width: 6;
      opacity: 0.6;
    }
  </style>

  <g class="grid">
    <line x1="100" y1="520" x2="830" y2="520"></line>
    <line x1="100" y1="520" x2="100" y2="0"></line>
  </g>

  <g class="dashed">
    <line x1="330" y1="520" x2="330" y2="0"></line>
    <line x1="560" y1="520" x2="560" y2="0"></line>
    <line x1="790" y1="520" x2="790" y2="0"></line>

    <line x1="100" y1="20" x2="790" y2="20"></line>
    <line x1="100" y1="145" x2="790" y2="145"></line>
    <line x1="100" y1="270" x2="790" y2="270"></line>
    <line x1="100" y1="395" x2="790" y2="395"></line>
  </g>

  <g class="labels x-labels">
    <text x="100" y="540">10</text>
    <text x="330" y="540">100</text>
    <text x="560" y="540">1000</text>
    <text x="790" y="540">10000</text>
    <text x="445" y="560">ITERATIONS</text>
  </g>

  <g class="labels y-labels">
    <text x="795" y="23">100%</text>
    <text x="795" y="148">75%</text>
    <text x="795" y="273">50%</text>
    <text x="795" y="398">25%</text>
  </g>

  <!--CONTENT_START--><g>
    <text
      class="lib-label"
      x="95"
      y="23"
      fill="#e60049"
    >frpts 1.0.0-beta.3</text>
    <polyline
      class="line-med"
      fill="none"
      stroke="#e60049" 
      points="100,20 330,20 560,188.57418528438106 790,281.65285956682305"
    ></polyline>
  </g><g>
    <text
      class="lib-label"
      x="95"
      y="55.782031588945046"
      fill="#0bb4ff"
    >spred 0.31.1</text>
    <polyline
      class="line-med"
      fill="none"
      stroke="#0bb4ff" 
      points="100,52.782031588945046 330,65.43403096505722 560,20 790,118.09256661991583"
    ></polyline>
  </g><g>
    <text
      class="lib-label"
      x="95"
      y="83.69601552336223"
      fill="#50e991"
    >s.js 0.4.9</text>
    <polyline
      class="line-med"
      fill="none"
      stroke="#50e991" 
      points="100,80.69601552336223 330,60.48129045229237 560,129.6284975311545 790,20"
    ></polyline>
  </g><g>
    <text
      class="lib-label"
      x="95"
      y="188.69412574094196"
      fill="#e6d800"
    >usignal 0.8.9</text>
    <polyline
      class="line-med"
      fill="none"
      stroke="#e6d800" 
      points="100,185.69412574094196 330,59.25209732194085 560,145.02823157419257 790,263.76765978754605"
    ></polyline>
  </g><g>
    <text
      class="lib-label"
      x="95"
      y="205.8893177612861"
      fill="#9b19f5"
    >preact 1.2.2</text>
    <polyline
      class="line-med"
      fill="none"
      stroke="#9b19f5" 
      points="100,202.8893177612861 330,103.29593425241578 560,145.02823157419257 790,172.57032007759457"
    ></polyline>
  </g><g>
    <text
      class="lib-label"
      x="95"
      y="250.26977162823962"
      fill="#ffa300"
    >solid 1.6.2</text>
    <polyline
      class="line-med"
      fill="none"
      stroke="#ffa300" 
      points="100,247.26977162823962 330,254.77244020334652 560,248.56948228882834 790,260.58516801854"
    ></polyline>
  </g><g>
    <text
      class="lib-label"
      x="95"
      y="309.1187824915391"
      fill="#dc0ab4"
    >cellx 1.10.29</text>
    <polyline
      class="line-med"
      fill="none"
      stroke="#dc0ab4" 
      points="100,306.1187824915391 330,294.2170194496054 560,334.9434789474173 790,308.716194296163"
    ></polyline>
  </g><g>
    <text
      class="lib-label"
      x="95"
      y="325.1187824915391"
      fill="#b3d4ff"
    >mol 1.0.374</text>
    <polyline
      class="line-med"
      fill="none"
      stroke="#b3d4ff" 
      points="100,307.71011481392685 330,250.5549006094022 560,243.31856625050344 790,214.00307534597644"
    ></polyline>
  </g><g>
    <text
      class="lib-label"
      x="95"
      y="341.1187824915391"
      fill="#00bfa0"
    >reatom 3.1.6</text>
    <polyline
      class="line-med"
      fill="none"
      stroke="#00bfa0" 
      points="100,309.6655933277027 330,294.51858316416553 560,323.4586851866467 790,369.2995077622113"
    ></polyline>
  </g><g>
    <text
      class="lib-label"
      x="95"
      y="357.1187824915391"
      fill="#e60049"
    >whatsup 2.4.0</text>
    <polyline
      class="line-med"
      fill="none"
      stroke="#e60049" 
      points="100,324.63172707303676 330,333.5807232846459 560,384.9343077569726 790,411.55313351498637"
    ></polyline>
  </g><g>
    <text
      class="lib-label"
      x="95"
      y="382.34742244751"
      fill="#0bb4ff"
    >mobx 6.7.0</text>
    <polyline
      class="line-med"
      fill="none"
      stroke="#0bb4ff" 
      points="100,379.34742244751 330,371.90524846732797 560,432.5777773877329 790,438.66485013623975"
    ></polyline>
  </g><g>
    <text
      class="lib-label"
      x="95"
      y="413.85778224558385"
      fill="#50e991"
    >wonka 6.1.1</text>
    <polyline
      class="line-med"
      fill="none"
      stroke="#50e991" 
      points="100,410.85778224558385 330,384.0995734851863 560,460.7476802284083 790,476.93961086968284"
    ></polyline>
  </g><g>
    <text
      class="lib-label"
      x="95"
      y="434.8340799286632"
      fill="#e6d800"
    >effector 22.4.0</text>
    <polyline
      class="line-med"
      fill="none"
      stroke="#e6d800" 
      points="100,431.8340799286632 330,224.33071453804553 560,406.9045929575786 790,444.08684871411765"
    ></polyline>
  </g><g>
    <text
      class="lib-label"
      x="95"
      y="463.0160024568212"
      fill="#9b19f5"
    >effector (fork) 22.4.0</text>
    <polyline
      class="line-med"
      fill="none"
      stroke="#9b19f5" 
      points="100,460.0160024568212 330,384.74820307627874 560,460.06281626243236 790,477.740746202625"
    ></polyline>
  </g><!--CONTENT_END-->
</svg>