<svg id="bench-chart" viewBox="0 0 830 580" xmlns="http://www.w3.org/2000/svg">
  <style>
    #bench-chart .grid {
      stroke: #777777;
      stroke-width: 1;
    }

    #bench-chart .dashed {
      stroke: #777777;
      opacity: 0.3;
      stroke-width: 1;
      stroke-dasharray: 5, 5;
    }

    #bench-chart .labels {
      fill: #777777;
      font-size: 13px;
      font-family: sans-serif;
    }

    #bench-chart .x-labels {
      text-anchor: middle;
    }

    #bench-chart .y-labels {
      text-anchor: start;
    }

    #bench-chart .lib-label {
      font-size: 13px;
      font-family: sans-serif;
      text-anchor: end;
    }

    #bench-chart .line-med {
      stroke-width: 6;
      opacity: 0.6;
    }
  </style>

  <g class="grid">
    <line x1="100" y1="520" x2="830" y2="520"></line>
    <line x1="100" y1="520" x2="100" y2="0"></line>
  </g>

  <g class="dashed">
    <line x1="330" y1="520" x2="330" y2="0"></line>
    <line x1="560" y1="520" x2="560" y2="0"></line>
    <line x1="790" y1="520" x2="790" y2="0"></line>

    <line x1="100" y1="20" x2="790" y2="20"></line>
    <line x1="100" y1="145" x2="790" y2="145"></line>
    <line x1="100" y1="270" x2="790" y2="270"></line>
    <line x1="100" y1="395" x2="790" y2="395"></line>
  </g>

  <g class="labels x-labels">
    <text x="100" y="540">10</text>
    <text x="330" y="540">100</text>
    <text x="560" y="540">1000</text>
    <text x="790" y="540">10000</text>
    <text x="445" y="560">ITERATIONS</text>
  </g>

  <g class="labels y-labels">
    <text x="795" y="23">100%</text>
    <text x="795" y="148">75%</text>
    <text x="795" y="273">50%</text>
    <text x="795" y="398">25%</text>
  </g>

  <!--CONTENT_START--><g>
    <text
      class="lib-label"
      x="92"
      y="23"
      fill="#e60049"
    >frpts</text>
    <polyline
      class="line-med"
      fill="none"
      stroke="#e60049" 
      points="100,20 330,20 560,183.36524705623418 790,260.35725576983873"
    ></polyline>
  </g><g>
    <text
      class="lib-label"
      x="92"
      y="94.87239058892875"
      fill="#0bb4ff"
    >s.js</text>
    <polyline
      class="line-med"
      fill="none"
      stroke="#0bb4ff" 
      points="100,91.87239058892875 330,91.83976972895178 560,112.97451932672479 790,20"
    ></polyline>
  </g><g>
    <text
      class="lib-label"
      x="92"
      y="140.8172889307873"
      fill="#50e991"
    >preact</text>
    <polyline
      class="line-med"
      fill="none"
      stroke="#50e991" 
      points="100,137.8172889307873 330,126.08448928121061 560,131.06166560712018 790,147.04359673024524"
    ></polyline>
  </g><g>
    <text
      class="lib-label"
      x="92"
      y="156.8172889307873"
      fill="#e6d800"
    >spred</text>
    <polyline
      class="line-med"
      fill="none"
      stroke="#e6d800" 
      points="100,151.2299035369775 330,119.42935915109157 560,20 790,147.04359673024524"
    ></polyline>
  </g><g>
    <text
      class="lib-label"
      x="92"
      y="193.79296734840332"
      fill="#9b19f5"
    >usignal</text>
    <polyline
      class="line-med"
      fill="none"
      stroke="#9b19f5" 
      points="100,190.79296734840332 330,111.46640510053949 560,131.06166560712018 790,287.93636440701914"
    ></polyline>
  </g><g>
    <text
      class="lib-label"
      x="92"
      y="252.67419790035197"
      fill="#ffa300"
    >mol</text>
    <polyline
      class="line-med"
      fill="none"
      stroke="#ffa300" 
      points="100,249.67419790035197 330,267.79993541094785 560,212.93314595462758 790,208.80257673361123"
    ></polyline>
  </g><g>
    <text
      class="lib-label"
      x="92"
      y="281.1842141767236"
      fill="#dc0ab4"
    >solid</text>
    <polyline
      class="line-med"
      fill="none"
      stroke="#dc0ab4" 
      points="100,278.1842141767236 330,283.6387711864407 560,250.67441450959674 790,243.55931062340113"
    ></polyline>
  </g><g>
    <text
      class="lib-label"
      x="92"
      y="331.7241326340275"
      fill="#b3d4ff"
    >cellx</text>
    <polyline
      class="line-med"
      fill="none"
      stroke="#b3d4ff" 
      points="100,328.7241326340275 330,298.3002129169624 560,354.09263477600604 790,342.67015028502334"
    ></polyline>
  </g><g>
    <text
      class="lib-label"
      x="92"
      y="347.7241326340275"
      fill="#00bfa0"
    >reatom</text>
    <polyline
      class="line-med"
      fill="none"
      stroke="#00bfa0" 
      points="100,341.40112901738604 330,338.07990216061967 560,391.5299651421612 790,394.68719482421875"
    ></polyline>
  </g><g>
    <text
      class="lib-label"
      x="92"
      y="363.7241326340275"
      fill="#e60049"
    >whatsup</text>
    <polyline
      class="line-med"
      fill="none"
      stroke="#e60049" 
      points="100,356.2068965517241 330,350.97276896229863 560,387.6502401246052 790,419.15641346791426"
    ></polyline>
  </g><g>
    <text
      class="lib-label"
      x="92"
      y="392.7784384617683"
      fill="#0bb4ff"
    >mobx</text>
    <polyline
      class="line-med"
      fill="none"
      stroke="#0bb4ff" 
      points="100,389.7784384617683 330,381.4407061589301 560,434.19595523267225 790,437.4108489712183"
    ></polyline>
  </g><g>
    <text
      class="lib-label"
      x="92"
      y="422.6482724478165"
      fill="#50e991"
    >wonka</text>
    <polyline
      class="line-med"
      fill="none"
      stroke="#50e991" 
      points="100,419.6482724478165 330,402.6936798227496 560,463.4455855572708 790,480.1083207849614"
    ></polyline>
  </g><g>
    <text
      class="lib-label"
      x="92"
      y="444.8865523437395"
      fill="#e6d800"
    >effector</text>
    <polyline
      class="line-med"
      fill="none"
      stroke="#e6d800" 
      points="100,441.8865523437395 330,272.58895511157755 560,418.08259341318364 790,451.39900095226955"
    ></polyline>
  </g><g>
    <text
      class="lib-label"
      x="92"
      y="466.97666832709336"
      fill="#9b19f5"
    >effector (fork)</text>
    <polyline
      class="line-med"
      fill="none"
      stroke="#9b19f5" 
      points="100,463.97666832709336 330,378.28191634152984 560,460.81454967592146 790,476.88727433080123"
    ></polyline>
  </g><!--CONTENT_END-->
</svg>