<svg id="bench-chart" viewBox="0 0 830 580" xmlns="http://www.w3.org/2000/svg">
  <style>
    #bench-chart .grid {
      stroke: #777777;
      stroke-width: 1;
    }

    #bench-chart .dashed {
      stroke: #777777;
      opacity: 0.3;
      stroke-width: 1;
      stroke-dasharray: 5, 5;
    }

    #bench-chart .labels {
      fill: #777777;
      font-size: 13px;
      font-family: sans-serif;
    }

    #bench-chart .x-labels {
      text-anchor: middle;
    }

    #bench-chart .y-labels {
      text-anchor: start;
    }

    #bench-chart .lib-label {
      font-size: 12px;
      font-family: sans-serif;
      text-anchor: end;
    }

    #bench-chart .line-med {
      stroke-width: 6;
      opacity: 0.6;
    }
  </style>

  <g class="grid">
    <line x1="100" y1="520" x2="830" y2="520"></line>
    <line x1="100" y1="520" x2="100" y2="0"></line>
  </g>

  <g class="dashed">
    <line x1="330" y1="520" x2="330" y2="0"></line>
    <line x1="560" y1="520" x2="560" y2="0"></line>
    <line x1="790" y1="520" x2="790" y2="0"></line>

    <line x1="100" y1="20" x2="790" y2="20"></line>
    <line x1="100" y1="145" x2="790" y2="145"></line>
    <line x1="100" y1="270" x2="790" y2="270"></line>
    <line x1="100" y1="395" x2="790" y2="395"></line>
  </g>

  <g class="labels x-labels">
    <text x="100" y="540">10</text>
    <text x="330" y="540">100</text>
    <text x="560" y="540">1000</text>
    <text x="790" y="540">10000</text>
    <text x="445" y="560">ITERATIONS</text>
  </g>

  <g class="labels y-labels">
    <text x="795" y="23">100%</text>
    <text x="795" y="148">75%</text>
    <text x="795" y="273">50%</text>
    <text x="795" y="398">25%</text>
  </g>

  <!--CONTENT_START--><g>
    <text
      class="lib-label"
      x="95"
      y="23"
      fill="#e60049"
    >frpts 1.0.0-beta.3</text>
    <polyline
      class="line-med"
      fill="none"
      stroke="#e60049" 
      points="100,20 330,33.07217064202732 560,162.08968616024114 790,203.30375325081687"
    ></polyline>
  </g><g>
    <text
      class="lib-label"
      x="95"
      y="71.71198449714304"
      fill="#0bb4ff"
    >spred 0.31.1</text>
    <polyline
      class="line-med"
      fill="none"
      stroke="#0bb4ff" 
      points="100,68.71198449714304 330,20 560,20 790,20"
    ></polyline>
  </g><g>
    <text
      class="lib-label"
      x="95"
      y="87.71198449714304"
      fill="#50e991"
    >s.js 0.4.9</text>
    <polyline
      class="line-med"
      fill="none"
      stroke="#50e991" 
      points="100,68.8323920791765 330,27.3900176657965 560,159.31943712393908 790,63.42239543276344"
    ></polyline>
  </g><g>
    <text
      class="lib-label"
      x="95"
      y="103.71198449714304"
      fill="#e6d800"
    >preact 1.2.2</text>
    <polyline
      class="line-med"
      fill="none"
      stroke="#e6d800" 
      points="100,87.7768534670875 330,56.420306597418794 560,189.03483353688347 790,187.86942921004993"
    ></polyline>
  </g><g>
    <text
      class="lib-label"
      x="95"
      y="141.30512711453366"
      fill="#9b19f5"
    >usignal 0.8.9</text>
    <polyline
      class="line-med"
      fill="none"
      stroke="#9b19f5" 
      points="100,138.30512711453366 330,113.81038062945201 560,148.0929128502011 790,219.83688967324454"
    ></polyline>
  </g><g>
    <text
      class="lib-label"
      x="95"
      y="204.87593540384412"
      fill="#ffa300"
    >solid 1.6.3</text>
    <polyline
      class="line-med"
      fill="none"
      stroke="#ffa300" 
      points="100,201.87593540384412 330,242.56300679055684 560,247.16668702343355 790,250.20459620435153"
    ></polyline>
  </g><g>
    <text
      class="lib-label"
      x="95"
      y="227.90697014345034"
      fill="#dc0ab4"
    >reatom-v1 1.1.5</text>
    <polyline
      class="line-med"
      fill="none"
      stroke="#dc0ab4" 
      points="100,224.90697014345034 330,175.09277107162538 560,314.7138287390268 790,315.55531640120535"
    ></polyline>
  </g><g>
    <text
      class="lib-label"
      x="95"
      y="282.2883742412774"
      fill="#b3d4ff"
    >reatom 3.1.16</text>
    <polyline
      class="line-med"
      fill="none"
      stroke="#b3d4ff" 
      points="100,279.2883742412774 330,308.24616988320986 560,349.1164383224803 790,349.7867794432666"
    ></polyline>
  </g><g>
    <text
      class="lib-label"
      x="95"
      y="298.2883742412774"
      fill="#00bfa0"
    >cellx 1.10.29</text>
    <polyline
      class="line-med"
      fill="none"
      stroke="#00bfa0" 
      points="100,285.3608445566039 330,306.03173875905316 560,379.97609903899155 790,305.0464442634023"
    ></polyline>
  </g><g>
    <text
      class="lib-label"
      x="95"
      y="314.2883742412774"
      fill="#e60049"
    >mol 1.0.394</text>
    <polyline
      class="line-med"
      fill="none"
      stroke="#e60049" 
      points="100,287.4724416016976 330,252.969420721372 560,231.455616257108 790,183.2807632053644"
    ></polyline>
  </g><g>
    <text
      class="lib-label"
      x="95"
      y="335.72333163943"
      fill="#0bb4ff"
    >whatsup 2.4.0</text>
    <polyline
      class="line-med"
      fill="none"
      stroke="#0bb4ff" 
      points="100,332.72333163943 330,353.28733665294027 560,393.0246315819391 790,396.84045377745593"
    ></polyline>
  </g><g>
    <text
      class="lib-label"
      x="95"
      y="388.2466860327731"
      fill="#50e991"
    >mobx 6.7.0</text>
    <polyline
      class="line-med"
      fill="none"
      stroke="#50e991" 
      points="100,385.2466860327731 330,377.854797516713 560,429.12646603375487 790,422.2782265643394"
    ></polyline>
  </g><g>
    <text
      class="lib-label"
      x="95"
      y="404.2466860327731"
      fill="#e6d800"
    >reatom-v2 2.0.22</text>
    <polyline
      class="line-med"
      fill="none"
      stroke="#e6d800" 
      points="100,397.6426120364885 330,403.43200557485477 560,465.1765200456572 790,467.5625807785872"
    ></polyline>
  </g><g>
    <text
      class="lib-label"
      x="95"
      y="443.8114599669016"
      fill="#9b19f5"
    >effector 22.4.0</text>
    <polyline
      class="line-med"
      fill="none"
      stroke="#9b19f5" 
      points="100,440.8114599669016 330,255.9809680192022 560,401.30726088628154 790,416.97629830363667"
    ></polyline>
  </g><g>
    <text
      class="lib-label"
      x="95"
      y="459.8114599669016"
      fill="#ffa300"
    >wonka 6.1.2</text>
    <polyline
      class="line-med"
      fill="none"
      stroke="#ffa300" 
      points="100,451.0951572973801 330,387.1178498923962 560,442.94980910350586 790,452.07814831744486"
    ></polyline>
  </g><g>
    <text
      class="lib-label"
      x="95"
      y="475.8114599669016"
      fill="#dc0ab4"
    >effector (fork) 22.4.0</text>
    <polyline
      class="line-med"
      fill="none"
      stroke="#dc0ab4" 
      points="100,465.57671552470003 330,388.00559327353574 560,455.8745620335954 790,458.6870095737851"
    ></polyline>
  </g><!--CONTENT_END-->
</svg>