<svg id="bench-chart" viewBox="0 0 830 580" xmlns="http://www.w3.org/2000/svg">
  <style>
    #bench-chart .grid {
      stroke: #777777;
      stroke-width: 1;
    }

    #bench-chart .dashed {
      stroke: #777777;
      opacity: 0.3;
      stroke-width: 1;
      stroke-dasharray: 5, 5;
    }

    #bench-chart .labels {
      fill: #777777;
      font-size: 13px;
      font-family: sans-serif;
    }

    #bench-chart .x-labels {
      text-anchor: middle;
    }

    #bench-chart .y-labels {
      text-anchor: start;
    }

    #bench-chart .lib-label {
      font-size: 12px;
      font-family: sans-serif;
      text-anchor: end;
    }

    #bench-chart .line-med {
      stroke-width: 6;
      opacity: 0.6;
    }
  </style>

  <g class="grid">
    <line x1="100" y1="520" x2="830" y2="520"></line>
    <line x1="100" y1="520" x2="100" y2="0"></line>
  </g>

  <g class="dashed">
    <line x1="330" y1="520" x2="330" y2="0"></line>
    <line x1="560" y1="520" x2="560" y2="0"></line>
    <line x1="790" y1="520" x2="790" y2="0"></line>

    <line x1="100" y1="20" x2="790" y2="20"></line>
    <line x1="100" y1="145" x2="790" y2="145"></line>
    <line x1="100" y1="270" x2="790" y2="270"></line>
    <line x1="100" y1="395" x2="790" y2="395"></line>
  </g>

  <g class="labels x-labels">
    <text x="100" y="540">10</text>
    <text x="330" y="540">100</text>
    <text x="560" y="540">1000</text>
    <text x="790" y="540">10000</text>
    <text x="445" y="560">ITERATIONS</text>
  </g>

  <g class="labels y-labels">
    <text x="795" y="23">100%</text>
    <text x="795" y="148">75%</text>
    <text x="795" y="273">50%</text>
    <text x="795" y="398">25%</text>
  </g>

  <!--CONTENT_START--><g>
    <text
      class="lib-label"
      x="95"
      y="23"
      fill="#e60049"
    >frpts 1.0.0-beta.3</text>
    <polyline
      class="line-med"
      fill="none"
      stroke="#e60049" 
      points="100,20 330,20 560,191.27125950309585 790,260.5272274548013"
    ></polyline>
  </g><g>
    <text
      class="lib-label"
      x="95"
      y="99.23611176039769"
      fill="#0bb4ff"
    >spred 0.31.1</text>
    <polyline
      class="line-med"
      fill="none"
      stroke="#0bb4ff" 
      points="100,96.23611176039769 330,110.26536013160718 560,20 790,113.2492060028608"
    ></polyline>
  </g><g>
    <text
      class="lib-label"
      x="95"
      y="129.25322159350875"
      fill="#50e991"
    >s.js 0.4.9</text>
    <polyline
      class="line-med"
      fill="none"
      stroke="#50e991" 
      points="100,126.25322159350875 330,112.5482479017497 560,139.0508628519528 790,20"
    ></polyline>
  </g><g>
    <text
      class="lib-label"
      x="95"
      y="167.41428294968955"
      fill="#e6d800"
    >usignal 0.8.9</text>
    <polyline
      class="line-med"
      fill="none"
      stroke="#e6d800" 
      points="100,164.41428294968955 330,112.51926496739776 560,161.83852098544043 790,276.3641776306236"
    ></polyline>
  </g><g>
    <text
      class="lib-label"
      x="95"
      y="183.41428294968955"
      fill="#9b19f5"
    >preact 1.2.2</text>
    <polyline
      class="line-med"
      fill="none"
      stroke="#9b19f5" 
      points="100,164.41428294968955 330,140.8035303852165 560,161.83852098544043 790,132.92797157622743"
    ></polyline>
  </g><g>
    <text
      class="lib-label"
      x="95"
      y="256.54484456080394"
      fill="#ffa300"
    >solid 1.6.2</text>
    <polyline
      class="line-med"
      fill="none"
      stroke="#ffa300" 
      points="100,253.54484456080394 330,283.9867702766111 560,240.90895480178995 790,239.2984657598421"
    ></polyline>
  </g><g>
    <text
      class="lib-label"
      x="95"
      y="297.61826114054224"
      fill="#dc0ab4"
    >reatom 3.1.5</text>
    <polyline
      class="line-med"
      fill="none"
      stroke="#dc0ab4" 
      points="100,294.61826114054224 330,317.38181932509735 560,353.334989022779 790,364.66012675515145"
    ></polyline>
  </g><g>
    <text
      class="lib-label"
      x="95"
      y="313.61826114054224"
      fill="#b3d4ff"
    >mol 1.0.370</text>
    <polyline
      class="line-med"
      fill="none"
      stroke="#b3d4ff" 
      points="100,305.3108682711786 330,276.98835529432284 560,250.31666934576432 790,197.88710761255638"
    ></polyline>
  </g><g>
    <text
      class="lib-label"
      x="95"
      y="329.61826114054224"
      fill="#00bfa0"
    >cellx 1.10.29</text>
    <polyline
      class="line-med"
      fill="none"
      stroke="#00bfa0" 
      points="100,306.72386614068245 330,301.15635054714625 560,348.56471357626043 790,313.98492085906895"
    ></polyline>
  </g><g>
    <text
      class="lib-label"
      x="95"
      y="354.00816429509786"
      fill="#e60049"
    >whatsup 2.4.0</text>
    <polyline
      class="line-med"
      fill="none"
      stroke="#e60049" 
      points="100,351.00816429509786 330,359.6678074576946 560,388.1359275954083 790,419.9997019764919"
    ></polyline>
  </g><g>
    <text
      class="lib-label"
      x="95"
      y="381.024871829677"
      fill="#0bb4ff"
    >mobx 6.7.0</text>
    <polyline
      class="line-med"
      fill="none"
      stroke="#0bb4ff" 
      points="100,378.024871829677 330,387.82485861222057 560,433.0446050026433 790,433.5133114933256"
    ></polyline>
  </g><g>
    <text
      class="lib-label"
      x="95"
      y="434.82800719273774"
      fill="#50e991"
    >wonka 6.1.1</text>
    <polyline
      class="line-med"
      fill="none"
      stroke="#50e991" 
      points="100,431.82800719273774 330,408.844571264716 560,464.44518030398353 790,480.5591967614686"
    ></polyline>
  </g><g>
    <text
      class="lib-label"
      x="95"
      y="450.82800719273774"
      fill="#e6d800"
    >effector 22.4.0</text>
    <polyline
      class="line-med"
      fill="none"
      stroke="#e6d800" 
      points="100,446.3782786927408 330,263.47702779353375 560,411.4004595915461 790,446.15289472641723"
    ></polyline>
  </g><g>
    <text
      class="lib-label"
      x="95"
      y="466.82800719273774"
      fill="#9b19f5"
    >effector (fork) 22.4.0</text>
    <polyline
      class="line-med"
      fill="none"
      stroke="#9b19f5" 
      points="100,459.5745407018936 330,389.46432685758845 560,463.9924686779125 790,479.5791494931206"
    ></polyline>
  </g><!--CONTENT_END-->
</svg>