<svg id="bench-chart" viewBox="0 0 830 580" xmlns="http://www.w3.org/2000/svg">
  <style>
    #bench-chart .grid {
      stroke: #777777;
      stroke-width: 1;
    }

    #bench-chart .dashed {
      stroke: #777777;
      opacity: 0.3;
      stroke-width: 1;
      stroke-dasharray: 5, 5;
    }

    #bench-chart .labels {
      fill: #777777;
      font-size: 13px;
      font-family: sans-serif;
    }

    #bench-chart .x-labels {
      text-anchor: middle;
    }

    #bench-chart .y-labels {
      text-anchor: start;
    }

    #bench-chart .lib-label {
      font-size: 12px;
      font-family: sans-serif;
      text-anchor: end;
    }

    #bench-chart .line-med {
      stroke-width: 6;
      opacity: 0.6;
    }
  </style>

  <g class="grid">
    <line x1="100" y1="520" x2="830" y2="520"></line>
    <line x1="100" y1="520" x2="100" y2="0"></line>
  </g>

  <g class="dashed">
    <line x1="330" y1="520" x2="330" y2="0"></line>
    <line x1="560" y1="520" x2="560" y2="0"></line>
    <line x1="790" y1="520" x2="790" y2="0"></line>

    <line x1="100" y1="20" x2="790" y2="20"></line>
    <line x1="100" y1="145" x2="790" y2="145"></line>
    <line x1="100" y1="270" x2="790" y2="270"></line>
    <line x1="100" y1="395" x2="790" y2="395"></line>
  </g>

  <g class="labels x-labels">
    <text x="100" y="540">10</text>
    <text x="330" y="540">100</text>
    <text x="560" y="540">1000</text>
    <text x="790" y="540">10000</text>
    <text x="445" y="560">ITERATIONS</text>
  </g>

  <g class="labels y-labels">
    <text x="795" y="23">100%</text>
    <text x="795" y="148">75%</text>
    <text x="795" y="273">50%</text>
    <text x="795" y="398">25%</text>
  </g>

  <!--CONTENT_START--><g>
    <text
      class="lib-label"
      x="95"
      y="23"
      fill="hsl(68, 90%, 45%)"
    >frpts 1.0.0-beta.3</text>
    <polyline
      class="line-med"
      fill="none"
      stroke="hsl(68, 90%, 45%)" 
      points="100,20 330,20 560,202.66817600830964 790,215.84397963284556"
    ></polyline>
  </g><g>
    <text
      class="lib-label"
      x="95"
      y="82.77168435382274"
      fill="hsl(270, 90%, 45%)"
    >spred 0.31.1</text>
    <polyline
      class="line-med"
      fill="none"
      stroke="hsl(270, 90%, 45%)" 
      points="100,79.77168435382274 330,108.13225355165416 560,20 790,82.93445089645233"
    ></polyline>
  </g><g>
    <text
      class="lib-label"
      x="95"
      y="138.26248615153952"
      fill="hsl(293, 90%, 45%)"
    >usignal 0.8.9</text>
    <polyline
      class="line-med"
      fill="none"
      stroke="hsl(293, 90%, 45%)" 
      points="100,135.26248615153952 330,130.65693621000207 560,151.3939542814207 790,249.35913755544473"
    ></polyline>
  </g><g>
    <text
      class="lib-label"
      x="95"
      y="154.26248615153952"
      fill="hsl(135, 90%, 45%)"
    >preact 1.2.2</text>
    <polyline
      class="line-med"
      fill="none"
      stroke="hsl(135, 90%, 45%)" 
      points="100,148.81068863902956 330,141.49109623024856 560,172.45572207084467 790,153.55277477933697"
    ></polyline>
  </g><g>
    <text
      class="lib-label"
      x="95"
      y="170.26248615153952"
      fill="hsl(225, 90%, 45%)"
    >s.js 0.4.9</text>
    <polyline
      class="line-med"
      fill="none"
      stroke="hsl(225, 90%, 45%)" 
      points="100,153.51057759558705 330,103.534399799166 560,147.6003270025255 790,20"
    ></polyline>
  </g><g>
    <text
      class="lib-label"
      x="95"
      y="205.62800134246444"
      fill="hsl(180, 90%, 45%)"
    >reatom-v1 1.1.5</text>
    <polyline
      class="line-med"
      fill="none"
      stroke="hsl(180, 90%, 45%)" 
      points="100,202.62800134246444 330,160.59945082436525 560,321.6572781451547 790,334.165322544311"
    ></polyline>
  </g><g>
    <text
      class="lib-label"
      x="95"
      y="257.55297327643916"
      fill="hsl(113, 90%, 45%)"
    >mol 1.0.394</text>
    <polyline
      class="line-med"
      fill="none"
      stroke="hsl(113, 90%, 45%)" 
      points="100,254.55297327643916 330,267.0258193973457 560,234.88884915002293 790,215.8428581962982"
    ></polyline>
  </g><g>
    <text
      class="lib-label"
      x="95"
      y="274.61199168656447"
      fill="hsl(248, 90%, 45%)"
    >solid 1.6.3</text>
    <polyline
      class="line-med"
      fill="none"
      stroke="hsl(248, 90%, 45%)" 
      points="100,271.61199168656447 330,285.29669290737377 560,261.19118154333137 790,223.51035459361543"
    ></polyline>
  </g><g>
    <text
      class="lib-label"
      x="95"
      y="296.8824818693703"
      fill="hsl(158, 90%, 45%)"
    >reatom 3.1.16</text>
    <polyline
      class="line-med"
      fill="none"
      stroke="hsl(158, 90%, 45%)" 
      points="100,293.8824818693703 330,314.62336432253136 560,371.0479588232031 790,366.7414193977485"
    ></polyline>
  </g><g>
    <text
      class="lib-label"
      x="95"
      y="346.84474221731506"
      fill="hsl(0, 90%, 45%)"
    >cellx 1.10.29</text>
    <polyline
      class="line-med"
      fill="none"
      stroke="hsl(0, 90%, 45%)" 
      points="100,343.84474221731506 330,296.5203473857862 560,358.5195688537847 790,310.7658320313293"
    ></polyline>
  </g><g>
    <text
      class="lib-label"
      x="95"
      y="362.84474221731506"
      fill="hsl(315, 90%, 45%)"
    >whatsup 2.4.0</text>
    <polyline
      class="line-med"
      fill="none"
      stroke="hsl(315, 90%, 45%)" 
      points="100,356.2772894739897 330,351.82640290154507 560,393.7334864451495 790,405.2027965410617"
    ></polyline>
  </g><g>
    <text
      class="lib-label"
      x="95"
      y="404.81581011797124"
      fill="hsl(203, 90%, 45%)"
    >reatom-v2 2.0.22</text>
    <polyline
      class="line-med"
      fill="none"
      stroke="hsl(203, 90%, 45%)" 
      points="100,401.81581011797124 330,380.40045868220363 560,462.25878773954855 790,467.12907482690616"
    ></polyline>
  </g><g>
    <text
      class="lib-label"
      x="95"
      y="420.81581011797124"
      fill="hsl(338, 90%, 45%)"
    >wonka 6.1.2</text>
    <polyline
      class="line-med"
      fill="none"
      stroke="hsl(338, 90%, 45%)" 
      points="100,406.66557882040195 330,401.15518161861655 560,463.8588247980928 790,470.0812680477999"
    ></polyline>
  </g><g>
    <text
      class="lib-label"
      x="95"
      y="436.81581011797124"
      fill="hsl(90, 90%, 45%)"
    >mobx 6.7.0</text>
    <polyline
      class="line-med"
      fill="none"
      stroke="hsl(90, 90%, 45%)" 
      points="100,409.7347108682638 330,384.3285291931836 560,438.4521744967945 790,421.16591476955165"
    ></polyline>
  </g><g>
    <text
      class="lib-label"
      x="95"
      y="452.81581011797124"
      fill="hsl(23, 90%, 45%)"
    >effector 22.4.0</text>
    <polyline
      class="line-med"
      fill="none"
      stroke="hsl(23, 90%, 45%)" 
      points="100,418.60262063338484 330,248.65723450462977 560,413.6118525314872 790,429.50423059919507"
    ></polyline>
  </g><g>
    <text
      class="lib-label"
      x="95"
      y="468.81581011797124"
      fill="hsl(45, 90%, 45%)"
    >effector.fork 22.4.0</text>
    <polyline
      class="line-med"
      fill="none"
      stroke="hsl(45, 90%, 45%)" 
      points="100,455.2869222540069 330,375.82555075802514 560,466.72669283022174 790,468.24214920548576"
    ></polyline>
  </g><!--CONTENT_END-->
</svg>