<svg id="bench-chart" viewBox="0 0 830 580" xmlns="http://www.w3.org/2000/svg">
  <style>
    #bench-chart .grid {
      stroke: #777777;
      stroke-width: 1;
    }

    #bench-chart .dashed {
      stroke: #777777;
      opacity: 0.3;
      stroke-width: 1;
      stroke-dasharray: 5, 5;
    }

    #bench-chart .labels {
      fill: #777777;
      font-size: 13px;
      font-family: sans-serif;
    }

    #bench-chart .x-labels {
      text-anchor: middle;
    }

    #bench-chart .y-labels {
      text-anchor: start;
    }

    #bench-chart .lib-label {
      font-size: 12px;
      font-family: sans-serif;
      text-anchor: end;
    }

    #bench-chart .line-med {
      stroke-width: 6;
      opacity: 0.6;
    }
  </style>

  <g class="grid">
    <line x1="100" y1="520" x2="830" y2="520"></line>
    <line x1="100" y1="520" x2="100" y2="0"></line>
  </g>

  <g class="dashed">
    <line x1="330" y1="520" x2="330" y2="0"></line>
    <line x1="560" y1="520" x2="560" y2="0"></line>
    <line x1="790" y1="520" x2="790" y2="0"></line>

    <line x1="100" y1="20" x2="790" y2="20"></line>
    <line x1="100" y1="145" x2="790" y2="145"></line>
    <line x1="100" y1="270" x2="790" y2="270"></line>
    <line x1="100" y1="395" x2="790" y2="395"></line>
  </g>

  <g class="labels x-labels">
    <text x="100" y="540">10</text>
    <text x="330" y="540">100</text>
    <text x="560" y="540">1000</text>
    <text x="790" y="540">10000</text>
    <text x="445" y="560">ITERATIONS</text>
  </g>

  <g class="labels y-labels">
    <text x="795" y="23">100%</text>
    <text x="795" y="148">75%</text>
    <text x="795" y="273">50%</text>
    <text x="795" y="398">25%</text>
  </g>

  <!--CONTENT_START--><g>
    <text
      class="lib-label"
      x="95"
      y="23"
      fill="hsl(225, 90%, 45%)"
    >s.js 0.4.9</text>
    <polyline
      class="line-med"
      fill="none"
      stroke="hsl(225, 90%, 45%)" 
      points="100,20 330,23.89009246560973 560,150.07565165601514 790,20"
    ></polyline>
  </g><g>
    <text
      class="lib-label"
      x="95"
      y="77.43454275408443"
      fill="hsl(270, 90%, 45%)"
    >spred 0.31.1</text>
    <polyline
      class="line-med"
      fill="none"
      stroke="hsl(270, 90%, 45%)" 
      points="100,74.43454275408443 330,31.313998816609217 560,20 790,78.82219264357369"
    ></polyline>
  </g><g>
    <text
      class="lib-label"
      x="95"
      y="93.43454275408443"
      fill="hsl(68, 90%, 45%)"
    >frpts 1.0.0-beta.3</text>
    <polyline
      class="line-med"
      fill="none"
      stroke="hsl(68, 90%, 45%)" 
      points="100,78.10489121142643 330,20 560,130.44772467968033 790,164.04817408887794"
    ></polyline>
  </g><g>
    <text
      class="lib-label"
      x="95"
      y="137.37703958468032"
      fill="hsl(135, 90%, 45%)"
    >preact 1.2.2</text>
    <polyline
      class="line-med"
      fill="none"
      stroke="hsl(135, 90%, 45%)" 
      points="100,134.37703958468032 330,76.47580623666721 560,184.955296512095 790,161.59233686564727"
    ></polyline>
  </g><g>
    <text
      class="lib-label"
      x="95"
      y="174.10299767811824"
      fill="hsl(293, 90%, 45%)"
    >usignal 0.8.9</text>
    <polyline
      class="line-med"
      fill="none"
      stroke="hsl(293, 90%, 45%)" 
      points="100,171.10299767811824 330,111.0073206388855 560,118.77125788007623 790,207.0644910215492"
    ></polyline>
  </g><g>
    <text
      class="lib-label"
      x="95"
      y="195.26687475614517"
      fill="hsl(180, 90%, 45%)"
    >reatom-v1 1.1.5</text>
    <polyline
      class="line-med"
      fill="none"
      stroke="hsl(180, 90%, 45%)" 
      points="100,192.26687475614517 330,154.25258480967938 560,307.6324008690929 790,301.3165805209936"
    ></polyline>
  </g><g>
    <text
      class="lib-label"
      x="95"
      y="267.9480547018478"
      fill="hsl(248, 90%, 45%)"
    >solid 1.6.6</text>
    <polyline
      class="line-med"
      fill="none"
      stroke="hsl(248, 90%, 45%)" 
      points="100,264.9480547018478 330,236.85334345020036 560,224.41735350303424 790,217.96257648394976"
    ></polyline>
  </g><g>
    <text
      class="lib-label"
      x="95"
      y="283.9480547018478"
      fill="hsl(113, 90%, 45%)"
    >mol 1.0.412</text>
    <polyline
      class="line-med"
      fill="none"
      stroke="hsl(113, 90%, 45%)" 
      points="100,278.2836580035194 330,247.4020700245663 560,221.3734970981975 790,145.69272296590094"
    ></polyline>
  </g><g>
    <text
      class="lib-label"
      x="95"
      y="314.30171202925817"
      fill="hsl(0, 90%, 45%)"
    >cellx 1.10.29</text>
    <polyline
      class="line-med"
      fill="none"
      stroke="hsl(0, 90%, 45%)" 
      points="100,311.30171202925817 330,288.29885875478953 560,355.01905502881334 790,280.07062146892656"
    ></polyline>
  </g><g>
    <text
      class="lib-label"
      x="95"
      y="330.30171202925817"
      fill="hsl(158, 90%, 45%)"
    >reatom 3.1.18</text>
    <polyline
      class="line-med"
      fill="none"
      stroke="hsl(158, 90%, 45%)" 
      points="100,313.226785153822 330,288.49930621000016 560,341.2331213831535 790,324.9125023327926"
    ></polyline>
  </g><g>
    <text
      class="lib-label"
      x="95"
      y="360.3577491841877"
      fill="hsl(315, 90%, 45%)"
    >whatsup 2.4.0</text>
    <polyline
      class="line-med"
      fill="none"
      stroke="hsl(315, 90%, 45%)" 
      points="100,357.3577491841877 330,343.90840763337656 560,378.80074874604384 790,382.61807712215324"
    ></polyline>
  </g><g>
    <text
      class="lib-label"
      x="95"
      y="396.83545348222435"
      fill="hsl(90, 90%, 45%)"
    >mobx 6.7.0</text>
    <polyline
      class="line-med"
      fill="none"
      stroke="hsl(90, 90%, 45%)" 
      points="100,393.83545348222435 330,374.3297832295774 560,423.2975793753326 790,409.8853607231641"
    ></polyline>
  </g><g>
    <text
      class="lib-label"
      x="95"
      y="419.4215676804579"
      fill="hsl(203, 90%, 45%)"
    >reatom-v2 2.0.22</text>
    <polyline
      class="line-med"
      fill="none"
      stroke="hsl(203, 90%, 45%)" 
      points="100,416.4215676804579 330,393.2487185057085 560,460.28148038539473 790,459.96418066586494"
    ></polyline>
  </g><g>
    <text
      class="lib-label"
      x="95"
      y="435.4215676804579"
      fill="hsl(338, 90%, 45%)"
    >wonka 6.1.2</text>
    <polyline
      class="line-med"
      fill="none"
      stroke="hsl(338, 90%, 45%)" 
      points="100,432.01394402696627 330,383.5900493790577 560,432.7688714248007 790,443.0327463109569"
    ></polyline>
  </g><g>
    <text
      class="lib-label"
      x="95"
      y="451.4215676804579"
      fill="hsl(23, 90%, 45%)"
    >effector 22.4.1</text>
    <polyline
      class="line-med"
      fill="none"
      stroke="hsl(23, 90%, 45%)" 
      points="100,441.0345720128579 330,224.08848089919312 560,385.46402521829435 790,405.00794560098024"
    ></polyline>
  </g><g>
    <text
      class="lib-label"
      x="95"
      y="467.4215676804579"
      fill="hsl(45, 90%, 45%)"
    >effector.fork 22.4.1</text>
    <polyline
      class="line-med"
      fill="none"
      stroke="hsl(45, 90%, 45%)" 
      points="100,464.20728284990673 330,369.7530908372239 560,449.9046981788844 790,450.7666129357654"
    ></polyline>
  </g><!--CONTENT_END-->
</svg>