<svg id="bench-chart" viewBox="0 0 830 580" xmlns="http://www.w3.org/2000/svg">
  <style>
    #bench-chart .grid {
      stroke: #777777;
      stroke-width: 1;
    }

    #bench-chart .dashed {
      stroke: #777777;
      opacity: 0.3;
      stroke-width: 1;
      stroke-dasharray: 5, 5;
    }

    #bench-chart .labels {
      fill: #777777;
      font-size: 13px;
      font-family: sans-serif;
    }

    #bench-chart .x-labels {
      text-anchor: middle;
    }

    #bench-chart .y-labels {
      text-anchor: start;
    }

    #bench-chart .lib-label {
      font-size: 13px;
      font-family: sans-serif;
      text-anchor: end;
    }

    #bench-chart .line-med {
      stroke-width: 6;
      opacity: 0.6;
    }
  </style>

  <g class="grid">
    <line x1="100" y1="520" x2="830" y2="520"></line>
    <line x1="100" y1="520" x2="100" y2="0"></line>
  </g>

  <g class="dashed">
    <line x1="330" y1="520" x2="330" y2="0"></line>
    <line x1="560" y1="520" x2="560" y2="0"></line>
    <line x1="790" y1="520" x2="790" y2="0"></line>

    <line x1="100" y1="20" x2="790" y2="20"></line>
    <line x1="100" y1="145" x2="790" y2="145"></line>
    <line x1="100" y1="270" x2="790" y2="270"></line>
    <line x1="100" y1="395" x2="790" y2="395"></line>
  </g>

  <g class="labels x-labels">
    <text x="100" y="540">10</text>
    <text x="330" y="540">100</text>
    <text x="560" y="540">1000</text>
    <text x="790" y="540">10000</text>
    <text x="445" y="560">ITERATIONS</text>
  </g>

  <g class="labels y-labels">
    <text x="795" y="23">100%</text>
    <text x="795" y="148">75%</text>
    <text x="795" y="273">50%</text>
    <text x="795" y="398">25%</text>
  </g>

  <!--CONTENT_START--><g>
    <text
      class="lib-label"
      x="92"
      y="23"
      fill="#e60049"
    >frpts</text>
    <polyline
      class="line-med"
      fill="none"
      stroke="#e60049" 
      points="100,20 330,20 560,172.1001755248738 790,270.07851694142687"
    ></polyline>
  </g><g>
    <text
      class="lib-label"
      x="92"
      y="141.83686130207695"
      fill="#0bb4ff"
    >spred</text>
    <polyline
      class="line-med"
      fill="none"
      stroke="#0bb4ff" 
      points="100,138.83686130207695 330,117.88668544779783 560,20 790,151.08820705329998"
    ></polyline>
  </g><g>
    <text
      class="lib-label"
      x="92"
      y="157.83686130207695"
      fill="#50e991"
    >s.js</text>
    <polyline
      class="line-med"
      fill="none"
      stroke="#50e991" 
      points="100,141.62399651327905 330,97.17862950793875 560,87.46610019985837 790,20"
    ></polyline>
  </g><g>
    <text
      class="lib-label"
      x="92"
      y="194.65583506997268"
      fill="#e6d800"
    >usignal</text>
    <polyline
      class="line-med"
      fill="none"
      stroke="#e6d800" 
      points="100,191.65583506997268 330,122.19335456348017 560,119.90991353487667 790,276.4610878996808"
    ></polyline>
  </g><g>
    <text
      class="lib-label"
      x="92"
      y="210.65583506997268"
      fill="#9b19f5"
    >preact</text>
    <polyline
      class="line-med"
      fill="none"
      stroke="#9b19f5" 
      points="100,203.1201994278408 330,128.50785030724762 560,104.32058824212501 790,132.38905763985807"
    ></polyline>
  </g><g>
    <text
      class="lib-label"
      x="92"
      y="300.13525192255287"
      fill="#ffa300"
    >solid</text>
    <polyline
      class="line-med"
      fill="none"
      stroke="#ffa300" 
      points="100,297.13525192255287 330,278.9804210744586 560,209.30568357974735 790,248.61263111642478"
    ></polyline>
  </g><g>
    <text
      class="lib-label"
      x="92"
      y="316.13525192255287"
      fill="#dc0ab4"
    >mol</text>
    <polyline
      class="line-med"
      fill="none"
      stroke="#dc0ab4" 
      points="100,299.061414814754 330,269.17608079348406 560,186.6247571576785 790,211.12152657639714"
    ></polyline>
  </g><g>
    <text
      class="lib-label"
      x="92"
      y="332.13525192255287"
      fill="#b3d4ff"
    >cellx</text>
    <polyline
      class="line-med"
      fill="none"
      stroke="#b3d4ff" 
      points="100,305.2217367948258 330,294.75783910010585 560,332.8418771913864 790,327.13905119460736"
    ></polyline>
  </g><g>
    <text
      class="lib-label"
      x="92"
      y="382.1080898558767"
      fill="#00bfa0"
    >reatom</text>
    <polyline
      class="line-med"
      fill="none"
      stroke="#00bfa0" 
      points="100,379.1080898558767 330,348.71736348087546 560,303.7683229010741 790,402.37459738183315"
    ></polyline>
  </g><g>
    <text
      class="lib-label"
      x="92"
      y="398.1080898558767"
      fill="#e60049"
    >whatsup</text>
    <polyline
      class="line-med"
      fill="none"
      stroke="#e60049" 
      points="100,381.13877721671616 330,352.78179014391173 560,378.3942841703467 790,419.22316263591574"
    ></polyline>
  </g><g>
    <text
      class="lib-label"
      x="92"
      y="414.1080898558767"
      fill="#0bb4ff"
    >mobx</text>
    <polyline
      class="line-med"
      fill="none"
      stroke="#0bb4ff" 
      points="100,401.0834396557914 330,378.5227533039798 560,428.69243042420794 790,440.1854089790147"
    ></polyline>
  </g><g>
    <text
      class="lib-label"
      x="92"
      y="443.4983411614169"
      fill="#50e991"
    >wonka</text>
    <polyline
      class="line-med"
      fill="none"
      stroke="#50e991" 
      points="100,440.4983411614169 330,401.1372852886409 560,458.6895881969077 790,479.711325208358"
    ></polyline>
  </g><g>
    <text
      class="lib-label"
      x="92"
      y="459.4983411614169"
      fill="#e6d800"
    >effector</text>
    <polyline
      class="line-med"
      fill="none"
      stroke="#e6d800" 
      points="100,451.5573374430339 330,265.73181597527326 560,410.02052366058535 790,454.04155251495933"
    ></polyline>
  </g><g>
    <text
      class="lib-label"
      x="92"
      y="475.4983411614169"
      fill="#9b19f5"
    >effector (fork)</text>
    <polyline
      class="line-med"
      fill="none"
      stroke="#9b19f5" 
      points="100,466.87976409209034 330,372.90320768825654 560,453.8754321680037 790,478.47862372292167"
    ></polyline>
  </g><!--CONTENT_END-->
</svg>