<svg id="bench-chart" viewBox="0 0 830 580" xmlns="http://www.w3.org/2000/svg">
  <style>
    #bench-chart .grid {
      stroke: #777777;
      stroke-width: 1;
    }

    #bench-chart .dashed {
      stroke: #777777;
      opacity: 0.3;
      stroke-width: 1;
      stroke-dasharray: 5, 5;
    }

    #bench-chart .labels {
      fill: #777777;
      font-size: 13px;
      font-family: sans-serif;
    }

    #bench-chart .x-labels {
      text-anchor: middle;
    }

    #bench-chart .y-labels {
      text-anchor: start;
    }

    #bench-chart .lib-label {
      font-size: 12px;
      font-family: sans-serif;
      text-anchor: end;
    }

    #bench-chart .line-med {
      stroke-width: 6;
      opacity: 0.6;
    }
  </style>

  <g class="grid">
    <line x1="100" y1="520" x2="830" y2="520"></line>
    <line x1="100" y1="520" x2="100" y2="0"></line>
  </g>

  <g class="dashed">
    <line x1="330" y1="520" x2="330" y2="0"></line>
    <line x1="560" y1="520" x2="560" y2="0"></line>
    <line x1="790" y1="520" x2="790" y2="0"></line>

    <line x1="100" y1="20" x2="790" y2="20"></line>
    <line x1="100" y1="145" x2="790" y2="145"></line>
    <line x1="100" y1="270" x2="790" y2="270"></line>
    <line x1="100" y1="395" x2="790" y2="395"></line>
  </g>

  <g class="labels x-labels">
    <text x="100" y="540">10</text>
    <text x="330" y="540">100</text>
    <text x="560" y="540">1000</text>
    <text x="790" y="540">10000</text>
    <text x="445" y="560">ITERATIONS</text>
  </g>

  <g class="labels y-labels">
    <text x="795" y="23">100%</text>
    <text x="795" y="148">75%</text>
    <text x="795" y="273">50%</text>
    <text x="795" y="398">25%</text>
  </g>

  <!--CONTENT_START--><g>
    <text
      class="lib-label"
      x="95"
      y="23"
      fill="#e60049"
    >frpts 1.0.0-beta.3</text>
    <polyline
      class="line-med"
      fill="none"
      stroke="#e60049" 
      points="100,20 330,20 560,175.9966774853486 790,238.4879476470782"
    ></polyline>
  </g><g>
    <text
      class="lib-label"
      x="95"
      y="93.1937107639798"
      fill="#0bb4ff"
    >spred 0.31.1</text>
    <polyline
      class="line-med"
      fill="none"
      stroke="#0bb4ff" 
      points="100,90.1937107639798 330,126.60957574124419 560,20 790,66.45156163077169"
    ></polyline>
  </g><g>
    <text
      class="lib-label"
      x="95"
      y="154.99626722494574"
      fill="#50e991"
    >s.js 0.4.9</text>
    <polyline
      class="line-med"
      fill="none"
      stroke="#50e991" 
      points="100,151.99626722494574 330,111.93283183294282 560,129.89394362266256 790,20"
    ></polyline>
  </g><g>
    <text
      class="lib-label"
      x="95"
      y="184.75063977947008"
      fill="#e6d800"
    >preact 1.2.2</text>
    <polyline
      class="line-med"
      fill="none"
      stroke="#e6d800" 
      points="100,181.75063977947008 330,153.0545000221785 560,134.62973333907723 790,131.23978201634878"
    ></polyline>
  </g><g>
    <text
      class="lib-label"
      x="95"
      y="201.853664939699"
      fill="#9b19f5"
    >usignal 0.8.9</text>
    <polyline
      class="line-med"
      fill="none"
      stroke="#9b19f5" 
      points="100,198.853664939699 330,118.84710037460148 560,147.9673281985594 790,244.78701173444782"
    ></polyline>
  </g><g>
    <text
      class="lib-label"
      x="95"
      y="305.6456664932164"
      fill="#ffa300"
    >reatom 3.1.3</text>
    <polyline
      class="line-med"
      fill="none"
      stroke="#ffa300" 
      points="100,302.6456664932164 330,329.6453903429127 560,376.54354882163517 790,364.0099492515284"
    ></polyline>
  </g><g>
    <text
      class="lib-label"
      x="95"
      y="324.97525888313135"
      fill="#dc0ab4"
    >mol 1.0.370</text>
    <polyline
      class="line-med"
      fill="none"
      stroke="#dc0ab4" 
      points="100,321.97525888313135 330,276.84252037936983 560,258.8588209879787 790,210.0110445220981"
    ></polyline>
  </g><g>
    <text
      class="lib-label"
      x="95"
      y="340.97525888313135"
      fill="#b3d4ff"
    >solid 1.6.2</text>
    <polyline
      class="line-med"
      fill="none"
      stroke="#b3d4ff" 
      points="100,325.1237869206886 330,289.102395024341 560,268.1106042687391 790,224.88666724123073"
    ></polyline>
  </g><g>
    <text
      class="lib-label"
      x="95"
      y="356.97525888313135"
      fill="#00bfa0"
    >cellx 1.10.29</text>
    <polyline
      class="line-med"
      fill="none"
      stroke="#00bfa0" 
      points="100,326.65783943578833 330,306.77505063718 560,334.00841636034 790,308.8512055250663"
    ></polyline>
  </g><g>
    <text
      class="lib-label"
      x="95"
      y="379.4925045279283"
      fill="#e60049"
    >mobx 6.7.0</text>
    <polyline
      class="line-med"
      fill="none"
      stroke="#e60049" 
      points="100,376.4925045279283 330,386.90857266967157 560,435.1416266671726 790,431.58061084313704"
    ></polyline>
  </g><g>
    <text
      class="lib-label"
      x="95"
      y="395.4925045279283"
      fill="#0bb4ff"
    >whatsup 2.4.0</text>
    <polyline
      class="line-med"
      fill="none"
      stroke="#0bb4ff" 
      points="100,378.2744002061773 330,354.6841745907509 560,386.1515580439837 790,401.1029281555016"
    ></polyline>
  </g><g>
    <text
      class="lib-label"
      x="95"
      y="434.373277285826"
      fill="#50e991"
    >wonka 6.1.1</text>
    <polyline
      class="line-med"
      fill="none"
      stroke="#50e991" 
      points="100,431.373277285826 330,410.5945029717985 560,460.31268849116327 790,472.6256371092258"
    ></polyline>
  </g><g>
    <text
      class="lib-label"
      x="95"
      y="454.86695522890227"
      fill="#e6d800"
    >effector 22.4.0</text>
    <polyline
      class="line-med"
      fill="none"
      stroke="#e6d800" 
      points="100,451.86695522890227 330,256.54325902335455 560,402.8131345285723 790,434.35945917555784"
    ></polyline>
  </g><g>
    <text
      class="lib-label"
      x="95"
      y="475.25686873526223"
      fill="#9b19f5"
    >effector (fork) 22.4.0</text>
    <polyline
      class="line-med"
      fill="none"
      stroke="#9b19f5" 
      points="100,472.25686873526223 330,381.994542090271 560,462.09517891357257 790,471.5988137878784"
    ></polyline>
  </g><!--CONTENT_END-->
</svg>