<svg id="bench-chart" viewBox="0 0 830 580" xmlns="http://www.w3.org/2000/svg">
  <style>
    #bench-chart .grid {
      stroke: #777777;
      stroke-width: 1;
    }

    #bench-chart .dashed {
      stroke: #777777;
      opacity: 0.3;
      stroke-width: 1;
      stroke-dasharray: 5, 5;
    }

    #bench-chart .labels {
      fill: #777777;
      font-size: 13px;
      font-family: sans-serif;
    }

    #bench-chart .x-labels {
      text-anchor: middle;
    }

    #bench-chart .y-labels {
      text-anchor: start;
    }

    #bench-chart .lib-label {
      font-size: 13px;
      font-family: sans-serif;
      text-anchor: end;
    }

    #bench-chart .line-med {
      stroke-width: 6;
      opacity: 0.6;
    }
  </style>

  <g class="grid">
    <line x1="100" y1="520" x2="830" y2="520"></line>
    <line x1="100" y1="520" x2="100" y2="0"></line>
  </g>

  <g class="dashed">
    <line x1="330" y1="520" x2="330" y2="0"></line>
    <line x1="560" y1="520" x2="560" y2="0"></line>
    <line x1="790" y1="520" x2="790" y2="0"></line>

    <line x1="100" y1="20" x2="790" y2="20"></line>
    <line x1="100" y1="145" x2="790" y2="145"></line>
    <line x1="100" y1="270" x2="790" y2="270"></line>
    <line x1="100" y1="395" x2="790" y2="395"></line>
  </g>

  <g class="labels x-labels">
    <text x="100" y="540">10</text>
    <text x="330" y="540">100</text>
    <text x="560" y="540">1000</text>
    <text x="790" y="540">10000</text>
    <text x="445" y="560">ITERATIONS</text>
  </g>

  <g class="labels y-labels">
    <text x="795" y="23">100%</text>
    <text x="795" y="148">75%</text>
    <text x="795" y="273">50%</text>
    <text x="795" y="398">25%</text>
  </g>

  <!--CONTENT_START--><g>
    <text
      class="lib-label"
      x="92"
      y="23"
      fill="#e60049"
    >frpts</text>
    <polyline
      class="line-med"
      fill="none"
      stroke="#e60049" 
      points="100,20 330,20 560,221.68586558249257 790,255.64169770543063"
    ></polyline>
  </g><g>
    <text
      class="lib-label"
      x="92"
      y="101.94801451488559"
      fill="#0bb4ff"
    >s.js</text>
    <polyline
      class="line-med"
      fill="none"
      stroke="#0bb4ff" 
      points="100,98.94801451488559 330,114.37558428161569 560,154.3223891157718 790,20"
    ></polyline>
  </g><g>
    <text
      class="lib-label"
      x="92"
      y="165.73691227631608"
      fill="#50e991"
    >preact</text>
    <polyline
      class="line-med"
      fill="none"
      stroke="#50e991" 
      points="100,162.73691227631608 330,145.00116415302747 560,184.97320645299945 790,142.42768323652183"
    ></polyline>
  </g><g>
    <text
      class="lib-label"
      x="92"
      y="181.73691227631608"
      fill="#e6d800"
    >spred</text>
    <polyline
      class="line-med"
      fill="none"
      stroke="#e6d800" 
      points="100,171.52188372480518 330,120.00079472935491 560,20 790,84.65292385359695"
    ></polyline>
  </g><g>
    <text
      class="lib-label"
      x="92"
      y="239.05485397403223"
      fill="#9b19f5"
    >usignal</text>
    <polyline
      class="line-med"
      fill="none"
      stroke="#9b19f5" 
      points="100,236.05485397403223 330,138.054778251854 560,172.95032189311104 790,253.77137917549962"
    ></polyline>
  </g><g>
    <text
      class="lib-label"
      x="92"
      y="262.74754311312904"
      fill="#ffa300"
    >solid</text>
    <polyline
      class="line-med"
      fill="none"
      stroke="#ffa300" 
      points="100,259.74754311312904 330,289.23138643879344 560,283.8344583687235 790,253.72479594882512"
    ></polyline>
  </g><g>
    <text
      class="lib-label"
      x="92"
      y="319.46060761428674"
      fill="#dc0ab4"
    >mol</text>
    <polyline
      class="line-med"
      fill="none"
      stroke="#dc0ab4" 
      points="100,316.46060761428674 330,274.27011905314066 560,264.27053919591236 790,198.14554706112878"
    ></polyline>
  </g><g>
    <text
      class="lib-label"
      x="92"
      y="335.46060761428674"
      fill="#b3d4ff"
    >reatom</text>
    <polyline
      class="line-med"
      fill="none"
      stroke="#b3d4ff" 
      points="100,321.72473593666183 330,329.27000487895 560,333.6509274047364 790,374.0115710664088"
    ></polyline>
  </g><g>
    <text
      class="lib-label"
      x="92"
      y="351.46060761428674"
      fill="#00bfa0"
    >cellx</text>
    <polyline
      class="line-med"
      fill="none"
      stroke="#00bfa0" 
      points="100,326.72808400882644 330,304.4293039775313 560,359.196906130414 790,328.25659174711404"
    ></polyline>
  </g><g>
    <text
      class="lib-label"
      x="92"
      y="380.2556990514621"
      fill="#e60049"
    >whatsup</text>
    <polyline
      class="line-med"
      fill="none"
      stroke="#e60049" 
      points="100,377.2556990514621 330,358.01784550523377 560,396.7829561828152 790,413.0354481198873"
    ></polyline>
  </g><g>
    <text
      class="lib-label"
      x="92"
      y="396.2556990514621"
      fill="#0bb4ff"
    >mobx</text>
    <polyline
      class="line-med"
      fill="none"
      stroke="#0bb4ff" 
      points="100,389.7832010557237 330,386.29866468675226 560,442.26912393878507 790,437.3897979809269"
    ></polyline>
  </g><g>
    <text
      class="lib-label"
      x="92"
      y="434.9621641156637"
      fill="#50e991"
    >wonka</text>
    <polyline
      class="line-med"
      fill="none"
      stroke="#50e991" 
      points="100,431.9621641156637 330,408.45957805159117 560,468.6288678395201 790,477.75334439422045"
    ></polyline>
  </g><g>
    <text
      class="lib-label"
      x="92"
      y="450.9621641156637"
      fill="#e6d800"
    >effector</text>
    <polyline
      class="line-med"
      fill="none"
      stroke="#e6d800" 
      points="100,442.9178465161853 330,265.58013633020516 560,425.2716095747468 790,445.68670961070296"
    ></polyline>
  </g><g>
    <text
      class="lib-label"
      x="92"
      y="468.6437655108149"
      fill="#9b19f5"
    >effector (fork)</text>
    <polyline
      class="line-med"
      fill="none"
      stroke="#9b19f5" 
      points="100,465.6437655108149 330,389.20734163333935 560,468.86059911179757 790,476.71574741692365"
    ></polyline>
  </g><!--CONTENT_END-->
</svg>