<svg id="bench-chart" viewBox="0 0 830 580" xmlns="http://www.w3.org/2000/svg">
  <style>
    #bench-chart .grid {
      stroke: #777777;
      stroke-width: 1;
    }

    #bench-chart .dashed {
      stroke: #777777;
      opacity: 0.3;
      stroke-width: 1;
      stroke-dasharray: 5, 5;
    }

    #bench-chart .labels {
      fill: #777777;
      font-size: 13px;
      font-family: sans-serif;
    }

    #bench-chart .x-labels {
      text-anchor: middle;
    }

    #bench-chart .y-labels {
      text-anchor: start;
    }

    #bench-chart .lib-label {
      font-size: 13px;
      font-family: sans-serif;
      text-anchor: end;
    }

    #bench-chart .line-med {
      stroke-width: 6;
      opacity: 0.6;
    }
  </style>

  <g class="grid">
    <line x1="100" y1="520" x2="830" y2="520"></line>
    <line x1="100" y1="520" x2="100" y2="0"></line>
  </g>

  <g class="dashed">
    <line x1="330" y1="520" x2="330" y2="0"></line>
    <line x1="560" y1="520" x2="560" y2="0"></line>
    <line x1="790" y1="520" x2="790" y2="0"></line>

    <line x1="100" y1="20" x2="790" y2="20"></line>
    <line x1="100" y1="145" x2="790" y2="145"></line>
    <line x1="100" y1="270" x2="790" y2="270"></line>
    <line x1="100" y1="395" x2="790" y2="395"></line>
  </g>

  <g class="labels x-labels">
    <text x="100" y="540">10</text>
    <text x="330" y="540">100</text>
    <text x="560" y="540">1000</text>
    <text x="790" y="540">10000</text>
    <text x="445" y="560">ITERATIONS</text>
  </g>

  <g class="labels y-labels">
    <text x="795" y="23">100%</text>
    <text x="795" y="148">75%</text>
    <text x="795" y="273">50%</text>
    <text x="795" y="398">25%</text>
  </g>

  <!--CONTENT_START--><g>
    <text
      class="lib-label"
      x="92"
      y="23"
      fill="#e60049"
    >frpts</text>
    <polyline
      class="line-med"
      fill="none"
      stroke="#e60049" 
      points="100,20 330,20 560,172.17410083377385 790,283.938191689288"
    ></polyline>
  </g><g>
    <text
      class="lib-label"
      x="92"
      y="83.95511590439412"
      fill="#0bb4ff"
    >s.js</text>
    <polyline
      class="line-med"
      fill="none"
      stroke="#0bb4ff" 
      points="100,80.95511590439412 330,100.70395573010725 560,106.2068611149363 790,20"
    ></polyline>
  </g><g>
    <text
      class="lib-label"
      x="92"
      y="182.9306518819566"
      fill="#50e991"
    >spred</text>
    <polyline
      class="line-med"
      fill="none"
      stroke="#50e991" 
      points="100,179.9306518819566 330,128.44446126409107 560,20 790,161.41749872618126"
    ></polyline>
  </g><g>
    <text
      class="lib-label"
      x="92"
      y="198.9306518819566"
      fill="#e6d800"
    >usignal</text>
    <polyline
      class="line-med"
      fill="none"
      stroke="#e6d800" 
      points="100,193.17012761118832 330,128.44446126409107 560,106.2068611149363 790,291.0379746835443"
    ></polyline>
  </g><g>
    <text
      class="lib-label"
      x="92"
      y="215.5071441900515"
      fill="#9b19f5"
    >preact</text>
    <polyline
      class="line-med"
      fill="none"
      stroke="#9b19f5" 
      points="100,212.5071441900515 330,140.4921693248811 560,115.46957429429986 790,136.12140543918622"
    ></polyline>
  </g><g>
    <text
      class="lib-label"
      x="92"
      y="285.45242909157946"
      fill="#ffa300"
    >solid</text>
    <polyline
      class="line-med"
      fill="none"
      stroke="#ffa300" 
      points="100,282.45242909157946 330,285.44184907726367 560,249.33984015272202 790,248.52705098532113"
    ></polyline>
  </g><g>
    <text
      class="lib-label"
      x="92"
      y="317.0518047751065"
      fill="#dc0ab4"
    >mol</text>
    <polyline
      class="line-med"
      fill="none"
      stroke="#dc0ab4" 
      points="100,314.0518047751065 330,268.2856825718791 560,229.64017716396322 790,220.7178805485069"
    ></polyline>
  </g><g>
    <text
      class="lib-label"
      x="92"
      y="345.97437457325776"
      fill="#b3d4ff"
    >cellx</text>
    <polyline
      class="line-med"
      fill="none"
      stroke="#b3d4ff" 
      points="100,342.97437457325776 330,305.49554403371656 560,336.32285334493827 790,332.8027706042553"
    ></polyline>
  </g><g>
    <text
      class="lib-label"
      x="92"
      y="365.97400227400755"
      fill="#00bfa0"
    >reatom</text>
    <polyline
      class="line-med"
      fill="none"
      stroke="#00bfa0" 
      points="100,362.97400227400755 330,352.0029762545063 560,316.6102122986638 790,403.7796891973141"
    ></polyline>
  </g><g>
    <text
      class="lib-label"
      x="92"
      y="385.64989490397335"
      fill="#e60049"
    >whatsup</text>
    <polyline
      class="line-med"
      fill="none"
      stroke="#e60049" 
      points="100,382.64989490397335 330,355.1818240649937 560,377.14290782708406 790,424.51630757812575"
    ></polyline>
  </g><g>
    <text
      class="lib-label"
      x="92"
      y="401.64989490397335"
      fill="#0bb4ff"
    >mobx</text>
    <polyline
      class="line-med"
      fill="none"
      stroke="#0bb4ff" 
      points="100,387.6933829332739 330,381.67678510044266 560,429.99913050844697 790,442.4419895026973"
    ></polyline>
  </g><g>
    <text
      class="lib-label"
      x="92"
      y="437.23908066350566"
      fill="#50e991"
    >wonka</text>
    <polyline
      class="line-med"
      fill="none"
      stroke="#50e991" 
      points="100,434.23908066350566 330,405.354661599149 560,451.8182126057051 790,482.4838198741811"
    ></polyline>
  </g><g>
    <text
      class="lib-label"
      x="92"
      y="453.23908066350566"
      fill="#e6d800"
    >effector</text>
    <polyline
      class="line-med"
      fill="none"
      stroke="#e6d800" 
      points="100,448.8320435015312 330,278.5545846191184 560,407.15021451529185 790,454.8111705043965"
    ></polyline>
  </g><g>
    <text
      class="lib-label"
      x="92"
      y="470.87466518517266"
      fill="#9b19f5"
    >effector (fork)</text>
    <polyline
      class="line-med"
      fill="none"
      stroke="#9b19f5" 
      points="100,467.87466518517266 330,377.27176477079917 560,448.9941277091012 790,479.99541479624173"
    ></polyline>
  </g><!--CONTENT_END-->
</svg>