<svg id="bench-chart" viewBox="0 0 830 580" xmlns="http://www.w3.org/2000/svg">
  <style>
    #bench-chart .grid {
      stroke: #777777;
      stroke-width: 1;
    }

    #bench-chart .dashed {
      stroke: #777777;
      opacity: 0.3;
      stroke-width: 1;
      stroke-dasharray: 5, 5;
    }

    #bench-chart .labels {
      fill: #777777;
      font-size: 13px;
      font-family: sans-serif;
    }

    #bench-chart .x-labels {
      text-anchor: middle;
    }

    #bench-chart .y-labels {
      text-anchor: start;
    }

    #bench-chart .lib-label {
      font-size: 12px;
      font-family: sans-serif;
      text-anchor: end;
    }

    #bench-chart .line-med {
      stroke-width: 6;
      opacity: 0.6;
    }
  </style>

  <g class="grid">
    <line x1="100" y1="520" x2="830" y2="520"></line>
    <line x1="100" y1="520" x2="100" y2="0"></line>
  </g>

  <g class="dashed">
    <line x1="330" y1="520" x2="330" y2="0"></line>
    <line x1="560" y1="520" x2="560" y2="0"></line>
    <line x1="790" y1="520" x2="790" y2="0"></line>

    <line x1="100" y1="20" x2="790" y2="20"></line>
    <line x1="100" y1="145" x2="790" y2="145"></line>
    <line x1="100" y1="270" x2="790" y2="270"></line>
    <line x1="100" y1="395" x2="790" y2="395"></line>
  </g>

  <g class="labels x-labels">
    <text x="100" y="540">10</text>
    <text x="330" y="540">100</text>
    <text x="560" y="540">1000</text>
    <text x="790" y="540">10000</text>
    <text x="445" y="560">ITERATIONS</text>
  </g>

  <g class="labels y-labels">
    <text x="795" y="23">100%</text>
    <text x="795" y="148">75%</text>
    <text x="795" y="273">50%</text>
    <text x="795" y="398">25%</text>
  </g>

  <!--CONTENT_START--><g>
    <text
      class="lib-label"
      x="95"
      y="23"
      fill="hsl(68, 90%, 45%)"
    >frpts 1.0.0-beta.3</text>
    <polyline
      class="line-med"
      fill="none"
      stroke="hsl(68, 90%, 45%)" 
      points="100,20 330,20 560,170.0011920940324 790,225.15442174375525"
    ></polyline>
  </g><g>
    <text
      class="lib-label"
      x="95"
      y="90.81758313248886"
      fill="hsl(270, 90%, 45%)"
    >spred 0.31.1</text>
    <polyline
      class="line-med"
      fill="none"
      stroke="hsl(270, 90%, 45%)" 
      points="100,87.81758313248886 330,106.67410898867112 560,20 790,81.94141689373295"
    ></polyline>
  </g><g>
    <text
      class="lib-label"
      x="95"
      y="106.81758313248886"
      fill="hsl(225, 90%, 45%)"
    >s.js 0.4.9</text>
    <polyline
      class="line-med"
      fill="none"
      stroke="hsl(225, 90%, 45%)" 
      points="100,90.06906992146844 330,105.52507468194098 560,149.44888514934794 790,20"
    ></polyline>
  </g><g>
    <text
      class="lib-label"
      x="95"
      y="157.0000998780521"
      fill="hsl(293, 90%, 45%)"
    >usignal 0.8.9</text>
    <polyline
      class="line-med"
      fill="none"
      stroke="hsl(293, 90%, 45%)" 
      points="100,154.0000998780521 330,132.48069032219297 560,126.27070230256541 790,244.5622601425439"
    ></polyline>
  </g><g>
    <text
      class="lib-label"
      x="95"
      y="177.98059999544424"
      fill="hsl(135, 90%, 45%)"
    >preact 1.2.2</text>
    <polyline
      class="line-med"
      fill="none"
      stroke="hsl(135, 90%, 45%)" 
      points="100,174.98059999544424 330,126.04991812985331 560,153.79040238152658 790,136.70004529957322"
    ></polyline>
  </g><g>
    <text
      class="lib-label"
      x="95"
      y="222.0664579177561"
      fill="hsl(180, 90%, 45%)"
    >reatom-v1 1.1.5</text>
    <polyline
      class="line-med"
      fill="none"
      stroke="hsl(180, 90%, 45%)" 
      points="100,219.0664579177561 330,149.53849346568114 560,319.34344665447117 790,338.908103754643"
    ></polyline>
  </g><g>
    <text
      class="lib-label"
      x="95"
      y="287.83051943951915"
      fill="hsl(248, 90%, 45%)"
    >solid 1.6.6</text>
    <polyline
      class="line-med"
      fill="none"
      stroke="hsl(248, 90%, 45%)" 
      points="100,284.83051943951915 330,282.45841650033265 560,281.3641905401817 790,241.2370007846129"
    ></polyline>
  </g><g>
    <text
      class="lib-label"
      x="95"
      y="303.83051943951915"
      fill="hsl(158, 90%, 45%)"
    >reatom 3.1.18</text>
    <polyline
      class="line-med"
      fill="none"
      stroke="hsl(158, 90%, 45%)" 
      points="100,293.9837091036426 330,305.9195648449546 560,361.6966211358735 790,361.39546928759046"
    ></polyline>
  </g><g>
    <text
      class="lib-label"
      x="95"
      y="319.83051943951915"
      fill="hsl(0, 90%, 45%)"
    >cellx 1.10.29</text>
    <polyline
      class="line-med"
      fill="none"
      stroke="hsl(0, 90%, 45%)" 
      points="100,294.292668388635 330,300.3236900223045 560,342.0347202017263 790,309.97303913163466"
    ></polyline>
  </g><g>
    <text
      class="lib-label"
      x="95"
      y="335.83051943951915"
      fill="hsl(113, 90%, 45%)"
    >mol 1.0.412</text>
    <polyline
      class="line-med"
      fill="none"
      stroke="hsl(113, 90%, 45%)" 
      points="100,326.08303033406736 330,280.4625557258164 560,269.02121693935817 790,193.78710711604407"
    ></polyline>
  </g><g>
    <text
      class="lib-label"
      x="95"
      y="360.9794804577996"
      fill="hsl(315, 90%, 45%)"
    >whatsup 2.4.0</text>
    <polyline
      class="line-med"
      fill="none"
      stroke="hsl(315, 90%, 45%)" 
      points="100,357.9794804577996 330,354.87146281151456 560,388.75044703526214 790,400.8370517514861"
    ></polyline>
  </g><g>
    <text
      class="lib-label"
      x="95"
      y="380.5786164507646"
      fill="hsl(203, 90%, 45%)"
    >reatom-v2 2.0.22</text>
    <polyline
      class="line-med"
      fill="none"
      stroke="hsl(203, 90%, 45%)" 
      points="100,377.5786164507646 330,379.8001211726823 560,457.25074482681975 790,470.2744466701231"
    ></polyline>
  </g><g>
    <text
      class="lib-label"
      x="95"
      y="396.5786164507646"
      fill="hsl(90, 90%, 45%)"
    >mobx 6.7.0</text>
    <polyline
      class="line-med"
      fill="none"
      stroke="hsl(90, 90%, 45%)" 
      points="100,388.416998524305 330,381.5623552416292 560,435.8873417516022 790,426.12760876261046"
    ></polyline>
  </g><g>
    <text
      class="lib-label"
      x="95"
      y="435.5849345532616"
      fill="hsl(338, 90%, 45%)"
    >wonka 6.1.2</text>
    <polyline
      class="line-med"
      fill="none"
      stroke="hsl(338, 90%, 45%)" 
      points="100,432.5849345532616 330,403.8295449263236 560,458.1161684858977 790,473.25615744927063"
    ></polyline>
  </g><g>
    <text
      class="lib-label"
      x="95"
      y="451.5849345532616"
      fill="hsl(23, 90%, 45%)"
    >effector 22.4.1</text>
    <polyline
      class="line-med"
      fill="none"
      stroke="hsl(23, 90%, 45%)" 
      points="100,444.48728281913435 330,239.0450561603546 560,397.4401010757386 790,434.5050407286621"
    ></polyline>
  </g><g>
    <text
      class="lib-label"
      x="95"
      y="468.26629072077924"
      fill="hsl(45, 90%, 45%)"
    >effector.fork 22.4.1</text>
    <polyline
      class="line-med"
      fill="none"
      stroke="hsl(45, 90%, 45%)" 
      points="100,465.26629072077924 330,375.9914373053442 560,457.0641812448688 790,472.6311001536928"
    ></polyline>
  </g><!--CONTENT_END-->
</svg>