<svg id="bench-chart" viewBox="0 0 830 580" xmlns="http://www.w3.org/2000/svg">
  <style>
    #bench-chart .grid {
      stroke: #777777;
      stroke-width: 1;
    }

    #bench-chart .dashed {
      stroke: #777777;
      opacity: 0.3;
      stroke-width: 1;
      stroke-dasharray: 5, 5;
    }

    #bench-chart .labels {
      fill: #777777;
      font-size: 13px;
      font-family: sans-serif;
    }

    #bench-chart .x-labels {
      text-anchor: middle;
    }

    #bench-chart .y-labels {
      text-anchor: start;
    }

    #bench-chart .lib-label {
      font-size: 12px;
      font-family: sans-serif;
      text-anchor: end;
    }

    #bench-chart .line-med {
      stroke-width: 6;
      opacity: 0.6;
    }
  </style>

  <g class="grid">
    <line x1="100" y1="520" x2="830" y2="520"></line>
    <line x1="100" y1="520" x2="100" y2="0"></line>
  </g>

  <g class="dashed">
    <line x1="330" y1="520" x2="330" y2="0"></line>
    <line x1="560" y1="520" x2="560" y2="0"></line>
    <line x1="790" y1="520" x2="790" y2="0"></line>

    <line x1="100" y1="20" x2="790" y2="20"></line>
    <line x1="100" y1="145" x2="790" y2="145"></line>
    <line x1="100" y1="270" x2="790" y2="270"></line>
    <line x1="100" y1="395" x2="790" y2="395"></line>
  </g>

  <g class="labels x-labels">
    <text x="100" y="540">10</text>
    <text x="330" y="540">100</text>
    <text x="560" y="540">1000</text>
    <text x="790" y="540">10000</text>
    <text x="445" y="560">ITERATIONS</text>
  </g>

  <g class="labels y-labels">
    <text x="795" y="23">100%</text>
    <text x="795" y="148">75%</text>
    <text x="795" y="273">50%</text>
    <text x="795" y="398">25%</text>
  </g>

  <!--CONTENT_START--><g>
    <text
      class="lib-label"
      x="95"
      y="23"
      fill="#e60049"
    >frpts 1.0.0-beta.3</text>
    <polyline
      class="line-med"
      fill="none"
      stroke="#e60049" 
      points="100,20 330,20 560,174.73028365305785 790,266.36095919225914"
    ></polyline>
  </g><g>
    <text
      class="lib-label"
      x="95"
      y="97.88766042737527"
      fill="#0bb4ff"
    >s.js 0.4.9</text>
    <polyline
      class="line-med"
      fill="none"
      stroke="#0bb4ff" 
      points="100,94.88766042737527 330,89.13934577032049 560,123.66634043514267 790,20"
    ></polyline>
  </g><g>
    <text
      class="lib-label"
      x="95"
      y="113.88766042737527"
      fill="#50e991"
    >spred 0.31.1</text>
    <polyline
      class="line-med"
      fill="none"
      stroke="#50e991" 
      points="100,96.09361400341702 330,94.60219428903581 560,20 790,72.01367216525487"
    ></polyline>
  </g><g>
    <text
      class="lib-label"
      x="95"
      y="144.89827194571433"
      fill="#e6d800"
    >preact 1.2.2</text>
    <polyline
      class="line-med"
      fill="none"
      stroke="#e6d800" 
      points="100,141.89827194571433 330,117.55636513610116 560,181.5448905461442 790,160.61754887935146"
    ></polyline>
  </g><g>
    <text
      class="lib-label"
      x="95"
      y="160.89827194571433"
      fill="#9b19f5"
    >reatom-v1 1.1.5</text>
    <polyline
      class="line-med"
      fill="none"
      stroke="#9b19f5" 
      points="100,143.7912685243463 330,141.45605017295446 560,320.500217897948 790,338.41455334016024"
    ></polyline>
  </g><g>
    <text
      class="lib-label"
      x="95"
      y="176.89827194571433"
      fill="#ffa300"
    >usignal 0.8.9</text>
    <polyline
      class="line-med"
      fill="none"
      stroke="#ffa300" 
      points="100,151.15673734993828 330,124.71593018937986 560,142.2644758556361 790,260.6212355876786"
    ></polyline>
  </g><g>
    <text
      class="lib-label"
      x="95"
      y="271.7677199954147"
      fill="#dc0ab4"
    >solid 1.6.3</text>
    <polyline
      class="line-med"
      fill="none"
      stroke="#dc0ab4" 
      points="100,268.7677199954147 330,277.6676324503311 560,261.97421947752787 790,256.63288485060286"
    ></polyline>
  </g><g>
    <text
      class="lib-label"
      x="95"
      y="287.7677199954147"
      fill="#b3d4ff"
    >cellx 1.10.29</text>
    <polyline
      class="line-med"
      fill="none"
      stroke="#b3d4ff" 
      points="100,275.6942741426077 330,287.3547643646189 560,364.5192634268078 790,318.2532458840851"
    ></polyline>
  </g><g>
    <text
      class="lib-label"
      x="95"
      y="303.7677199954147"
      fill="#00bfa0"
    >mol 1.0.394</text>
    <polyline
      class="line-med"
      fill="none"
      stroke="#00bfa0" 
      points="100,292.32196963138665 330,284.90252374164277 560,237.14485278315067 790,209.22680412371133"
    ></polyline>
  </g><g>
    <text
      class="lib-label"
      x="95"
      y="319.7677199954147"
      fill="#e60049"
    >reatom 3.1.16</text>
    <polyline
      class="line-med"
      fill="none"
      stroke="#e60049" 
      points="100,305.6386013530035 330,300.3219330994503 560,336.0359227032883 790,373.2018504991478"
    ></polyline>
  </g><g>
    <text
      class="lib-label"
      x="95"
      y="341.0333766916669"
      fill="#0bb4ff"
    >whatsup 2.4.0</text>
    <polyline
      class="line-med"
      fill="none"
      stroke="#0bb4ff" 
      points="100,338.0333766916669 330,352.2853705348191 560,391.67737139096414 790,413.5219525979301"
    ></polyline>
  </g><g>
    <text
      class="lib-label"
      x="95"
      y="386.1918435289222"
      fill="#50e991"
    >mobx 6.7.0</text>
    <polyline
      class="line-med"
      fill="none"
      stroke="#50e991" 
      points="100,383.1918435289222 330,379.24051545896043 560,427.38362478449034 790,438.4432660570315"
    ></polyline>
  </g><g>
    <text
      class="lib-label"
      x="95"
      y="402.1918435289222"
      fill="#e6d800"
    >reatom-v2 2.0.22</text>
    <polyline
      class="line-med"
      fill="none"
      stroke="#e6d800" 
      points="100,392.3561215674474 330,379.2354390815652 560,464.0342736255734 790,475.5727497144542"
    ></polyline>
  </g><g>
    <text
      class="lib-label"
      x="95"
      y="436.16119659248494"
      fill="#9b19f5"
    >wonka 6.1.2</text>
    <polyline
      class="line-med"
      fill="none"
      stroke="#9b19f5" 
      points="100,433.16119659248494 330,407.0121098084624 560,466.4940899065972 790,478.3356368863335"
    ></polyline>
  </g><g>
    <text
      class="lib-label"
      x="95"
      y="452.16119659248494"
      fill="#ffa300"
    >effector 22.4.0</text>
    <polyline
      class="line-med"
      fill="none"
      stroke="#ffa300" 
      points="100,448.9135394029818 330,245.39984053280804 560,417.88476272682306 790,444.84136778987"
    ></polyline>
  </g><g>
    <text
      class="lib-label"
      x="95"
      y="469.3306927217889"
      fill="#dc0ab4"
    >effector (fork) 22.4.0</text>
    <polyline
      class="line-med"
      fill="none"
      stroke="#dc0ab4" 
      points="100,466.3306927217889 330,381.7124298789489 560,465.3544255182221 790,478.1080893286455"
    ></polyline>
  </g><!--CONTENT_END-->
</svg>