<svg id="bench-chart" viewBox="0 0 830 580" xmlns="http://www.w3.org/2000/svg">
  <style>
    #bench-chart .grid {
      stroke: #777777;
      stroke-width: 1;
    }

    #bench-chart .dashed {
      stroke: #777777;
      opacity: 0.3;
      stroke-width: 1;
      stroke-dasharray: 5, 5;
    }

    #bench-chart .labels {
      fill: #777777;
      font-size: 13px;
      font-family: sans-serif;
    }

    #bench-chart .x-labels {
      text-anchor: middle;
    }

    #bench-chart .y-labels {
      text-anchor: start;
    }

    #bench-chart .lib-label {
      font-size: 12px;
      font-family: sans-serif;
      text-anchor: end;
    }

    #bench-chart .line-med {
      stroke-width: 6;
      opacity: 0.6;
    }
  </style>

  <g class="grid">
    <line x1="100" y1="520" x2="830" y2="520"></line>
    <line x1="100" y1="520" x2="100" y2="0"></line>
  </g>

  <g class="dashed">
    <line x1="330" y1="520" x2="330" y2="0"></line>
    <line x1="560" y1="520" x2="560" y2="0"></line>
    <line x1="790" y1="520" x2="790" y2="0"></line>

    <line x1="100" y1="20" x2="790" y2="20"></line>
    <line x1="100" y1="145" x2="790" y2="145"></line>
    <line x1="100" y1="270" x2="790" y2="270"></line>
    <line x1="100" y1="395" x2="790" y2="395"></line>
  </g>

  <g class="labels x-labels">
    <text x="100" y="540">10</text>
    <text x="330" y="540">100</text>
    <text x="560" y="540">1000</text>
    <text x="790" y="540">10000</text>
    <text x="445" y="560">ITERATIONS</text>
  </g>

  <g class="labels y-labels">
    <text x="795" y="23">100%</text>
    <text x="795" y="148">75%</text>
    <text x="795" y="273">50%</text>
    <text x="795" y="398">25%</text>
  </g>

  <!--CONTENT_START--><g>
    <text
      class="lib-label"
      x="95"
      y="23"
      fill="#e60049"
    >frpts 1.0.0-beta.3</text>
    <polyline
      class="line-med"
      fill="none"
      stroke="#e60049" 
      points="100,20 330,20 560,124.48790560225379 790,181.6172512147948"
    ></polyline>
  </g><g>
    <text
      class="lib-label"
      x="95"
      y="46.54074573804682"
      fill="#0bb4ff"
    >spred 0.31.1</text>
    <polyline
      class="line-med"
      fill="none"
      stroke="#0bb4ff" 
      points="100,43.54074573804682 330,30.38960097511571 560,20 790,20"
    ></polyline>
  </g><g>
    <text
      class="lib-label"
      x="95"
      y="62.54074573804682"
      fill="#50e991"
    >s.js 0.4.9</text>
    <polyline
      class="line-med"
      fill="none"
      stroke="#50e991" 
      points="100,58.447062365915166 330,45.10948611836555 560,163.93958636130594 790,50.37503568618438"
    ></polyline>
  </g><g>
    <text
      class="lib-label"
      x="95"
      y="143.2951380336798"
      fill="#e6d800"
    >preact 1.2.2</text>
    <polyline
      class="line-med"
      fill="none"
      stroke="#e6d800" 
      points="100,140.2951380336798 330,82.69401104776139 560,183.2834344388665 790,182.24256006410175"
    ></polyline>
  </g><g>
    <text
      class="lib-label"
      x="95"
      y="198.14146318555495"
      fill="#9b19f5"
    >usignal 0.8.9</text>
    <polyline
      class="line-med"
      fill="none"
      stroke="#9b19f5" 
      points="100,195.14146318555495 330,106.43963717618841 560,136.32640648758235 790,226.57021161811284"
    ></polyline>
  </g><g>
    <text
      class="lib-label"
      x="95"
      y="257.82023874788945"
      fill="#ffa300"
    >solid 1.6.2</text>
    <polyline
      class="line-med"
      fill="none"
      stroke="#ffa300" 
      points="100,254.82023874788948 330,242.58313801046165 560,242.18115837246228 790,241.6073028072797"
    ></polyline>
  </g><g>
    <text
      class="lib-label"
      x="95"
      y="277.1959910365258"
      fill="#dc0ab4"
    >mol 1.0.374</text>
    <polyline
      class="line-med"
      fill="none"
      stroke="#dc0ab4" 
      points="100,274.1959910365258 330,246.03528762754215 560,233.41496656328746 790,146.39525157459158"
    ></polyline>
  </g><g>
    <text
      class="lib-label"
      x="95"
      y="312.49466930787315"
      fill="#b3d4ff"
    >cellx 1.10.29</text>
    <polyline
      class="line-med"
      fill="none"
      stroke="#b3d4ff" 
      points="100,309.49466930787315 330,291.9326046765727 560,358.48800183661467 790,292.1093090048995"
    ></polyline>
  </g><g>
    <text
      class="lib-label"
      x="95"
      y="341.19673542428046"
      fill="#00bfa0"
    >reatom 3.1.6</text>
    <polyline
      class="line-med"
      fill="none"
      stroke="#00bfa0" 
      points="100,338.19673542428046 330,290.0680192706677 560,339.5777241454594 790,337.12364796893684"
    ></polyline>
  </g><g>
    <text
      class="lib-label"
      x="95"
      y="357.19673542428046"
      fill="#e60049"
    >whatsup 2.4.0</text>
    <polyline
      class="line-med"
      fill="none"
      stroke="#e60049" 
      points="100,350.3566123010415 330,344.687973129665 560,386.2239203197953 790,391.1541758823802"
    ></polyline>
  </g><g>
    <text
      class="lib-label"
      x="95"
      y="399.2943370886003"
      fill="#0bb4ff"
    >mobx 6.7.0</text>
    <polyline
      class="line-med"
      fill="none"
      stroke="#0bb4ff" 
      points="100,396.2943370886003 330,373.80782046620016 560,427.70892616353217 790,418.5363619062949"
    ></polyline>
  </g><g>
    <text
      class="lib-label"
      x="95"
      y="438.27214778271514"
      fill="#50e991"
    >wonka 6.1.1</text>
    <polyline
      class="line-med"
      fill="none"
      stroke="#50e991" 
      points="100,435.27214778271514 330,363.1656272842487 560,438.17786015607203 790,455.4529445824182"
    ></polyline>
  </g><g>
    <text
      class="lib-label"
      x="95"
      y="454.27214778271514"
      fill="#e6d800"
    >effector 22.4.0</text>
    <polyline
      class="line-med"
      fill="none"
      stroke="#e6d800" 
      points="100,439.2827097763644 330,243.12835872640053 560,389.47465561109243 790,414.3775732490161"
    ></polyline>
  </g><g>
    <text
      class="lib-label"
      x="95"
      y="470.27214778271514"
      fill="#9b19f5"
    >effector (fork) 22.4.0</text>
    <polyline
      class="line-med"
      fill="none"
      stroke="#9b19f5" 
      points="100,464.0366887789916 330,369.802787172962 560,450.4896507825502 790,457.771063799555"
    ></polyline>
  </g><!--CONTENT_END-->
</svg>