<svg id="bench-chart" viewBox="0 0 830 580" xmlns="http://www.w3.org/2000/svg">
  <style>
    #bench-chart .grid {
      stroke: #777777;
      stroke-width: 1;
    }

    #bench-chart .dashed {
      stroke: #777777;
      opacity: 0.3;
      stroke-width: 1;
      stroke-dasharray: 5, 5;
    }

    #bench-chart .labels {
      fill: #777777;
      font-size: 13px;
      font-family: sans-serif;
    }

    #bench-chart .x-labels {
      text-anchor: middle;
    }

    #bench-chart .y-labels {
      text-anchor: start;
    }

    #bench-chart .lib-label {
      font-size: 12px;
      font-family: sans-serif;
      text-anchor: end;
    }

    #bench-chart .line-med {
      stroke-width: 6;
      opacity: 0.6;
    }
  </style>

  <g class="grid">
    <line x1="100" y1="520" x2="830" y2="520"></line>
    <line x1="100" y1="520" x2="100" y2="0"></line>
  </g>

  <g class="dashed">
    <line x1="330" y1="520" x2="330" y2="0"></line>
    <line x1="560" y1="520" x2="560" y2="0"></line>
    <line x1="790" y1="520" x2="790" y2="0"></line>

    <line x1="100" y1="20" x2="790" y2="20"></line>
    <line x1="100" y1="145" x2="790" y2="145"></line>
    <line x1="100" y1="270" x2="790" y2="270"></line>
    <line x1="100" y1="395" x2="790" y2="395"></line>
  </g>

  <g class="labels x-labels">
    <text x="100" y="540">10</text>
    <text x="330" y="540">100</text>
    <text x="560" y="540">1000</text>
    <text x="790" y="540">10000</text>
    <text x="445" y="560">ITERATIONS</text>
  </g>

  <g class="labels y-labels">
    <text x="795" y="23">100%</text>
    <text x="795" y="148">75%</text>
    <text x="795" y="273">50%</text>
    <text x="795" y="398">25%</text>
  </g>

  <!--CONTENT_START--><g>
    <text
      class="lib-label"
      x="95"
      y="23"
      fill="#e60049"
    >s.js 0.4.9</text>
    <polyline
      class="line-med"
      fill="none"
      stroke="#e60049" 
      points="100,20 330,94.84725050916497 560,190.07785773268847 790,28.069056108087835"
    ></polyline>
  </g><g>
    <text
      class="lib-label"
      x="95"
      y="40.34161376953125"
      fill="#0bb4ff"
    >frpts 1.0.0-beta.3</text>
    <polyline
      class="line-med"
      fill="none"
      stroke="#0bb4ff" 
      points="100,37.34161376953125 330,20 560,164.36037639877924 790,236.99233509662096"
    ></polyline>
  </g><g>
    <text
      class="lib-label"
      x="95"
      y="92.07661707808838"
      fill="#50e991"
    >spred 0.31.1</text>
    <polyline
      class="line-med"
      fill="none"
      stroke="#50e991" 
      points="100,89.07661707808838 330,93.63430053493275 560,20 790,20"
    ></polyline>
  </g><g>
    <text
      class="lib-label"
      x="95"
      y="137.08528030256815"
      fill="#e6d800"
    >preact 1.2.2</text>
    <polyline
      class="line-med"
      fill="none"
      stroke="#e6d800" 
      points="100,134.08528030256815 330,119.7610968242616 560,183.062466116499 790,97.41597485290563"
    ></polyline>
  </g><g>
    <text
      class="lib-label"
      x="95"
      y="164.59783359960116"
      fill="#9b19f5"
    >usignal 0.8.9</text>
    <polyline
      class="line-med"
      fill="none"
      stroke="#9b19f5" 
      points="100,161.59783359960116 330,119.7550063911376 560,109.64859511407819 790,204.25173140620294"
    ></polyline>
  </g><g>
    <text
      class="lib-label"
      x="95"
      y="217.26348347187317"
      fill="#ffa300"
    >reatom-v1 1.1.5</text>
    <polyline
      class="line-med"
      fill="none"
      stroke="#ffa300" 
      points="100,214.26348347187317 330,156.45975867645228 560,323.02843560172556 790,317.27012605366946"
    ></polyline>
  </g><g>
    <text
      class="lib-label"
      x="95"
      y="266.64200732648237"
      fill="#dc0ab4"
    >solid 1.6.2</text>
    <polyline
      class="line-med"
      fill="none"
      stroke="#dc0ab4" 
      points="100,263.64200732648237 330,282.6063882596099 560,266.96914864742604 790,224.44488288846924"
    ></polyline>
  </g><g>
    <text
      class="lib-label"
      x="95"
      y="296.1874861072271"
      fill="#b3d4ff"
    >reatom 3.1.10</text>
    <polyline
      class="line-med"
      fill="none"
      stroke="#b3d4ff" 
      points="100,293.1874861072271 330,303.7587865334813 560,336.05774606202107 790,346.0826298243577"
    ></polyline>
  </g><g>
    <text
      class="lib-label"
      x="95"
      y="312.1874861072271"
      fill="#00bfa0"
    >cellx 1.10.29</text>
    <polyline
      class="line-med"
      fill="none"
      stroke="#00bfa0" 
      points="100,296.5521577270576 330,294.3514292577468 560,340.18516732568236 790,281.8982742960945"
    ></polyline>
  </g><g>
    <text
      class="lib-label"
      x="95"
      y="328.1874861072271"
      fill="#e60049"
    >mol 1.0.388</text>
    <polyline
      class="line-med"
      fill="none"
      stroke="#e60049" 
      points="100,303.7561612556998 330,277.64318885448915 560,265.98669421675254 790,171.11791322863988"
    ></polyline>
  </g><g>
    <text
      class="lib-label"
      x="95"
      y="349.4637143672233"
      fill="#0bb4ff"
    >whatsup 2.4.0</text>
    <polyline
      class="line-med"
      fill="none"
      stroke="#0bb4ff" 
      points="100,346.4637143672233 330,347.99380051793145 560,375.1694673882085 790,389.5576454197144"
    ></polyline>
  </g><g>
    <text
      class="lib-label"
      x="95"
      y="373.7842536028493"
      fill="#50e991"
    >reatom-v2 2.0.22</text>
    <polyline
      class="line-med"
      fill="none"
      stroke="#50e991" 
      points="100,370.7842536028493 330,378.5506856681904 560,451.5386215928424 790,467.55059371967627"
    ></polyline>
  </g><g>
    <text
      class="lib-label"
      x="95"
      y="389.7842536028493"
      fill="#e6d800"
    >mobx 6.7.0</text>
    <polyline
      class="line-med"
      fill="none"
      stroke="#e6d800" 
      points="100,382.8819010958524 330,378.54764286405725 560,433.6138996138996 790,424.1534130379145"
    ></polyline>
  </g><g>
    <text
      class="lib-label"
      x="95"
      y="431.58740571626737"
      fill="#9b19f5"
    >wonka 6.1.2</text>
    <polyline
      class="line-med"
      fill="none"
      stroke="#9b19f5" 
      points="100,428.58740571626737 330,391.3638053131969 560,445.82450370645415 790,468.1855555994782"
    ></polyline>
  </g><g>
    <text
      class="lib-label"
      x="95"
      y="447.58740571626737"
      fill="#ffa300"
    >effector 22.4.0</text>
    <polyline
      class="line-med"
      fill="none"
      stroke="#ffa300" 
      points="100,444.58473503389115 330,243.329616695418 560,384.6706586826347 790,428.2557569818717"
    ></polyline>
  </g><g>
    <text
      class="lib-label"
      x="95"
      y="469.8280743867364"
      fill="#dc0ab4"
    >effector (fork) 22.4.0</text>
    <polyline
      class="line-med"
      fill="none"
      stroke="#dc0ab4" 
      points="100,466.8280743867364 330,374.1626237143412 560,449.81102243638003 790,467.4601918008638"
    ></polyline>
  </g><!--CONTENT_END-->
</svg>