<svg id="bench-chart" viewBox="0 0 830 580" xmlns="http://www.w3.org/2000/svg">
  <style>
    #bench-chart .grid {
      stroke: #777777;
      stroke-width: 1;
    }

    #bench-chart .dashed {
      stroke: #777777;
      opacity: 0.3;
      stroke-width: 1;
      stroke-dasharray: 5, 5;
    }

    #bench-chart .labels {
      fill: #777777;
      font-size: 13px;
      font-family: sans-serif;
    }

    #bench-chart .x-labels {
      text-anchor: middle;
    }

    #bench-chart .y-labels {
      text-anchor: start;
    }

    #bench-chart .lib-label {
      font-size: 13px;
      font-family: sans-serif;
      text-anchor: end;
    }

    #bench-chart .line-med {
      stroke-width: 6;
      opacity: 0.6;
    }
  </style>

  <g class="grid">
    <line x1="100" y1="520" x2="830" y2="520"></line>
    <line x1="100" y1="520" x2="100" y2="0"></line>
  </g>

  <g class="dashed">
    <line x1="330" y1="520" x2="330" y2="0"></line>
    <line x1="560" y1="520" x2="560" y2="0"></line>
    <line x1="790" y1="520" x2="790" y2="0"></line>

    <line x1="100" y1="20" x2="790" y2="20"></line>
    <line x1="100" y1="145" x2="790" y2="145"></line>
    <line x1="100" y1="270" x2="790" y2="270"></line>
    <line x1="100" y1="395" x2="790" y2="395"></line>
  </g>

  <g class="labels x-labels">
    <text x="100" y="540">10</text>
    <text x="330" y="540">100</text>
    <text x="560" y="540">1000</text>
    <text x="790" y="540">10000</text>
    <text x="445" y="560">ITERATIONS</text>
  </g>

  <g class="labels y-labels">
    <text x="795" y="23">100%</text>
    <text x="795" y="148">75%</text>
    <text x="795" y="273">50%</text>
    <text x="795" y="398">25%</text>
  </g>

  <!--CONTENT_START--><g>
    <text
      class="lib-label"
      x="92"
      y="23"
      fill="#e60049"
    >s.js</text>
    <polyline
      class="line-med"
      fill="none"
      stroke="#e60049" 
      points="100,20 330,20 560,84.95766540611092 790,20"
    ></polyline>
  </g><g>
    <text
      class="lib-label"
      x="92"
      y="39"
      fill="#0bb4ff"
    >frpts</text>
    <polyline
      class="line-med"
      fill="none"
      stroke="#0bb4ff" 
      points="100,29.378625525138183 330,40.522334306694034 560,80.3702501251302 790,187.2312091156292"
    ></polyline>
  </g><g>
    <text
      class="lib-label"
      x="92"
      y="97.47882389147986"
      fill="#50e991"
    >spred</text>
    <polyline
      class="line-med"
      fill="none"
      stroke="#50e991" 
      points="100,94.47882389147986 330,76.47946858915182 560,20 790,127.2721780229397"
    ></polyline>
  </g><g>
    <text
      class="lib-label"
      x="92"
      y="113.47882389147986"
      fill="#e6d800"
    >preact</text>
    <polyline
      class="line-med"
      fill="none"
      stroke="#e6d800" 
      points="100,95.01905203432602 330,75.34931762576096 560,135.42461486365934 790,167.63447198740815"
    ></polyline>
  </g><g>
    <text
      class="lib-label"
      x="92"
      y="129.47882389147986"
      fill="#9b19f5"
    >usignal</text>
    <polyline
      class="line-med"
      fill="none"
      stroke="#9b19f5" 
      points="100,105.43830373274447 330,131.88911687509335 560,96.28875853347145 790,209.20867396930146"
    ></polyline>
  </g><g>
    <text
      class="lib-label"
      x="92"
      y="222.78474020507804"
      fill="#ffa300"
    >solid</text>
    <polyline
      class="line-med"
      fill="none"
      stroke="#ffa300" 
      points="100,219.78474020507804 330,247.01820701186148 560,201.09536068369746 790,219.8121175629437"
    ></polyline>
  </g><g>
    <text
      class="lib-label"
      x="92"
      y="276.2429079184491"
      fill="#dc0ab4"
    >mol</text>
    <polyline
      class="line-med"
      fill="none"
      stroke="#dc0ab4" 
      points="100,273.2429079184491 330,263.745483524573 560,183.3603664692435 790,137.69875911542465"
    ></polyline>
  </g><g>
    <text
      class="lib-label"
      x="92"
      y="292.2429079184491"
      fill="#b3d4ff"
    >cellx</text>
    <polyline
      class="line-med"
      fill="none"
      stroke="#b3d4ff" 
      points="100,288.04442205786506 330,302.9391878363316 560,332.80110826006444 790,292.40384724839623"
    ></polyline>
  </g><g>
    <text
      class="lib-label"
      x="92"
      y="351.30766818368136"
      fill="#00bfa0"
    >whatsup</text>
    <polyline
      class="line-med"
      fill="none"
      stroke="#00bfa0" 
      points="100,348.30766818368136 330,351.96625698514026 560,362.76977371746375 790,381.09317009457203"
    ></polyline>
  </g><g>
    <text
      class="lib-label"
      x="92"
      y="367.30766818368136"
      fill="#e60049"
    >reatom</text>
    <polyline
      class="line-med"
      fill="none"
      stroke="#e60049" 
      points="100,364.10503528236296 330,362.62970663192937 560,372.6369238754108 790,361.46196414348407"
    ></polyline>
  </g><g>
    <text
      class="lib-label"
      x="92"
      y="383.30766818368136"
      fill="#0bb4ff"
    >mobx</text>
    <polyline
      class="line-med"
      fill="none"
      stroke="#0bb4ff" 
      points="100,378.9365340128072 330,375.2335288309365 560,414.81206861952774 790,414.3738727078203"
    ></polyline>
  </g><g>
    <text
      class="lib-label"
      x="92"
      y="420.3824452026309"
      fill="#50e991"
    >wonka</text>
    <polyline
      class="line-med"
      fill="none"
      stroke="#50e991" 
      points="100,417.3824452026309 330,393.3649957417149 560,426.66422106474045 790,446.7796090490963"
    ></polyline>
  </g><g>
    <text
      class="lib-label"
      x="92"
      y="439.23297530727496"
      fill="#e6d800"
    >effector</text>
    <polyline
      class="line-med"
      fill="none"
      stroke="#e6d800" 
      points="100,436.23297530727496 330,276.4610743752533 560,374.4056645094902 790,411.94592050057156"
    ></polyline>
  </g><g>
    <text
      class="lib-label"
      x="92"
      y="455.82233814339634"
      fill="#9b19f5"
    >effector (fork)</text>
    <polyline
      class="line-med"
      fill="none"
      stroke="#9b19f5" 
      points="100,452.82233814339634 330,371.3670012324403 560,431.88944860068807 790,439.7919868484649"
    ></polyline>
  </g><!--CONTENT_END-->
</svg>