<svg id="bench-chart" viewBox="0 0 830 580" xmlns="http://www.w3.org/2000/svg">
  <style>
    #bench-chart .grid {
      stroke: #777777;
      stroke-width: 1;
    }

    #bench-chart .dashed {
      stroke: #777777;
      opacity: 0.3;
      stroke-width: 1;
      stroke-dasharray: 5, 5;
    }

    #bench-chart .labels {
      fill: #777777;
      font-size: 13px;
      font-family: sans-serif;
    }

    #bench-chart .x-labels {
      text-anchor: middle;
    }

    #bench-chart .y-labels {
      text-anchor: start;
    }

    #bench-chart .lib-label {
      font-size: 12px;
      font-family: sans-serif;
      text-anchor: end;
    }

    #bench-chart .line-med {
      stroke-width: 6;
      opacity: 0.6;
    }
  </style>

  <g class="grid">
    <line x1="100" y1="520" x2="830" y2="520"></line>
    <line x1="100" y1="520" x2="100" y2="0"></line>
  </g>

  <g class="dashed">
    <line x1="330" y1="520" x2="330" y2="0"></line>
    <line x1="560" y1="520" x2="560" y2="0"></line>
    <line x1="790" y1="520" x2="790" y2="0"></line>

    <line x1="100" y1="20" x2="790" y2="20"></line>
    <line x1="100" y1="145" x2="790" y2="145"></line>
    <line x1="100" y1="270" x2="790" y2="270"></line>
    <line x1="100" y1="395" x2="790" y2="395"></line>
  </g>

  <g class="labels x-labels">
    <text x="100" y="540">10</text>
    <text x="330" y="540">100</text>
    <text x="560" y="540">1000</text>
    <text x="790" y="540">10000</text>
    <text x="445" y="560">ITERATIONS</text>
  </g>

  <g class="labels y-labels">
    <text x="795" y="23">100%</text>
    <text x="795" y="148">75%</text>
    <text x="795" y="273">50%</text>
    <text x="795" y="398">25%</text>
  </g>

  <!--CONTENT_START--><g>
    <text
      class="lib-label"
      x="95"
      y="23"
      fill="hsl(160, 90%, 45%)"
    >nanostores 0.7.3</text>
    <polyline
      class="line-med"
      fill="none"
      stroke="hsl(160, 90%, 45%)" 
      points="100,20 330,20 560,20.65308418368648 790,20"
    ></polyline>
  </g><g>
    <text
      class="lib-label"
      x="95"
      y="193.10091493618756"
      fill="hsl(200, 90%, 45%)"
    >preact 1.2.3</text>
    <polyline
      class="line-med"
      fill="none"
      stroke="hsl(200, 90%, 45%)" 
      points="100,190.10091493618756 330,125.76601980910227 560,20 790,174.60020250308193"
    ></polyline>
  </g><g>
    <text
      class="lib-label"
      x="95"
      y="315.8411602519734"
      fill="hsl(120, 90%, 45%)"
    >mol 1.0.464</text>
    <polyline
      class="line-med"
      fill="none"
      stroke="hsl(120, 90%, 45%)" 
      points="100,312.8411602519734 330,286.1562719774737 560,75.64475362777765 790,170.3817427763483"
    ></polyline>
  </g><g>
    <text
      class="lib-label"
      x="95"
      y="331.8411602519734"
      fill="hsl(280, 90%, 45%)"
    >solid 1.6.10</text>
    <polyline
      class="line-med"
      fill="none"
      stroke="hsl(280, 90%, 45%)" 
      points="100,316.47161008709514 330,295.3581615809634 560,135.99712381150562 790,254.95374861702888"
    ></polyline>
  </g><g>
    <text
      class="lib-label"
      x="95"
      y="347.8411602519734"
      fill="hsl(240, 90%, 45%)"
    >reatom 3.1.19</text>
    <polyline
      class="line-med"
      fill="none"
      stroke="hsl(240, 90%, 45%)" 
      points="100,318.3808535213231 330,339.3576049920643 560,245.76850017621337 790,338.09522231303566"
    ></polyline>
  </g><g>
    <text
      class="lib-label"
      x="95"
      y="406.284967097843"
      fill="hsl(80, 90%, 45%)"
    >mobx 6.7.0</text>
    <polyline
      class="line-med"
      fill="none"
      stroke="hsl(80, 90%, 45%)" 
      points="100,403.284967097843 330,396.61314927873354 560,376.0505720571939 790,417.5414972961837"
    ></polyline>
  </g><g>
    <text
      class="lib-label"
      x="95"
      y="441.9984381090619"
      fill="hsl(320, 90%, 45%)"
    >wonka 6.1.2</text>
    <polyline
      class="line-med"
      fill="none"
      stroke="hsl(320, 90%, 45%)" 
      points="100,438.9984381090619 330,418.70801419961225 560,413.06834044937057 790,457.3478393144431"
    ></polyline>
  </g><g>
    <text
      class="lib-label"
      x="95"
      y="457.9984381090619"
      fill="hsl(0, 90%, 45%)"
    >effector 22.5.0</text>
    <polyline
      class="line-med"
      fill="none"
      stroke="hsl(0, 90%, 45%)" 
      points="100,441.2981403521072 330,326.6107515762493 560,339.069855054556 790,413.3892404327857"
    ></polyline>
  </g><g>
    <text
      class="lib-label"
      x="95"
      y="473.9984381090619"
      fill="hsl(40, 90%, 45%)"
    >effector.fork 22.5.0</text>
    <polyline
      class="line-med"
      fill="none"
      stroke="hsl(40, 90%, 45%)" 
      points="100,461.3501704050142 330,412.01102111196184 560,422.1389569222935 790,457.2946602274508"
    ></polyline>
  </g><!--CONTENT_END-->
</svg>