<svg id="bench-chart" viewBox="0 0 830 580" xmlns="http://www.w3.org/2000/svg">
  <style>
    #bench-chart .grid {
      stroke: #777777;
      stroke-width: 1;
    }

    #bench-chart .dashed {
      stroke: #777777;
      opacity: 0.3;
      stroke-width: 1;
      stroke-dasharray: 5, 5;
    }

    #bench-chart .labels {
      fill: #777777;
      font-size: 13px;
      font-family: sans-serif;
    }

    #bench-chart .x-labels {
      text-anchor: middle;
    }

    #bench-chart .y-labels {
      text-anchor: start;
    }

    #bench-chart .lib-label {
      font-size: 12px;
      font-family: sans-serif;
      text-anchor: end;
    }

    #bench-chart .line-med {
      stroke-width: 6;
      opacity: 0.6;
    }
  </style>

  <g class="grid">
    <line x1="100" y1="520" x2="830" y2="520"></line>
    <line x1="100" y1="520" x2="100" y2="0"></line>
  </g>

  <g class="dashed">
    <line x1="330" y1="520" x2="330" y2="0"></line>
    <line x1="560" y1="520" x2="560" y2="0"></line>
    <line x1="790" y1="520" x2="790" y2="0"></line>

    <line x1="100" y1="20" x2="790" y2="20"></line>
    <line x1="100" y1="145" x2="790" y2="145"></line>
    <line x1="100" y1="270" x2="790" y2="270"></line>
    <line x1="100" y1="395" x2="790" y2="395"></line>
  </g>

  <g class="labels x-labels">
    <text x="100" y="540">10</text>
    <text x="330" y="540">100</text>
    <text x="560" y="540">1000</text>
    <text x="790" y="540">10000</text>
    <text x="445" y="560">ITERATIONS</text>
  </g>

  <g class="labels y-labels">
    <text x="795" y="23">100%</text>
    <text x="795" y="148">75%</text>
    <text x="795" y="273">50%</text>
    <text x="795" y="398">25%</text>
  </g>

  <!--CONTENT_START--><g>
    <text
      class="lib-label"
      x="95"
      y="23"
      fill="hsl(160, 90%, 45%)"
    >nanostores 0.7.1</text>
    <polyline
      class="line-med"
      fill="none"
      stroke="hsl(160, 90%, 45%)" 
      points="100,20 330,20 560,20 790,20"
    ></polyline>
  </g><g>
    <text
      class="lib-label"
      x="95"
      y="180.4502340764834"
      fill="hsl(200, 90%, 45%)"
    >preact 1.2.3</text>
    <polyline
      class="line-med"
      fill="none"
      stroke="hsl(200, 90%, 45%)" 
      points="100,177.4502340764834 330,137.87993182901496 560,30.1446708893837 790,187.22122357899954"
    ></polyline>
  </g><g>
    <text
      class="lib-label"
      x="95"
      y="298.34789547667924"
      fill="hsl(280, 90%, 45%)"
    >solid 1.6.9</text>
    <polyline
      class="line-med"
      fill="none"
      stroke="hsl(280, 90%, 45%)" 
      points="100,295.34789547667924 330,297.1176532688458 560,144.86128361649946 790,251.54306035870798"
    ></polyline>
  </g><g>
    <text
      class="lib-label"
      x="95"
      y="331.4258607972286"
      fill="hsl(120, 90%, 45%)"
    >mol 1.0.460</text>
    <polyline
      class="line-med"
      fill="none"
      stroke="hsl(120, 90%, 45%)" 
      points="100,328.4258607972286 330,300.2125928857231 560,108.03112995940754 790,175.70561904395447"
    ></polyline>
  </g><g>
    <text
      class="lib-label"
      x="95"
      y="347.4258607972286"
      fill="hsl(240, 90%, 45%)"
    >reatom 3.1.19</text>
    <polyline
      class="line-med"
      fill="none"
      stroke="hsl(240, 90%, 45%)" 
      points="100,343.283152855517 330,344.4366222644608 560,248.40483279142737 790,332.90894543305353"
    ></polyline>
  </g><g>
    <text
      class="lib-label"
      x="95"
      y="414.0822874176341"
      fill="hsl(80, 90%, 45%)"
    >mobx 6.7.0</text>
    <polyline
      class="line-med"
      fill="none"
      stroke="hsl(80, 90%, 45%)" 
      points="100,411.0822874176341 330,402.6187366129126 560,381.0768643749629 790,416.21153304855903"
    ></polyline>
  </g><g>
    <text
      class="lib-label"
      x="95"
      y="449.41720814407455"
      fill="hsl(320, 90%, 45%)"
    >wonka 6.1.2</text>
    <polyline
      class="line-med"
      fill="none"
      stroke="hsl(320, 90%, 45%)" 
      points="100,446.41720814407455 330,421.411165298322 560,402.20946315592414 790,443.780351029026"
    ></polyline>
  </g><g>
    <text
      class="lib-label"
      x="95"
      y="465.41720814407455"
      fill="hsl(0, 90%, 45%)"
    >effector 22.5.0</text>
    <polyline
      class="line-med"
      fill="none"
      stroke="hsl(0, 90%, 45%)" 
      points="100,453.56662729258943 330,326.5316379325065 560,340.6896824314577 790,407.7033221804722"
    ></polyline>
  </g><g>
    <text
      class="lib-label"
      x="95"
      y="481.41720814407455"
      fill="hsl(40, 90%, 45%)"
    >effector.fork 22.5.0</text>
    <polyline
      class="line-med"
      fill="none"
      stroke="hsl(40, 90%, 45%)" 
      points="100,473.9567197815098 330,412.8495546989568 560,423.6199457440478 790,452.9083096561087"
    ></polyline>
  </g><!--CONTENT_END-->
</svg>