<svg id="bench-chart" viewBox="0 0 830 580" xmlns="http://www.w3.org/2000/svg">
  <style>
    #bench-chart .grid {
      stroke: #777777;
      stroke-width: 1;
    }

    #bench-chart .dashed {
      stroke: #777777;
      opacity: 0.3;
      stroke-width: 1;
      stroke-dasharray: 5, 5;
    }

    #bench-chart .labels {
      fill: #777777;
      font-size: 13px;
      font-family: sans-serif;
    }

    #bench-chart .x-labels {
      text-anchor: middle;
    }

    #bench-chart .y-labels {
      text-anchor: start;
    }

    #bench-chart .lib-label {
      font-size: 12px;
      font-family: sans-serif;
      text-anchor: end;
    }

    #bench-chart .line-med {
      stroke-width: 6;
      opacity: 0.6;
    }
  </style>

  <g class="grid">
    <line x1="100" y1="520" x2="830" y2="520"></line>
    <line x1="100" y1="520" x2="100" y2="0"></line>
  </g>

  <g class="dashed">
    <line x1="330" y1="520" x2="330" y2="0"></line>
    <line x1="560" y1="520" x2="560" y2="0"></line>
    <line x1="790" y1="520" x2="790" y2="0"></line>

    <line x1="100" y1="20" x2="790" y2="20"></line>
    <line x1="100" y1="145" x2="790" y2="145"></line>
    <line x1="100" y1="270" x2="790" y2="270"></line>
    <line x1="100" y1="395" x2="790" y2="395"></line>
  </g>

  <g class="labels x-labels">
    <text x="100" y="540">10</text>
    <text x="330" y="540">100</text>
    <text x="560" y="540">1000</text>
    <text x="790" y="540">10000</text>
    <text x="445" y="560">ITERATIONS</text>
  </g>

  <g class="labels y-labels">
    <text x="795" y="23">100%</text>
    <text x="795" y="148">75%</text>
    <text x="795" y="273">50%</text>
    <text x="795" y="398">25%</text>
  </g>

  <!--CONTENT_START--><g>
    <text
      class="lib-label"
      x="95"
      y="23"
      fill="hsl(160, 90%, 45%)"
    >nanostores 0.7.3</text>
    <polyline
      class="line-med"
      fill="none"
      stroke="hsl(160, 90%, 45%)" 
      points="100,20 330,20 560,55.83687479568487 790,20"
    ></polyline>
  </g><g>
    <text
      class="lib-label"
      x="95"
      y="232.85146853640873"
      fill="hsl(200, 90%, 45%)"
    >preact 1.2.3</text>
    <polyline
      class="line-med"
      fill="none"
      stroke="hsl(200, 90%, 45%)" 
      points="100,229.85146853640873 330,167.7420236387238 560,20 790,29.347455217514955"
    ></polyline>
  </g><g>
    <text
      class="lib-label"
      x="95"
      y="293.16648013430336"
      fill="hsl(280, 90%, 45%)"
    >solid 1.6.10</text>
    <polyline
      class="line-med"
      fill="none"
      stroke="hsl(280, 90%, 45%)" 
      points="100,290.16648013430336 330,297.34594291143065 560,188.38909324458456 790,186.69081075860737"
    ></polyline>
  </g><g>
    <text
      class="lib-label"
      x="95"
      y="323.40699793463733"
      fill="hsl(120, 90%, 45%)"
    >mol 1.0.468</text>
    <polyline
      class="line-med"
      fill="none"
      stroke="hsl(120, 90%, 45%)" 
      points="100,320.40699793463733 330,315.4698718711571 560,213.39775426473764 790,85.96239703200652"
    ></polyline>
  </g><g>
    <text
      class="lib-label"
      x="95"
      y="348.4348588369054"
      fill="hsl(240, 90%, 45%)"
    >reatom 3.1.23</text>
    <polyline
      class="line-med"
      fill="none"
      stroke="hsl(240, 90%, 45%)" 
      points="100,345.4348588369054 330,321.65416426235817 560,296.64385716532956 790,320.01448645516444"
    ></polyline>
  </g><g>
    <text
      class="lib-label"
      x="95"
      y="413.6938216077393"
      fill="hsl(80, 90%, 45%)"
    >mobx 6.7.0</text>
    <polyline
      class="line-med"
      fill="none"
      stroke="hsl(80, 90%, 45%)" 
      points="100,410.6938216077393 330,389.45843988150995 560,407.9318850016772 790,406.3421180461218"
    ></polyline>
  </g><g>
    <text
      class="lib-label"
      x="95"
      y="442.1697786437192"
      fill="hsl(320, 90%, 45%)"
    >wonka 6.1.2</text>
    <polyline
      class="line-med"
      fill="none"
      stroke="hsl(320, 90%, 45%)" 
      points="100,439.1697786437192 330,405.20027608932827 560,431.20786692514537 790,469.87800804565984"
    ></polyline>
  </g><g>
    <text
      class="lib-label"
      x="95"
      y="458.1697786437192"
      fill="hsl(0, 90%, 45%)"
    >effector 22.5.0</text>
    <polyline
      class="line-med"
      fill="none"
      stroke="hsl(0, 90%, 45%)" 
      points="100,442.47087083119004 330,273.63149847094803 560,349.8481080919141 790,428.88871289219765"
    ></polyline>
  </g><g>
    <text
      class="lib-label"
      x="95"
      y="474.1697786437192"
      fill="hsl(40, 90%, 45%)"
    >effector.fork 22.5.0</text>
    <polyline
      class="line-med"
      fill="none"
      stroke="hsl(40, 90%, 45%)" 
      points="100,469.3646111691586 330,390.88696348975816 560,434.5888474494707 790,470.8449470528332"
    ></polyline>
  </g><!--CONTENT_END-->
</svg>