<svg id="bench-chart" viewBox="0 0 830 580" xmlns="http://www.w3.org/2000/svg">
  <style>
    #bench-chart .grid {
      stroke: #777777;
      stroke-width: 1;
    }

    #bench-chart .dashed {
      stroke: #777777;
      opacity: 0.3;
      stroke-width: 1;
      stroke-dasharray: 5, 5;
    }

    #bench-chart .labels {
      fill: #777777;
      font-size: 13px;
      font-family: sans-serif;
    }

    #bench-chart .x-labels {
      text-anchor: middle;
    }

    #bench-chart .y-labels {
      text-anchor: start;
    }

    #bench-chart .lib-label {
      font-size: 12px;
      font-family: sans-serif;
      text-anchor: end;
    }

    #bench-chart .line-med {
      stroke-width: 6;
      opacity: 0.6;
    }
  </style>

  <g class="grid">
    <line x1="100" y1="520" x2="830" y2="520"></line>
    <line x1="100" y1="520" x2="100" y2="0"></line>
  </g>

  <g class="dashed">
    <line x1="330" y1="520" x2="330" y2="0"></line>
    <line x1="560" y1="520" x2="560" y2="0"></line>
    <line x1="790" y1="520" x2="790" y2="0"></line>

    <line x1="100" y1="20" x2="790" y2="20"></line>
    <line x1="100" y1="145" x2="790" y2="145"></line>
    <line x1="100" y1="270" x2="790" y2="270"></line>
    <line x1="100" y1="395" x2="790" y2="395"></line>
  </g>

  <g class="labels x-labels">
    <text x="100" y="540">10</text>
    <text x="330" y="540">100</text>
    <text x="560" y="540">1000</text>
    <text x="790" y="540">10000</text>
    <text x="445" y="560">ITERATIONS</text>
  </g>

  <g class="labels y-labels">
    <text x="795" y="23">100%</text>
    <text x="795" y="148">75%</text>
    <text x="795" y="273">50%</text>
    <text x="795" y="398">25%</text>
  </g>

  <!--CONTENT_START--><g>
    <text
      class="lib-label"
      x="95"
      y="23"
      fill="hsl(180, 90%, 45%)"
    >preact 1.2.3</text>
    <polyline
      class="line-med"
      fill="none"
      stroke="hsl(180, 90%, 45%)" 
      points="100,20 330,20 560,20 790,20"
    ></polyline>
  </g><g>
    <text
      class="lib-label"
      x="95"
      y="193.9514110717112"
      fill="hsl(135, 90%, 45%)"
    >mol 1.0.430</text>
    <polyline
      class="line-med"
      fill="none"
      stroke="hsl(135, 90%, 45%)" 
      points="100,190.9514110717112 330,201.96656723138403 560,143.08628531163924 790,80.77011839463825"
    ></polyline>
  </g><g>
    <text
      class="lib-label"
      x="95"
      y="217.42289897670366"
      fill="hsl(270, 90%, 45%)"
    >solid 1.6.8</text>
    <polyline
      class="line-med"
      fill="none"
      stroke="hsl(270, 90%, 45%)" 
      points="100,214.42289897670366 330,208.1020064582011 560,171.66942931565237 790,177.34826251017336"
    ></polyline>
  </g><g>
    <text
      class="lib-label"
      x="95"
      y="243.9641144163622"
      fill="hsl(225, 90%, 45%)"
    >reatom 3.1.18</text>
    <polyline
      class="line-med"
      fill="none"
      stroke="hsl(225, 90%, 45%)" 
      points="100,240.9641144163622 330,237.6208958704669 560,289.39356726674157 790,325.14845097681723"
    ></polyline>
  </g><g>
    <text
      class="lib-label"
      x="95"
      y="342.01797227595097"
      fill="hsl(90, 90%, 45%)"
    >mobx 6.7.0</text>
    <polyline
      class="line-med"
      fill="none"
      stroke="hsl(90, 90%, 45%)" 
      points="100,339.01797227595097 330,341.03568412162167 560,400.3294803565981 790,401.61034136032856"
    ></polyline>
  </g><g>
    <text
      class="lib-label"
      x="95"
      y="393.0094933228366"
      fill="hsl(315, 90%, 45%)"
    >wonka 6.1.2</text>
    <polyline
      class="line-med"
      fill="none"
      stroke="hsl(315, 90%, 45%)" 
      points="100,390.0094933228366 330,358.47330280955356 560,425.07125571390156 790,465.2854560562681"
    ></polyline>
  </g><g>
    <text
      class="lib-label"
      x="95"
      y="417.3287508146656"
      fill="hsl(0, 90%, 45%)"
    >effector 22.4.1</text>
    <polyline
      class="line-med"
      fill="none"
      stroke="hsl(0, 90%, 45%)" 
      points="100,414.3287508146656 330,149.06190507450927 560,325.7615704570963 790,417.0195828453681"
    ></polyline>
  </g><g>
    <text
      class="lib-label"
      x="95"
      y="452.6878791531704"
      fill="hsl(45, 90%, 45%)"
    >effector.fork 22.4.1</text>
    <polyline
      class="line-med"
      fill="none"
      stroke="hsl(45, 90%, 45%)" 
      points="100,449.6878791531704 330,335.0651305884663 560,420.68304319938784 790,462.5995166188105"
    ></polyline>
  </g><!--CONTENT_END-->
</svg>