<svg id="bench-chart" viewBox="0 0 830 580" xmlns="http://www.w3.org/2000/svg">
  <style>
    #bench-chart .grid {
      stroke: #777777;
      stroke-width: 1;
    }

    #bench-chart .dashed {
      stroke: #777777;
      opacity: 0.3;
      stroke-width: 1;
      stroke-dasharray: 5, 5;
    }

    #bench-chart .labels {
      fill: #777777;
      font-size: 13px;
      font-family: sans-serif;
    }

    #bench-chart .x-labels {
      text-anchor: middle;
    }

    #bench-chart .y-labels {
      text-anchor: start;
    }

    #bench-chart .lib-label {
      font-size: 12px;
      font-family: sans-serif;
      text-anchor: end;
    }

    #bench-chart .line-med {
      stroke-width: 6;
      opacity: 0.6;
    }
  </style>

  <g class="grid">
    <line x1="100" y1="520" x2="830" y2="520"></line>
    <line x1="100" y1="520" x2="100" y2="0"></line>
  </g>

  <g class="dashed">
    <line x1="330" y1="520" x2="330" y2="0"></line>
    <line x1="560" y1="520" x2="560" y2="0"></line>
    <line x1="790" y1="520" x2="790" y2="0"></line>

    <line x1="100" y1="20" x2="790" y2="20"></line>
    <line x1="100" y1="145" x2="790" y2="145"></line>
    <line x1="100" y1="270" x2="790" y2="270"></line>
    <line x1="100" y1="395" x2="790" y2="395"></line>
  </g>

  <g class="labels x-labels">
    <text x="100" y="540">10</text>
    <text x="330" y="540">100</text>
    <text x="560" y="540">1000</text>
    <text x="790" y="540">10000</text>
    <text x="445" y="560">ITERATIONS</text>
  </g>

  <g class="labels y-labels">
    <text x="795" y="23">100%</text>
    <text x="795" y="148">75%</text>
    <text x="795" y="273">50%</text>
    <text x="795" y="398">25%</text>
  </g>

  <!--CONTENT_START--><g>
    <text
      class="lib-label"
      x="95"
      y="23"
      fill="hsl(160, 90%, 45%)"
    >nanostores 0.7.1</text>
    <polyline
      class="line-med"
      fill="none"
      stroke="hsl(160, 90%, 45%)" 
      points="100,20 330,20 560,39.14893617021279 790,20"
    ></polyline>
  </g><g>
    <text
      class="lib-label"
      x="95"
      y="208.76371725160652"
      fill="hsl(200, 90%, 45%)"
    >preact 1.2.3</text>
    <polyline
      class="line-med"
      fill="none"
      stroke="hsl(200, 90%, 45%)" 
      points="100,205.76371725160652 330,204.25166656834406 560,20 790,33.35266290248743"
    ></polyline>
  </g><g>
    <text
      class="lib-label"
      x="95"
      y="308.71789729155785"
      fill="hsl(280, 90%, 45%)"
    >solid 1.6.9</text>
    <polyline
      class="line-med"
      fill="none"
      stroke="hsl(280, 90%, 45%)" 
      points="100,305.71789729155785 330,329.4844003061206 560,185.11675438148282 790,199.85142054010637"
    ></polyline>
  </g><g>
    <text
      class="lib-label"
      x="95"
      y="328.9967956054017"
      fill="hsl(120, 90%, 45%)"
    >mol 1.0.460</text>
    <polyline
      class="line-med"
      fill="none"
      stroke="hsl(120, 90%, 45%)" 
      points="100,325.9967956054017 330,323.6808128232403 560,180.62551781275891 790,109.89197530864196"
    ></polyline>
  </g><g>
    <text
      class="lib-label"
      x="95"
      y="347.27576293675367"
      fill="hsl(240, 90%, 45%)"
    >reatom 3.1.19</text>
    <polyline
      class="line-med"
      fill="none"
      stroke="hsl(240, 90%, 45%)" 
      points="100,344.27576293675367 330,343.4862476089968 560,303.2385236142347 790,324.8467046080411"
    ></polyline>
  </g><g>
    <text
      class="lib-label"
      x="95"
      y="421.178847724761"
      fill="hsl(80, 90%, 45%)"
    >mobx 6.7.0</text>
    <polyline
      class="line-med"
      fill="none"
      stroke="hsl(80, 90%, 45%)" 
      points="100,418.178847724761 330,405.93546874667004 560,402.80733124720604 790,411.382833787466"
    ></polyline>
  </g><g>
    <text
      class="lib-label"
      x="95"
      y="449.7373516192232"
      fill="hsl(320, 90%, 45%)"
    >wonka 6.1.2</text>
    <polyline
      class="line-med"
      fill="none"
      stroke="hsl(320, 90%, 45%)" 
      points="100,446.7373516192232 330,411.3976421889901 560,442.6757904672015 790,466.25160115957664"
    ></polyline>
  </g><g>
    <text
      class="lib-label"
      x="95"
      y="465.7373516192232"
      fill="hsl(0, 90%, 45%)"
    >effector 22.5.0</text>
    <polyline
      class="line-med"
      fill="none"
      stroke="hsl(0, 90%, 45%)" 
      points="100,454.57722707064056 330,311.66017905799924 560,365.3552299379439 790,422.02463977387936"
    ></polyline>
  </g><g>
    <text
      class="lib-label"
      x="95"
      y="488.3653473680769"
      fill="hsl(40, 90%, 45%)"
    >effector.fork 22.5.0</text>
    <polyline
      class="line-med"
      fill="none"
      stroke="hsl(40, 90%, 45%)" 
      points="100,485.3653473680769 330,413.6610903600095 560,440.3780644847778 790,464.06882218305225"
    ></polyline>
  </g><!--CONTENT_END-->
</svg>