<svg id="bench-chart" viewBox="0 0 830 580" xmlns="http://www.w3.org/2000/svg">
  <style>
    #bench-chart .grid {
      stroke: #777777;
      stroke-width: 1;
    }

    #bench-chart .dashed {
      stroke: #777777;
      opacity: 0.3;
      stroke-width: 1;
      stroke-dasharray: 5, 5;
    }

    #bench-chart .labels {
      fill: #777777;
      font-size: 13px;
      font-family: sans-serif;
    }

    #bench-chart .x-labels {
      text-anchor: middle;
    }

    #bench-chart .y-labels {
      text-anchor: start;
    }

    #bench-chart .lib-label {
      font-size: 12px;
      font-family: sans-serif;
      text-anchor: end;
    }

    #bench-chart .line-med {
      stroke-width: 6;
      opacity: 0.6;
    }
  </style>

  <g class="grid">
    <line x1="100" y1="520" x2="830" y2="520"></line>
    <line x1="100" y1="520" x2="100" y2="0"></line>
  </g>

  <g class="dashed">
    <line x1="330" y1="520" x2="330" y2="0"></line>
    <line x1="560" y1="520" x2="560" y2="0"></line>
    <line x1="790" y1="520" x2="790" y2="0"></line>

    <line x1="100" y1="20" x2="790" y2="20"></line>
    <line x1="100" y1="145" x2="790" y2="145"></line>
    <line x1="100" y1="270" x2="790" y2="270"></line>
    <line x1="100" y1="395" x2="790" y2="395"></line>
  </g>

  <g class="labels x-labels">
    <text x="100" y="540">10</text>
    <text x="330" y="540">100</text>
    <text x="560" y="540">1000</text>
    <text x="790" y="540">10000</text>
    <text x="445" y="560">ITERATIONS</text>
  </g>

  <g class="labels y-labels">
    <text x="795" y="23">100%</text>
    <text x="795" y="148">75%</text>
    <text x="795" y="273">50%</text>
    <text x="795" y="398">25%</text>
  </g>

  <!--CONTENT_START--><g>
    <text
      class="lib-label"
      x="95"
      y="23"
      fill="hsl(160, 90%, 45%)"
    >nanostores 0.7.3</text>
    <polyline
      class="line-med"
      fill="none"
      stroke="hsl(160, 90%, 45%)" 
      points="100,20 330,20 560,116.73250876869116 790,59.82502695082513"
    ></polyline>
  </g><g>
    <text
      class="lib-label"
      x="95"
      y="183.8722336546446"
      fill="hsl(200, 90%, 45%)"
    >preact 1.2.3</text>
    <polyline
      class="line-med"
      fill="none"
      stroke="hsl(200, 90%, 45%)" 
      points="100,180.8722336546446 330,161.02940313398676 560,20 790,20"
    ></polyline>
  </g><g>
    <text
      class="lib-label"
      x="95"
      y="305.6132234847608"
      fill="hsl(280, 90%, 45%)"
    >solid 1.6.10</text>
    <polyline
      class="line-med"
      fill="none"
      stroke="hsl(280, 90%, 45%)" 
      points="100,302.6132234847608 330,292.7348728333364 560,129.42249240121583 790,204.03746512554804"
    ></polyline>
  </g><g>
    <text
      class="lib-label"
      x="95"
      y="321.6132234847608"
      fill="hsl(240, 90%, 45%)"
    >reatom 3.1.19</text>
    <polyline
      class="line-med"
      fill="none"
      stroke="hsl(240, 90%, 45%)" 
      points="100,313.467745481729 330,311.046050833561 560,242.23281836098923 790,345.53368755305434"
    ></polyline>
  </g><g>
    <text
      class="lib-label"
      x="95"
      y="354.6396028246765"
      fill="hsl(120, 90%, 45%)"
    >mol 1.0.464</text>
    <polyline
      class="line-med"
      fill="none"
      stroke="hsl(120, 90%, 45%)" 
      points="100,351.6396028246765 330,325.2876197752523 560,126.32546404757615 790,120.60097883978698"
    ></polyline>
  </g><g>
    <text
      class="lib-label"
      x="95"
      y="388.9584183564263"
      fill="hsl(80, 90%, 45%)"
    >mobx 6.7.0</text>
    <polyline
      class="line-med"
      fill="none"
      stroke="hsl(80, 90%, 45%)" 
      points="100,385.9584183564263 330,387.55088783022956 560,396.22878835094474 790,410.78966789667896"
    ></polyline>
  </g><g>
    <text
      class="lib-label"
      x="95"
      y="436.51602671810195"
      fill="hsl(320, 90%, 45%)"
    >wonka 6.1.2</text>
    <polyline
      class="line-med"
      fill="none"
      stroke="hsl(320, 90%, 45%)" 
      points="100,433.51602671810195 330,403.1390905617119 560,448.162714985695 790,472.30410884727945"
    ></polyline>
  </g><g>
    <text
      class="lib-label"
      x="95"
      y="453.7567844493014"
      fill="hsl(0, 90%, 45%)"
    >effector 22.5.0</text>
    <polyline
      class="line-med"
      fill="none"
      stroke="hsl(0, 90%, 45%)" 
      points="100,450.7567844493014 330,244.95278352369817 560,372.058783692266 790,429.6654728959792"
    ></polyline>
  </g><g>
    <text
      class="lib-label"
      x="95"
      y="469.7567844493014"
      fill="hsl(40, 90%, 45%)"
    >effector.fork 22.5.0</text>
    <polyline
      class="line-med"
      fill="none"
      stroke="hsl(40, 90%, 45%)" 
      points="100,465.59728029837953 330,369.95154979332 560,443.78410438908656 790,469.417769979263"
    ></polyline>
  </g><!--CONTENT_END-->
</svg>