<svg id="bench-chart" viewBox="0 0 830 580" xmlns="http://www.w3.org/2000/svg">
  <style>
    #bench-chart .grid {
      stroke: #777777;
      stroke-width: 1;
    }

    #bench-chart .dashed {
      stroke: #777777;
      opacity: 0.3;
      stroke-width: 1;
      stroke-dasharray: 5, 5;
    }

    #bench-chart .labels {
      fill: #777777;
      font-size: 13px;
      font-family: sans-serif;
    }

    #bench-chart .x-labels {
      text-anchor: middle;
    }

    #bench-chart .y-labels {
      text-anchor: start;
    }

    #bench-chart .lib-label {
      font-size: 12px;
      font-family: sans-serif;
      text-anchor: end;
    }

    #bench-chart .line-med {
      stroke-width: 6;
      opacity: 0.6;
    }
  </style>

  <g class="grid">
    <line x1="100" y1="520" x2="830" y2="520"></line>
    <line x1="100" y1="520" x2="100" y2="0"></line>
  </g>

  <g class="dashed">
    <line x1="330" y1="520" x2="330" y2="0"></line>
    <line x1="560" y1="520" x2="560" y2="0"></line>
    <line x1="790" y1="520" x2="790" y2="0"></line>

    <line x1="100" y1="20" x2="790" y2="20"></line>
    <line x1="100" y1="145" x2="790" y2="145"></line>
    <line x1="100" y1="270" x2="790" y2="270"></line>
    <line x1="100" y1="395" x2="790" y2="395"></line>
  </g>

  <g class="labels x-labels">
    <text x="100" y="540">10</text>
    <text x="330" y="540">100</text>
    <text x="560" y="540">1000</text>
    <text x="790" y="540">10000</text>
    <text x="445" y="560">ITERATIONS</text>
  </g>

  <g class="labels y-labels">
    <text x="795" y="23">100%</text>
    <text x="795" y="148">75%</text>
    <text x="795" y="273">50%</text>
    <text x="795" y="398">25%</text>
  </g>

  <!--CONTENT_START--><g>
    <text
      class="lib-label"
      x="95"
      y="23"
      fill="hsl(180, 90%, 45%)"
    >nanostores 0.7.4</text>
    <polyline
      class="line-med"
      fill="none"
      stroke="hsl(180, 90%, 45%)" 
      points="100,20 330,20 560,43.220226214238195 790,20"
    ></polyline>
  </g><g>
    <text
      class="lib-label"
      x="95"
      y="189.9421943020885"
      fill="hsl(216, 90%, 45%)"
    >preact 1.2.3</text>
    <polyline
      class="line-med"
      fill="none"
      stroke="hsl(216, 90%, 45%)" 
      points="100,186.9421943020885 330,163.43361339476618 560,20 790,35.45905121548263"
    ></polyline>
  </g><g>
    <text
      class="lib-label"
      x="95"
      y="289.3161150634086"
      fill="hsl(144, 90%, 45%)"
    >mol 1.0.548</text>
    <polyline
      class="line-med"
      fill="none"
      stroke="hsl(144, 90%, 45%)" 
      points="100,286.3161150634086 330,301.0882265936991 560,175.41450278899788 790,137.97543729065873"
    ></polyline>
  </g><g>
    <text
      class="lib-label"
      x="95"
      y="305.3161150634086"
      fill="hsl(288, 90%, 45%)"
    >solid 1.7.3</text>
    <polyline
      class="line-med"
      fill="none"
      stroke="hsl(288, 90%, 45%)" 
      points="100,296.14814814814815 330,296.03230748860346 560,158.7376487194999 790,193.68672017801796"
    ></polyline>
  </g><g>
    <text
      class="lib-label"
      x="95"
      y="340.3374301113182"
      fill="hsl(252, 90%, 45%)"
    >reatom 3.2.0</text>
    <polyline
      class="line-med"
      fill="none"
      stroke="hsl(252, 90%, 45%)" 
      points="100,337.3374301113182 330,328.34412431207517 560,253.76430375984546 790,332.80630969477306"
    ></polyline>
  </g><g>
    <text
      class="lib-label"
      x="95"
      y="414.1873255918624"
      fill="hsl(108, 90%, 45%)"
    >mobx 6.9.0</text>
    <polyline
      class="line-med"
      fill="none"
      stroke="hsl(108, 90%, 45%)" 
      points="100,411.1873255918624 330,396.2554214349166 560,404.65748132886944 790,410.468695814549"
    ></polyline>
  </g><g>
    <text
      class="lib-label"
      x="95"
      y="430.1873255918624"
      fill="hsl(324, 90%, 45%)"
    >wonka 6.3.1</text>
    <polyline
      class="line-med"
      fill="none"
      stroke="hsl(324, 90%, 45%)" 
      points="100,422.3975367920161 330,419.02956500976404 560,442.0468415155504 790,468.980479379714"
    ></polyline>
  </g><g>
    <text
      class="lib-label"
      x="95"
      y="446.1873255918624"
      fill="hsl(72, 90%, 45%)"
    >jotai 2.0.3</text>
    <polyline
      class="line-med"
      fill="none"
      stroke="hsl(72, 90%, 45%)" 
      points="100,422.62502148135417 330,440.1040492850829 560,455.32490974729245 790,476.53140515991066"
    ></polyline>
  </g><g>
    <text
      class="lib-label"
      x="95"
      y="462.1873255918624"
      fill="hsl(0, 90%, 45%)"
    >effector 22.8.0</text>
    <polyline
      class="line-med"
      fill="none"
      stroke="hsl(0, 90%, 45%)" 
      points="100,436.9316193111536 330,269.06752002712665 560,359.51087321672526 790,423.7144733139481"
    ></polyline>
  </g><g>
    <text
      class="lib-label"
      x="95"
      y="478.1873255918624"
      fill="hsl(36, 90%, 45%)"
    >effector.fork 22.8.0</text>
    <polyline
      class="line-med"
      fill="none"
      stroke="hsl(36, 90%, 45%)" 
      points="100,465.20597621119816 330,396.2489548494983 560,435.71593234692193 790,466.42064879818355"
    ></polyline>
  </g><!--CONTENT_END-->
</svg>