<svg id="bench-chart" viewBox="0 0 830 580" xmlns="http://www.w3.org/2000/svg">
  <style>
    #bench-chart .grid {
      stroke: #777777;
      stroke-width: 1;
    }

    #bench-chart .dashed {
      stroke: #777777;
      opacity: 0.3;
      stroke-width: 1;
      stroke-dasharray: 5, 5;
    }

    #bench-chart .labels {
      fill: #777777;
      font-size: 13px;
      font-family: sans-serif;
    }

    #bench-chart .x-labels {
      text-anchor: middle;
    }

    #bench-chart .y-labels {
      text-anchor: start;
    }

    #bench-chart .lib-label {
      font-size: 12px;
      font-family: sans-serif;
      text-anchor: end;
    }

    #bench-chart .line-med {
      stroke-width: 6;
      opacity: 0.6;
    }
  </style>

  <g class="grid">
    <line x1="100" y1="520" x2="830" y2="520"></line>
    <line x1="100" y1="520" x2="100" y2="0"></line>
  </g>

  <g class="dashed">
    <line x1="330" y1="520" x2="330" y2="0"></line>
    <line x1="560" y1="520" x2="560" y2="0"></line>
    <line x1="790" y1="520" x2="790" y2="0"></line>

    <line x1="100" y1="20" x2="790" y2="20"></line>
    <line x1="100" y1="145" x2="790" y2="145"></line>
    <line x1="100" y1="270" x2="790" y2="270"></line>
    <line x1="100" y1="395" x2="790" y2="395"></line>
  </g>

  <g class="labels x-labels">
    <text x="100" y="540">10</text>
    <text x="330" y="540">100</text>
    <text x="560" y="540">1000</text>
    <text x="790" y="540">10000</text>
    <text x="445" y="560">ITERATIONS</text>
  </g>

  <g class="labels y-labels">
    <text x="795" y="23">100%</text>
    <text x="795" y="148">75%</text>
    <text x="795" y="273">50%</text>
    <text x="795" y="398">25%</text>
  </g>

  <!--CONTENT_START--><g>
    <text
      class="lib-label"
      x="95"
      y="23"
      fill="hsl(180, 90%, 45%)"
    >preact 1.2.3</text>
    <polyline
      class="line-med"
      fill="none"
      stroke="hsl(180, 90%, 45%)" 
      points="100,20 330,20 560,20 790,65.96767409721802"
    ></polyline>
  </g><g>
    <text
      class="lib-label"
      x="95"
      y="184.4102484393184"
      fill="hsl(270, 90%, 45%)"
    >solid 1.6.8</text>
    <polyline
      class="line-med"
      fill="none"
      stroke="hsl(270, 90%, 45%)" 
      points="100,181.4102484393184 330,230.02070608496336 560,113.90892381238136 790,131.7238289222447"
    ></polyline>
  </g><g>
    <text
      class="lib-label"
      x="95"
      y="258.4201041826806"
      fill="hsl(135, 90%, 45%)"
    >mol 1.0.430</text>
    <polyline
      class="line-med"
      fill="none"
      stroke="hsl(135, 90%, 45%)" 
      points="100,255.42010418268055 330,230.3895534964183 560,98.20835250172625 790,20"
    ></polyline>
  </g><g>
    <text
      class="lib-label"
      x="95"
      y="275.150828612532"
      fill="hsl(225, 90%, 45%)"
    >reatom 3.1.18</text>
    <polyline
      class="line-med"
      fill="none"
      stroke="hsl(225, 90%, 45%)" 
      points="100,272.150828612532 330,294.9512972001896 560,265.76313993569136 790,267.7598189428989"
    ></polyline>
  </g><g>
    <text
      class="lib-label"
      x="95"
      y="367.6291518994463"
      fill="hsl(90, 90%, 45%)"
    >mobx 6.7.0</text>
    <polyline
      class="line-med"
      fill="none"
      stroke="hsl(90, 90%, 45%)" 
      points="100,364.6291518994463 330,367.24674859019814 560,384.0485525810441 790,379.28516148446977"
    ></polyline>
  </g><g>
    <text
      class="lib-label"
      x="95"
      y="411.17362507227887"
      fill="hsl(315, 90%, 45%)"
    >wonka 6.1.2</text>
    <polyline
      class="line-med"
      fill="none"
      stroke="hsl(315, 90%, 45%)" 
      points="100,408.17362507227887 330,393.0810701442583 560,410.8927710530505 790,428.92912668397344"
    ></polyline>
  </g><g>
    <text
      class="lib-label"
      x="95"
      y="429.8394678886144"
      fill="hsl(0, 90%, 45%)"
    >effector 22.4.1</text>
    <polyline
      class="line-med"
      fill="none"
      stroke="hsl(0, 90%, 45%)" 
      points="100,426.8394678886144 330,262.67764812407006 560,342.57295163143516 790,374.67217068403005"
    ></polyline>
  </g><g>
    <text
      class="lib-label"
      x="95"
      y="454.56621607239396"
      fill="hsl(45, 90%, 45%)"
    >effector.fork 22.4.1</text>
    <polyline
      class="line-med"
      fill="none"
      stroke="hsl(45, 90%, 45%)" 
      points="100,451.56621607239396 330,379.90776366565933 560,425.1884465545815 790,433.41122945360723"
    ></polyline>
  </g><!--CONTENT_END-->
</svg>