<svg id="bench-chart" viewBox="0 0 830 580" xmlns="http://www.w3.org/2000/svg">
  <style>
    #bench-chart .grid {
      stroke: #777777;
      stroke-width: 1;
    }

    #bench-chart .dashed {
      stroke: #777777;
      opacity: 0.3;
      stroke-width: 1;
      stroke-dasharray: 5, 5;
    }

    #bench-chart .labels {
      fill: #777777;
      font-size: 13px;
      font-family: sans-serif;
    }

    #bench-chart .x-labels {
      text-anchor: middle;
    }

    #bench-chart .y-labels {
      text-anchor: start;
    }

    #bench-chart .lib-label {
      font-size: 12px;
      font-family: sans-serif;
      text-anchor: end;
    }

    #bench-chart .line-med {
      stroke-width: 6;
      opacity: 0.6;
    }
  </style>

  <g class="grid">
    <line x1="100" y1="520" x2="830" y2="520"></line>
    <line x1="100" y1="520" x2="100" y2="0"></line>
  </g>

  <g class="dashed">
    <line x1="330" y1="520" x2="330" y2="0"></line>
    <line x1="560" y1="520" x2="560" y2="0"></line>
    <line x1="790" y1="520" x2="790" y2="0"></line>

    <line x1="100" y1="20" x2="790" y2="20"></line>
    <line x1="100" y1="145" x2="790" y2="145"></line>
    <line x1="100" y1="270" x2="790" y2="270"></line>
    <line x1="100" y1="395" x2="790" y2="395"></line>
  </g>

  <g class="labels x-labels">
    <text x="100" y="540">10</text>
    <text x="330" y="540">100</text>
    <text x="560" y="540">1000</text>
    <text x="790" y="540">10000</text>
    <text x="445" y="560">ITERATIONS</text>
  </g>

  <g class="labels y-labels">
    <text x="795" y="23">100%</text>
    <text x="795" y="148">75%</text>
    <text x="795" y="273">50%</text>
    <text x="795" y="398">25%</text>
  </g>

  <!--CONTENT_START--><g>
    <text
      class="lib-label"
      x="95"
      y="23"
      fill="hsl(180, 90%, 45%)"
    >preact 1.2.3</text>
    <polyline
      class="line-med"
      fill="none"
      stroke="hsl(180, 90%, 45%)" 
      points="100,20 330,20 560,20 790,20"
    ></polyline>
  </g><g>
    <text
      class="lib-label"
      x="95"
      y="186.09044040228005"
      fill="hsl(270, 90%, 45%)"
    >solid 1.6.9</text>
    <polyline
      class="line-med"
      fill="none"
      stroke="hsl(270, 90%, 45%)" 
      points="100,183.09044040228005 330,220.78344529839777 560,122.55281690140843 790,173.84841104492503"
    ></polyline>
  </g><g>
    <text
      class="lib-label"
      x="95"
      y="210.2830577816121"
      fill="hsl(225, 90%, 45%)"
    >reatom 3.1.19</text>
    <polyline
      class="line-med"
      fill="none"
      stroke="hsl(225, 90%, 45%)" 
      points="100,207.2830577816121 330,247.79061597975232 560,250.4343499676601 790,291.9557694910012"
    ></polyline>
  </g><g>
    <text
      class="lib-label"
      x="95"
      y="226.2830577816121"
      fill="hsl(135, 90%, 45%)"
    >mol 1.0.441</text>
    <polyline
      class="line-med"
      fill="none"
      stroke="hsl(135, 90%, 45%)" 
      points="100,215.53847971022103 330,215.34077344297708 560,163.646408839779 790,95.46694497426853"
    ></polyline>
  </g><g>
    <text
      class="lib-label"
      x="95"
      y="324.28273764909954"
      fill="hsl(90, 90%, 45%)"
    >mobx 6.7.0</text>
    <polyline
      class="line-med"
      fill="none"
      stroke="hsl(90, 90%, 45%)" 
      points="100,321.28273764909954 330,338.71071398370776 560,389.1904681426398 790,396.8233979680272"
    ></polyline>
  </g><g>
    <text
      class="lib-label"
      x="95"
      y="392.60401326513403"
      fill="hsl(315, 90%, 45%)"
    >wonka 6.1.2</text>
    <polyline
      class="line-med"
      fill="none"
      stroke="hsl(315, 90%, 45%)" 
      points="100,389.60401326513403 330,349.6201713441028 560,430.6581909025699 790,463.08631253920004"
    ></polyline>
  </g><g>
    <text
      class="lib-label"
      x="95"
      y="409.7848332304419"
      fill="hsl(0, 90%, 45%)"
    >effector 22.5.0</text>
    <polyline
      class="line-med"
      fill="none"
      stroke="hsl(0, 90%, 45%)" 
      points="100,406.7848332304419 330,146.0001860811314 560,353.3230788162185 790,417.41727901213096"
    ></polyline>
  </g><g>
    <text
      class="lib-label"
      x="95"
      y="440.98316089424384"
      fill="hsl(45, 90%, 45%)"
    >effector.fork 22.5.0</text>
    <polyline
      class="line-med"
      fill="none"
      stroke="hsl(45, 90%, 45%)" 
      points="100,437.98316089424384 330,334.8774983881367 560,438.8448345590989 790,463.7972862233911"
    ></polyline>
  </g><!--CONTENT_END-->
</svg>